<svg xmlns="http://www.w3.org/2000/svg" xmlns:xlink="http://www.w3.org/1999/xlink" width="333.162" height="329.085" viewBox="0 0 333.162 329.085">
  <defs>
    <linearGradient id="linear-gradient" x1="0.5" x2="0.5" y2="1" gradientUnits="objectBoundingBox">
      <stop offset="0" stop-color="#f1c548"/>
      <stop offset="1" stop-color="#edbd49"/>
    </linearGradient>
    <linearGradient id="linear-gradient-2" y1="0.5" x2="1" y2="0.5" gradientUnits="objectBoundingBox">
      <stop offset="0" stop-color="#dae3fe"/>
      <stop offset="1" stop-color="#e9effd"/>
    </linearGradient>
    <linearGradient id="linear-gradient-10" x1="0.992" y1="-0.563" x2="0.224" y2="1.345" gradientUnits="objectBoundingBox">
      <stop offset="0"/>
      <stop offset="1"/>
    </linearGradient>
    <linearGradient id="linear-gradient-11" x1="-63.089" y1="-239.811" x2="-62.089" y2="-239.811" gradientUnits="objectBoundingBox">
      <stop offset="0" stop-color="#febbba"/>
      <stop offset="1" stop-color="#ff928e"/>
    </linearGradient>
    <linearGradient id="linear-gradient-12" x1="-4.986" y1="0.5" x2="-3.986" y2="0.5" xlink:href="#linear-gradient-11"/>
    <linearGradient id="linear-gradient-13" x1="2.21" y1="-2.196" x2="1.558" y2="-1.097" gradientUnits="objectBoundingBox">
      <stop offset="0" stop-color="#09005d"/>
      <stop offset="1" stop-color="#1a0f91"/>
    </linearGradient>
    <linearGradient id="linear-gradient-14" x1="-8.107" y1="0.833" x2="-8.387" y2="-0.234" xlink:href="#linear-gradient-11"/>
    <linearGradient id="linear-gradient-15" x1="0.112" y1="0.34" x2="1.184" y2="0.762" xlink:href="#linear-gradient-11"/>
    <linearGradient id="linear-gradient-16" x1="15.017" y1="18.56" x2="15.924" y2="18.56" xlink:href="#linear-gradient-13"/>
    <linearGradient id="linear-gradient-17" x1="-1.807" y1="-0.608" x2="1.164" y2="0.819" xlink:href="#linear-gradient-11"/>
    <linearGradient id="linear-gradient-18" x1="1.543" y1="0.5" x2="2.543" y2="0.5" gradientUnits="objectBoundingBox">
      <stop offset="0" stop-color="#4042e2"/>
      <stop offset="1" stop-color="#4f52ff"/>
    </linearGradient>
    <linearGradient id="linear-gradient-19" x1="3.484" y1="-1.365" x2="-0.242" y2="1.237" xlink:href="#linear-gradient-13"/>
    <linearGradient id="linear-gradient-20" x1="3.584" y1="0.5" x2="4.584" y2="0.5" xlink:href="#linear-gradient-11"/>
    <linearGradient id="linear-gradient-21" x1="-7.987" y1="0.5" x2="-6.987" y2="0.5" xlink:href="#linear-gradient-18"/>
    <linearGradient id="linear-gradient-22" x1="-1.837" y1="-0.771" x2="2.175" y2="1.483" xlink:href="#linear-gradient-13"/>
    <linearGradient id="linear-gradient-23" x1="-7.477" y1="0.5" x2="-6.477" y2="0.5" xlink:href="#linear-gradient-11"/>
    <linearGradient id="linear-gradient-24" x1="-4.875" y1="1.073" x2="-2.928" y2="-0.534" xlink:href="#linear-gradient-13"/>
    <linearGradient id="linear-gradient-25" x1="0.727" y1="0.159" x2="-0.108" y2="1.39" xlink:href="#linear-gradient-11"/>
    <linearGradient id="linear-gradient-26" x1="2.14" y1="-1.391" x2="1.377" y2="-0.444" xlink:href="#linear-gradient-13"/>
    <linearGradient id="linear-gradient-27" x1="-10.612" y1="0.5" x2="-9.612" y2="0.5" xlink:href="#linear-gradient-13"/>
    <linearGradient id="linear-gradient-28" x1="-8.259" y1="-12.944" x2="-11.958" y2="11.133" xlink:href="#linear-gradient-18"/>
    <linearGradient id="linear-gradient-29" x1="-6.215" y1="-5.387" x2="-8.731" y2="17.678" xlink:href="#linear-gradient-18"/>
    <linearGradient id="linear-gradient-30" x1="-7.372" y1="0.5" x2="-6.372" y2="0.5" xlink:href="#linear-gradient-13"/>
    <linearGradient id="linear-gradient-31" x1="0.5" x2="0.5" y2="1" gradientUnits="objectBoundingBox">
      <stop offset="0" stop-color="#fff"/>
      <stop offset="1" stop-color="#e8e8e8"/>
    </linearGradient>
  </defs>
  <g id="Group_684" data-name="Group 684" transform="translate(0)">
    <path id="Path_2054" data-name="Path 2054" d="M803.361,726.927a121.657,121.657,0,0,1-21.368,17.345c-55.34,36.951-118.6,26.3-138.159,22.661-31.555-5.873-58.192-10.016-81.078-30.693-52-46.983-49.474-144.994-9.737-205.707,4.712-7.2,44.389-66.013,107.786-74.3,1.551-.2,2.708-.318,3.721-.425,9.807-1.038,70.582-6.519,120.137,35a147.834,147.834,0,0,1,29.1,33.012C852.465,583.6,852.587,676.186,803.361,726.927Z" transform="translate(-517.74 -455)" fill="#f4f7fa"/>
    <g id="Group_670" data-name="Group 670" transform="translate(0 17.927)">
      <path id="Path_2055" data-name="Path 2055" d="M2442.047,1361.615l28.227-6.571s18.874-1.7,21.426,15.078,1.813,116.157,1.013,136.654a131.484,131.484,0,0,0,.344,18.44,19.455,19.455,0,0,1-19.047,21.438l-52.551.909Z" transform="translate(-2186.434 -1264.178)" fill="#f1c548"/>
      <g id="Group_665" data-name="Group 665" transform="translate(240.595 163.807)">
        <path id="Path_2056" data-name="Path 2056" d="M2467.561,2086.733s5.638-79.069,45.747-127.267a.969.969,0,0,1,1.705.3C2519.383,1971.978,2543.948,2050.495,2467.561,2086.733Z" transform="translate(-2467.561 -1959.078)" fill="#f9b306"/>
        <path id="Path_2057" data-name="Path 2057" d="M2522.989,2148.306c-.338,4.613-1.006,9.165-1.78,13.709q-1.2,6.8-2.847,13.525a205.471,205.471,0,0,1-8.365,26.367c-1.712,4.288-3.528,8.539-5.56,12.688-.985,2.089-2.085,4.124-3.138,6.179-1.119,2.022-2.212,4.057-3.425,6.026a128.332,128.332,0,0,1-16.47,22.2.5.5,0,0,1-.76-.642l0-.006a173.928,173.928,0,0,0,14.983-22.84c1.125-1.977,2.126-4.024,3.2-6.029,1-2.046,2.036-4.069,2.963-6.147.465-1.039.969-2.058,1.421-3.1l1.374-3.124c.451-1.046.874-2.1,1.312-3.153s.857-2.108,1.266-3.171c.848-2.112,1.636-4.249,2.432-6.382.759-2.147,1.517-4.295,2.227-6.46,1.464-4.316,2.763-8.686,4.018-13.072,1.229-4.392,2.372-8.812,3.4-13.262,1.045-4.443,1.975-8.929,2.762-13.417l0-.014a.5.5,0,0,1,.986.123Z" transform="translate(-2478.973 -2124.973)" fill="#f9b306"/>
      </g>
      <g id="Group_666" data-name="Group 666" transform="translate(245.566 212.171)">
        <path id="Path_2058" data-name="Path 2058" d="M2508.7,2429.981s41.346-69.546,86.328-70.636a1.24,1.24,0,0,1,1.241,1.5C2594.356,2369.93,2580.964,2417.519,2508.7,2429.981Z" transform="translate(-2508.703 -2359.344)" fill="#f9b306"/>
        <path id="Path_2059" data-name="Path 2059" d="M2594.648,2444.558c-2.726,2.863-5.532,5.616-8.378,8.341-1.437,1.345-2.875,2.691-4.326,4.021-1.465,1.315-2.914,2.65-4.393,3.949q-8.855,7.819-18.236,15.015c-3.1,2.43-6.311,4.712-9.479,7.051l-4.847,3.378c-.809.561-1.613,1.129-2.432,1.677l-2.473,1.615c-6.537,4.4-13.367,8.343-20.246,12.174a.5.5,0,0,1-.494-.863l.013-.008,5.076-2.978,2.537-1.488c.838-.509,1.662-1.042,2.493-1.562l4.986-3.122c1.644-1.069,3.268-2.171,4.9-3.255l2.448-1.632,2.41-1.687,4.816-3.379c3.148-2.339,6.339-4.623,9.419-7.053,3.122-2.376,6.173-4.841,9.228-7.3l4.524-3.763,4.469-3.83c1.488-1.279,2.945-2.592,4.419-3.886,1.461-1.31,2.908-2.634,4.354-3.96,2.88-2.66,5.741-5.356,8.491-8.136l.007-.007a.5.5,0,0,1,.713.692Z" transform="translate(-2517.843 -2433.523)" fill="#bdd0fb"/>
      </g>
      <path id="Path_2060" data-name="Path 2060" d="M2080.585,1363.293s51.4,2.824,85.613-7.936c0,0-22.746-1.558-22.746,50.956,0,40.15,5.955,116.784.756,131.332s-24.639,34.1-52.507,17.3S2080.585,1363.293,2080.585,1363.293Z" transform="translate(-1882.358 -1264.492)" fill="#ffd767"/>
      <path id="Path_2061" data-name="Path 2061" d="M2003.819,626.612s56.709,6.181,64.014-3.431c0,0-5.812-17.3-23.069-16.148S2003.819,626.612,2003.819,626.612Z" transform="translate(-1819.256 -606.541)" fill="#ffd767"/>
      <path id="Path_2062" data-name="Path 2062" d="M476.456,642.9c4.945,55.574,15.332,173.124,19.851,230.385a25.745,25.745,0,0,0,24.018,23.669c45.52,2.922,147.964,8.591,187.278,3.316h0a26.165,26.165,0,0,1-14.595-23.681L695.1,619.64c.074-9.079,9.117-15.6,17.619-12.417,5.356,2.007,9.412,6.283,12.195,12.782-3.712-10.816-9.549-18.73-23.069-16.148,0,0-132.231,1.322-196.4,5.3A31.041,31.041,0,0,0,476.456,642.9Z" transform="translate(-476.332 -603.366)" fill="url(#linear-gradient)"/>
      <g id="Group_667" data-name="Group 667" transform="translate(30.443 87.548)">
        <path id="Path_2063" data-name="Path 2063" d="M728.327,1341.267l2.073,19.9a7.372,7.372,0,0,0,7.05,6.6l11.587.445a7.372,7.372,0,0,0,7.654-7.367V1339.38a7.372,7.372,0,0,0-7.976-7.347l-13.661,1.123A7.372,7.372,0,0,0,728.327,1341.267Z" transform="translate(-728.286 -1331.515)" fill="url(#linear-gradient-2)"/>
        <path id="Path_2064" data-name="Path 2064" d="M1036.436,1331.55c19.286-.6,93.319-3.006,112.013-3.615a4.172,4.172,0,0,1,4.307,4.173h0a4.175,4.175,0,0,1-4.02,4.172l-111.941,4.156a4.176,4.176,0,0,1-4.3-3.636l-.07-.541A4.173,4.173,0,0,1,1036.436,1331.55Z" transform="translate(-995.649 -1327.933)" fill="url(#linear-gradient-2)"/>
        <path id="Path_2065" data-name="Path 2065" d="M1051.28,1506.45h0a1.776,1.776,0,0,0,1.564.866l76.864-1.67a1.776,1.776,0,0,0,1.737-1.776V1498.8a1.776,1.776,0,0,0-1.842-1.775l-74.721,2.794A4.385,4.385,0,0,0,1051.28,1506.45Z" transform="translate(-1011.704 -1476.596)" fill="url(#linear-gradient-2)"/>
      </g>
      <g id="Group_668" data-name="Group 668" transform="translate(30.443 142.783)">
        <path id="Path_2066" data-name="Path 2066" d="M728.327,1798.411l2.073,19.9a7.372,7.372,0,0,0,7.05,6.6l11.587.445a7.372,7.372,0,0,0,7.654-7.366v-21.469a7.372,7.372,0,0,0-7.976-7.347l-13.661,1.123A7.372,7.372,0,0,0,728.327,1798.411Z" transform="translate(-728.286 -1788.659)" fill="url(#linear-gradient-2)"/>
        <path id="Path_2067" data-name="Path 2067" d="M1036.436,1788.7c19.286-.6,93.319-3.007,112.013-3.615a4.172,4.172,0,0,1,4.307,4.173h0a4.175,4.175,0,0,1-4.02,4.173l-111.941,4.156a4.176,4.176,0,0,1-4.3-3.636l-.07-.542A4.172,4.172,0,0,1,1036.436,1788.7Z" transform="translate(-995.649 -1785.078)" fill="url(#linear-gradient-2)"/>
        <path id="Path_2068" data-name="Path 2068" d="M1051.28,1963.594h0a1.776,1.776,0,0,0,1.564.865l76.864-1.67a1.776,1.776,0,0,0,1.737-1.776v-5.067a1.776,1.776,0,0,0-1.842-1.775l-74.721,2.794A4.385,4.385,0,0,0,1051.28,1963.594Z" transform="translate(-1011.704 -1933.74)" fill="#fff" opacity="0.78"/>
      </g>
      <g id="Group_669" data-name="Group 669" transform="translate(30.443 198.019)">
        <path id="Path_2069" data-name="Path 2069" d="M728.327,2255.555l2.073,19.9a7.372,7.372,0,0,0,7.05,6.6l11.587.445a7.373,7.373,0,0,0,7.654-7.367v-21.469a7.372,7.372,0,0,0-7.976-7.348l-13.661,1.123A7.372,7.372,0,0,0,728.327,2255.555Z" transform="translate(-728.286 -2245.804)" fill="url(#linear-gradient-2)"/>
        <path id="Path_2070" data-name="Path 2070" d="M1036.436,2245.839c19.286-.6,93.319-3.006,112.013-3.615a4.172,4.172,0,0,1,4.307,4.174h0a4.176,4.176,0,0,1-4.02,4.173l-111.941,4.155a4.175,4.175,0,0,1-4.3-3.636l-.07-.542A4.173,4.173,0,0,1,1036.436,2245.839Z" transform="translate(-995.649 -2242.222)" fill="url(#linear-gradient-2)"/>
        <path id="Path_2071" data-name="Path 2071" d="M1051.28,2420.739h0a1.776,1.776,0,0,0,1.564.866l76.864-1.67a1.776,1.776,0,0,0,1.737-1.776v-5.067a1.776,1.776,0,0,0-1.842-1.775l-74.721,2.794A4.385,4.385,0,0,0,1051.28,2420.739Z" transform="translate(-1011.704 -2390.885)" fill="url(#linear-gradient-2)"/>
      </g>
      <path id="Path_2072" data-name="Path 2072" d="M2573.383,2270.519a.865.865,0,0,1-.864-.849c0-.026-.053-2.752-.315-12.091a.865.865,0,1,1,1.729-.049c.263,9.352.315,12.081.316,12.107a.866.866,0,0,1-.849.881Z" transform="translate(-2318.964 -2056.923)" fill="#fff" style="mix-blend-mode: soft-light;isolation: isolate"/>
      <path id="Path_2073" data-name="Path 2073" d="M2556.582,1523.166a.865.865,0,0,1-.865-.839c-.186-6.079-.476-12.8-.783-19.915-.414-9.613-.843-19.555-1.07-29.131-.6-25.273,3.572-34.975,7.174-38.664,1.958-2,3.6-2.063,3.779-2.063a.865.865,0,0,1,.017,1.73c-.2.014-10.135,1.106-9.241,38.956.226,9.559.654,19.492,1.069,29.1.307,7.121.6,13.847.783,19.937a.865.865,0,0,1-.839.891Z" transform="translate(-2302.791 -1332.366)" fill="#fff" style="mix-blend-mode: soft-light;isolation: isolate"/>
      <path id="Path_2074" data-name="Path 2074" d="M1445.766,2584.792a4.014,4.014,0,0,1-2.682-1.266c-3.407-3.13-4.286-7.94-4.526-12.514-1.572,1.759-3.18,3.473-4.771,5.167l-.88-.825c1.867-1.99,3.76-4.006,5.586-6.09a135.668,135.668,0,0,1,.859-18.828,39.013,39.013,0,0,1,2.736-11.547,9.354,9.354,0,0,1,2.91-3.914,4.547,4.547,0,0,1,5.012-.291c1.551,1.042,1.969,3.015,2.148,4.41,1.054,8.2-2.144,15.706-5.01,20.564a68.606,68.606,0,0,1-7.435,10.045c.141,4.683.79,9.813,4.188,12.935a2.823,2.823,0,0,0,1.922.947c.958-.034,1.732-.964,2.364-1.869a51.263,51.263,0,0,0,6.668-13.305,14.029,14.029,0,0,1,1.186-4.123l1.134.4q-.493,2.025-1.137,3.993a12.834,12.834,0,0,0,.155,4.03c.142.7.736,3.029,2.452,3.356,1.28.242,2.615-.727,4.089-2.967l6.042-9.184-.763,3.288c-.269,1.161-.721,3.932.9,4.6.922.38,1.9-.169,3.025-.8a5.852,5.852,0,0,1,3.6-1.111l.622.083-.106.618c-.061.354-.549,3.462,1.063,3.819.739.164,1.356-.348,2.287-1.208a5.846,5.846,0,0,1,2.483-1.616l.283,1.173a4.925,4.925,0,0,0-1.947,1.328c-.918.849-1.956,1.811-3.366,1.5-1.836-.406-2.288-2.475-2.089-4.494a6.99,6.99,0,0,0-2.237.958c-1.225.69-2.615,1.472-4.077.87-1.207-.5-1.86-1.695-1.911-3.411l-2.8,4.255c-1.13,1.718-2.908,3.95-5.323,3.488-1.658-.315-2.932-1.925-3.409-4.3-.066-.331-.12-.666-.162-1a52.576,52.576,0,0,1-5.671,10.464c-.755,1.081-1.814,2.329-3.31,2.384Zm2.1-49.532a3.935,3.935,0,0,0-2.175.7,8.231,8.231,0,0,0-2.5,3.418,37.933,37.933,0,0,0-2.638,11.192,134.482,134.482,0,0,0-.878,17.319,64.365,64.365,0,0,0,6.434-8.851c2.771-4.695,5.863-11.941,4.854-19.8-.238-1.845-.754-2.977-1.624-3.562A2.606,2.606,0,0,0,1447.866,2535.26Z" transform="translate(-1317.327 -2300.781)" fill="url(#linear-gradient-10)"/>
      <path id="Path_2075" data-name="Path 2075" d="M873.951,942.347l-141.544,4.2a9.338,9.338,0,0,1-9.6-8.876l-.519-10.589a9.338,9.338,0,0,1,9.08-9.792l142.248-3.761a9.338,9.338,0,0,1,9.583,9.5l-.184,10.149A9.338,9.338,0,0,1,873.951,942.347Z" transform="translate(-692.556 -876.05)" fill="#fff" opacity="0.78"/>
    </g>
    <g id="Group_683" data-name="Group 683" transform="translate(46.729 85.468)">
      <path id="Path_2076" data-name="Path 2076" d="M1559.874,2057.349s-5.56-3.647-6.33-2.806a16.707,16.707,0,0,0-1.51,2.426,2.041,2.041,0,0,0,.327,2.386l1.433,1.482a3.242,3.242,0,0,0,4.883-.241A5.87,5.87,0,0,0,1559.874,2057.349Z" transform="translate(-1474.911 -1975.313)" fill="url(#linear-gradient-11)"/>
      <g id="Group_678" data-name="Group 678" transform="translate(78.247 1.084)">
        <g id="Group_671" data-name="Group 671" transform="translate(0 37.59)">
          <path id="Path_2077" data-name="Path 2077" d="M1573.8,1982.819s-1.908-5.023-4.137-4.563a15.235,15.235,0,0,0-4.667,2.172l-3.581,4.842s10.051,3.96,13.586,1.69a77.344,77.344,0,0,0,23.231-.353,50.834,50.834,0,0,1-3.652-11.008C1588.01,1979.316,1580.938,1982.093,1573.8,1982.819Z" transform="translate(-1561.412 -1946.387)" fill="url(#linear-gradient-12)"/>
          <path id="Path_2078" data-name="Path 2078" d="M1828.071,1770.311s-14.7,18.513-33.6,29.213a50.8,50.8,0,0,0,3.652,11.008c9.806-1.609,21.155-5.45,30.776-13.982Z" transform="translate(-1761.304 -1770.311)" fill="url(#linear-gradient-13)"/>
        </g>
        <path id="Path_2079" data-name="Path 2079" d="M2037.857,1834.926c-2.875-13.654-5.749-21.559-15.374-47.44-3.029-8.145-5.78-16.385-4.45-24.973l1.493-9.644s18.705-6.33,39.439-.267c0,0,28.288,12.289,9.074,72.981C2059.378,1835.273,2049.243,1838.035,2037.857,1834.926Z" transform="translate(-1952.759 -1715.279)" fill="#d7e6dd"/>
        <path id="Path_2080" data-name="Path 2080" d="M2052.971,1665.148l4.85,11.652a2.323,2.323,0,0,0,1.754,1.4c2.8.479,9.56,1.229,14-1.692a1.128,1.128,0,0,0,.3-1.587l-8.96-12.865Z" transform="translate(-1983.02 -1639.867)" fill="url(#linear-gradient-14)"/>
        <g id="Group_672" data-name="Group 672" transform="translate(63.727)">
          <path id="Path_2081" data-name="Path 2081" d="M2036.4,1554.712c-.2.192-8.6,16.674-8.6,16.674l9.512,4.592,10.276-14.44S2039.814,1551.5,2036.4,1554.712Z" transform="translate(-2025.165 -1547.259)" fill="url(#linear-gradient-15)"/>
          <path id="Path_2082" data-name="Path 2082" d="M2027.345,1522.171l-4.745,7.909a1.468,1.468,0,0,1-.26.323c-.565.526-2.5,2.055-3.991-.027-1.273-1.774-2.468-3.387-3.748-4.053a1.517,1.517,0,0,0-2.047.674,56.514,56.514,0,0,0-3.247,7.7,1.51,1.51,0,0,0,.878,1.852,42.086,42.086,0,0,0,9.112,2.658,1.518,1.518,0,0,0,1.435-.61c1.454-1.991,5.55-7.556,6.948-8.949,1.3-1.294,3.7-.806,4.777-.5a1.523,1.523,0,0,0,1.212-.159c1.1-.66,3.009-2.3,1.259-5.087a1.518,1.518,0,0,1,.47-2.063,3.357,3.357,0,0,0,1.286-4.763,4.733,4.733,0,0,0-5.125-2.509,1.576,1.576,0,0,1-1.653-.919,1,1,0,0,0-.783-.617,1.473,1.473,0,0,1-1.192-1.73,3.887,3.887,0,0,0-2.17-4.453c-4.1-2.257-7.7,1.42-8.615,4.525s3.675,5.3,6.562,5.664c2.12.27,3.283,2.583,3.751,3.793A1.521,1.521,0,0,1,2027.345,1522.171Z" transform="translate(-2009.237 -1506.159)" fill="url(#linear-gradient-16)"/>
          <path id="Path_2083" data-name="Path 2083" d="M2124.8,1660.082s2.042-4.8,4.378-4.608,4.175,2.524,1.28,5.14C2126.858,1663.868,2124.8,1660.082,2124.8,1660.082Z" transform="translate(-2108.357 -1634.221)" fill="url(#linear-gradient-17)"/>
        </g>
        <g id="Group_673" data-name="Group 673" transform="translate(82.512 224.359)">
          <path id="Path_2084" data-name="Path 2084" d="M2141.984,3192.563c4.518.391,12.358,1.025,18.54,1.3,3.715.164,5.854-.2,7.087-.694,0,.139-.006.271-.011.392a1.28,1.28,0,0,1-1.215,1.208,217.243,217.243,0,0,1-24.275.024.91.91,0,0,1-.742-1.368A7.388,7.388,0,0,1,2141.984,3192.563Z" transform="translate(-2141.239 -3176.94)" fill="url(#linear-gradient-18)"/>
          <path id="Path_2085" data-name="Path 2085" d="M2165.012,3138.878c-6.182-.272-14.022-.906-18.54-1.3,4.442-5.45,18.54-9.122,18.54-9.122h3.981a16.694,16.694,0,0,1,3.1,9.725C2170.866,3138.677,2168.727,3139.041,2165.012,3138.878Z" transform="translate(-2145.727 -3121.958)" fill="url(#linear-gradient-19)"/>
          <path id="Path_2086" data-name="Path 2086" d="M2264.675,3082.778l-.372,7.374a1.685,1.685,0,0,1-1.437,1.584,6.56,6.56,0,0,1-2.991-.248,1.992,1.992,0,0,1-1.34-1.532l-1.287-7.177Z" transform="translate(-2240.739 -3082.778)" fill="url(#linear-gradient-20)"/>
        </g>
        <g id="Group_675" data-name="Group 675" transform="translate(144.795 217.468)">
          <g id="Group_674" data-name="Group 674" transform="translate(1.754 6.843)">
            <path id="Path_2087" data-name="Path 2087" d="M2631.8,3186.948a3.578,3.578,0,0,0,3.218-2.379c0,.01,0,.02.007.029a2.546,2.546,0,0,1-1.716,2.9,11.234,11.234,0,0,1-4.75.744,4.723,4.723,0,0,1-3.562-1.644l-.011-.015C2626.46,3187.317,2628.532,3187.4,2631.8,3186.948Z" transform="translate(-2620.182 -3170.036)" fill="url(#linear-gradient-21)"/>
            <path id="Path_2088" data-name="Path 2088" d="M2593.625,3082.442h3.283c5-.1,8.143,10.448,9.171,14.532a3.577,3.577,0,0,1-3.218,2.379c-3.267.456-5.338.37-6.815-.361-2.7-3.555-4.042-8.764-4.686-11.8A4.144,4.144,0,0,1,2593.625,3082.442Z" transform="translate(-2591.246 -3082.441)" fill="url(#linear-gradient-22)"/>
          </g>
          <path id="Path_2089" data-name="Path 2089" d="M2585.913,3034.354l1.823,7.252a1.968,1.968,0,0,1-1.024,2.231,6.986,6.986,0,0,1-3.776.915,1.647,1.647,0,0,1-1.341-1.1l-2.677-7.629Z" transform="translate(-2578.918 -3034.354)" fill="url(#linear-gradient-23)"/>
        </g>
        <path id="Path_2090" data-name="Path 2090" d="M2223.949,2392.957c-2.269,2.012-9.647,2.278-9.647,2.278-26.58-63.794-37.661-81.355-37.661-81.355,3.838,24.078.828,85.885.828,85.885-4.386,1.936-10.042,0-10.042,0-.356-39.419-5.906-81.777-13.064-108.881,17.965-.4,27.728-4.32,30.847-6.787C2200.185,2308.239,2223.949,2392.957,2223.949,2392.957Z" transform="translate(-2069.984 -2173.393)" fill="url(#linear-gradient-24)"/>
        <g id="Group_676" data-name="Group 676" transform="translate(77.63 100.5)">
          <path id="Path_2091" data-name="Path 2091" d="M2122.56,2409.038l3.306,20.56a6.772,6.772,0,0,0,7.518,5.63l49.475-6.035a4.887,4.887,0,0,0,4.3-4.743c.106-5.312-.1-14.767-2.333-23.381Z" transform="translate(-2120.336 -2374.219)" fill="#303043"/>
          <path id="Path_2092" data-name="Path 2092" d="M2143.066,2435.773a.163.163,0,0,1-.021-.324l1.293-.158a.16.16,0,0,1,.181.142.162.162,0,0,1-.142.182l-1.293.158Zm-3.016-.057a.17.17,0,0,1-.04,0,6.669,6.669,0,0,1-1.253-.448.163.163,0,1,1,.14-.294,6.318,6.318,0,0,0,1.192.427.162.162,0,0,1-.039.32Zm7.323-.469a.163.163,0,0,1-.02-.324l1.293-.157a.162.162,0,1,1,.039.323l-1.292.157Zm4.308-.525a.163.163,0,0,1-.02-.324l1.292-.158a.158.158,0,0,1,.182.142.163.163,0,0,1-.142.182l-1.293.158Zm4.308-.525a.163.163,0,0,1-.02-.324l1.292-.158a.161.161,0,0,1,.181.142.163.163,0,0,1-.142.182l-1.292.157Zm4.308-.526a.163.163,0,0,1-.02-.324l1.293-.158a.158.158,0,0,1,.181.141.162.162,0,0,1-.141.182l-1.292.157Zm-23.813-.281a.163.163,0,0,1-.129-.063,6.483,6.483,0,0,1-.7-1.133.163.163,0,1,1,.293-.142,6.2,6.2,0,0,0,.667,1.075.163.163,0,0,1-.029.229A.16.16,0,0,1,2136.484,2433.389Zm28.122-.244a.163.163,0,0,1-.021-.324l1.293-.158a.158.158,0,0,1,.181.141.162.162,0,0,1-.142.182l-1.292.158Zm4.307-.525a.163.163,0,0,1-.02-.325l1.293-.157a.164.164,0,0,1,.181.142.162.162,0,0,1-.142.181l-1.292.157Zm4.308-.525a.163.163,0,0,1-.02-.324l1.292-.157a.158.158,0,0,1,.181.141.162.162,0,0,1-.141.181l-1.293.158Zm4.308-.526a.163.163,0,0,1-.02-.324l1.293-.157a.157.157,0,0,1,.181.141.162.162,0,0,1-.141.181l-1.292.158Zm4.308-.525a.163.163,0,0,1-.02-.324l1.292-.158a.163.163,0,0,1,.04.323l-1.293.157Zm4.308-.525a.163.163,0,0,1-.02-.325l1.292-.158a.16.16,0,0,1,.182.142.164.164,0,0,1-.142.182l-1.292.157Zm4.288-.627a.163.163,0,0,1-.053-.317,4.5,4.5,0,0,0,1.116-.567.163.163,0,0,1,.187.267,4.843,4.843,0,0,1-1.2.609A.159.159,0,0,1,2190.433,2429.892Zm-55.381-.537a.162.162,0,0,1-.161-.136l-.206-1.285a.163.163,0,0,1,.322-.052l.206,1.285a.164.164,0,0,1-.135.187Zm58.306-2.455a.167.167,0,0,1-.05-.008.163.163,0,0,1-.105-.2,4.45,4.45,0,0,0,.205-1.235.162.162,0,0,1,.163-.158h0a.164.164,0,0,1,.159.166,4.782,4.782,0,0,1-.221,1.325A.164.164,0,0,1,2193.358,2426.9Zm-58.994-1.829a.162.162,0,0,1-.16-.137l-.208-1.285a.163.163,0,0,1,.135-.187.159.159,0,0,1,.186.135l.207,1.285a.162.162,0,0,1-.135.187Zm59.225-2.488a.163.163,0,0,1-.163-.162q-.005-.63-.019-1.3a.163.163,0,0,1,.16-.166.152.152,0,0,1,.166.16q.014.672.019,1.3a.163.163,0,0,1-.161.164Zm-59.913-1.8a.163.163,0,0,1-.161-.136l-.207-1.286a.163.163,0,0,1,.322-.052l.207,1.285a.162.162,0,0,1-.134.187Zm59.785-2.542a.162.162,0,0,1-.162-.154q-.033-.64-.075-1.3a.163.163,0,0,1,.325-.022q.042.662.074,1.3a.163.163,0,0,1-.154.171Zm-60.474-1.742a.162.162,0,0,1-.16-.137l-.206-1.286a.162.162,0,1,1,.321-.052l.207,1.286a.163.163,0,0,1-.135.187Zm60.158-2.587a.164.164,0,0,1-.162-.147q-.062-.642-.135-1.293a.162.162,0,1,1,.323-.036c.05.435.094.868.137,1.3a.163.163,0,0,1-.146.178Zm-60.846-1.7a.163.163,0,0,1-.161-.137l-.233-1.451,1.192-.153a.159.159,0,0,1,.182.141.163.163,0,0,1-.141.182l-.859.11.18,1.119a.162.162,0,0,1-.135.186Zm3.832-1.8a.163.163,0,0,1-.021-.324l1.291-.165a.154.154,0,0,1,.182.141.162.162,0,0,1-.14.182l-1.292.165Zm4.3-.55a.163.163,0,0,1-.02-.324l1.292-.166a.156.156,0,0,1,.182.141.164.164,0,0,1-.141.183l-1.292.165Zm52.179-.257a.163.163,0,0,1-.161-.138q-.1-.64-.206-1.283a.164.164,0,0,1,.133-.188.162.162,0,0,1,.188.134q.108.646.207,1.289a.163.163,0,0,1-.136.185Zm-47.875-.294a.163.163,0,0,1-.021-.324l1.292-.165a.156.156,0,0,1,.182.141.163.163,0,0,1-.141.183l-1.291.165Zm4.3-.551a.163.163,0,0,1-.021-.324l1.292-.165a.157.157,0,0,1,.182.14.162.162,0,0,1-.141.182l-1.291.165Zm4.3-.551a.163.163,0,0,1-.02-.324l1.292-.165a.158.158,0,0,1,.182.141.163.163,0,0,1-.141.182l-1.291.166Zm4.306-.551a.163.163,0,0,1-.021-.324l1.292-.166a.157.157,0,0,1,.182.141.163.163,0,0,1-.141.182l-1.291.165Zm4.3-.551a.163.163,0,0,1-.021-.324l1.291-.166a.161.161,0,0,1,.182.141.163.163,0,0,1-.141.182l-1.292.167Zm4.3-.551a.163.163,0,0,1-.021-.324l1.292-.166a.158.158,0,0,1,.182.14.163.163,0,0,1-.141.182l-1.292.165Zm4.3-.551a.163.163,0,0,1-.021-.325l1.292-.165a.156.156,0,0,1,.182.141.163.163,0,0,1-.141.182l-1.291.165A.087.087,0,0,1,2170.567,2406.007Zm4.305-.55a.163.163,0,0,1-.021-.325l1.292-.165a.159.159,0,0,1,.183.141.165.165,0,0,1-.141.183l-1.291.165Zm16.955-.118a.163.163,0,0,1-.159-.128q-.14-.634-.293-1.265a.163.163,0,0,1,.12-.2.161.161,0,0,1,.2.121q.154.634.294,1.272a.163.163,0,0,1-.125.193A.136.136,0,0,1,2191.828,2405.339Zm-12.651-.434a.163.163,0,0,1-.021-.324l1.291-.165a.155.155,0,0,1,.182.141.163.163,0,0,1-.141.183l-1.292.165Zm4.3-.551a.163.163,0,0,1-.021-.325l1.292-.164a.156.156,0,0,1,.182.14.164.164,0,0,1-.141.183l-1.291.165Zm4.3-.551a.163.163,0,0,1-.021-.324l1.292-.165a.156.156,0,0,1,.182.141.163.163,0,0,1-.141.182l-1.291.166Z" transform="translate(-2128.35 -2376.144)" fill="#303043"/>
          <path id="Path_2093" data-name="Path 2093" d="M2210.565,2319.336l-.055-1.611a1.234,1.234,0,0,1,.837-.833c1.508-.442,5.273-1.362,7.288-.223l.512,1.815Z" transform="translate(-2195.771 -2301.359)" fill="#303043"/>
          <path id="Path_2094" data-name="Path 2094" d="M2227.914,2287.38a2.221,2.221,0,0,1-1.066.136.972.972,0,0,1-.854-.839l-.637-4.985,2.538-.325.637,4.981A.973.973,0,0,1,2227.914,2287.38Z" transform="translate(-2208.504 -2271.551)" fill="#303043"/>
          <path id="Path_2095" data-name="Path 2095" d="M2383.256,2297.238l-.054-1.612a1.232,1.232,0,0,1,.837-.833c1.509-.444,5.274-1.362,7.289-.223l.511,1.814Z" transform="translate(-2343.888 -2282.406)" fill="#303043"/>
          <path id="Path_2096" data-name="Path 2096" d="M2400.2,2262.116a2.216,2.216,0,0,1-1.066.135.969.969,0,0,1-.854-.838l-.706-5.51,2.537-.325.706,5.508A.975.975,0,0,1,2400.2,2262.116Z" transform="translate(-2356.216 -2249.431)" fill="#303043"/>
          <path id="Path_2097" data-name="Path 2097" d="M2214.787,2223.786l27.171-4.4a1.326,1.326,0,0,0,1.119-1.24,11.22,11.22,0,0,0-.358-3.47,3.174,3.174,0,0,0-3.391-2.273c-5.105.531-18.063,2.192-24.844,5.931a2.516,2.516,0,0,0-1.286,1.924,6.1,6.1,0,0,0,.289,2.779A1.184,1.184,0,0,0,2214.787,2223.786Z" transform="translate(-2198.037 -2212.39)" fill="#303043"/>
          <path id="Path_2098" data-name="Path 2098" d="M2216.471,2244.686a.435.435,0,0,1-.422-.336,6.8,6.8,0,0,1-.1-2.19,2.608,2.608,0,0,1,1.533-2.017,30.579,30.579,0,0,1,6.712-2.164.434.434,0,0,1,.134.858,30.437,30.437,0,0,0-6.5,2.1,1.737,1.737,0,0,0-1.02,1.341,5.985,5.985,0,0,0,.091,1.876.435.435,0,0,1-.325.521A.44.44,0,0,1,2216.471,2244.686Z" transform="translate(-2200.391 -2234.334)" fill="#303043"/>
          <path id="Path_2099" data-name="Path 2099" d="M2108.991,2305.951c8.8-1.24,46.884-6.521,58.132-6.6a2.273,2.273,0,0,1,2.162,1.5,75.059,75.059,0,0,1,3.945,16.414,1.99,1.99,0,0,1-1.375,2.09l-24.673,8.019-8.982,1.15-27.626-1.908a2.124,2.124,0,0,1-1.95-1.739c-.614-3.406-1.917-11.414-1.652-16.71A2.351,2.351,0,0,1,2108.991,2305.951Z" transform="translate(-2106.936 -2286.975)" fill="#6565ae"/>
          <path id="Path_2100" data-name="Path 2100" d="M2150.536,2338.846l-1.33-.089a.163.163,0,0,1-.152-.174.172.172,0,0,1,.174-.151l1.3.09.7-.093a.158.158,0,0,1,.183.141.164.164,0,0,1-.14.183Zm-4.35-.3h-.011l-1.3-.09a.162.162,0,0,1-.151-.173.17.17,0,0,1,.174-.152l1.3.089a.163.163,0,0,1-.011.325Zm8.07-.18a.163.163,0,0,1-.021-.324l1.292-.166a.155.155,0,0,1,.182.14.163.163,0,0,1-.141.183l-1.291.165Zm-12.4-.119h-.011l-1.3-.09a.162.162,0,0,1-.152-.173.169.169,0,0,1,.174-.152l1.3.09a.163.163,0,0,1-.011.325Zm-4.329-.3h-.011l-1.3-.09a.163.163,0,0,1-.152-.173.166.166,0,0,1,.173-.151l1.3.09a.163.163,0,0,1-.011.325Zm21.034-.133a.163.163,0,0,1-.021-.324l.517-.066.712-.235a.165.165,0,0,1,.205.1.163.163,0,0,1-.1.206l-.743.241-.547.073Zm-25.364-.166h-.011l-1.3-.09a.163.163,0,0,1-.151-.173.173.173,0,0,1,.174-.151l1.3.089a.163.163,0,0,1-.011.326Zm-4.329-.3h-.011l-1.3-.09a.163.163,0,0,1-.151-.174.172.172,0,0,1,.174-.151l1.3.09a.163.163,0,0,1-.011.326Zm-4.33-.3h-.012l-1.3-.09a.163.163,0,0,1-.151-.174.179.179,0,0,1,.174-.151l1.3.09a.163.163,0,0,1-.01.325Zm38.171-.482a.163.163,0,0,1-.05-.318l1.239-.4a.163.163,0,0,1,.1.31l-1.239.4A.18.18,0,0,1,2162.709,2336.572Zm4.128-1.342a.163.163,0,0,1-.05-.317l1.238-.4a.166.166,0,0,1,.206.1.164.164,0,0,1-.1.206l-1.238.4A.177.177,0,0,1,2166.837,2335.23Zm-44.174-1.186a.163.163,0,0,1-.161-.138c-.065-.411-.131-.843-.2-1.29a.163.163,0,0,1,.322-.047c.065.446.132.876.2,1.286a.162.162,0,0,1-.135.186Zm48.3-.156a.163.163,0,0,1-.05-.317l1.238-.4a.163.163,0,0,1,.1.31l-1.238.4A.166.166,0,0,1,2170.964,2333.888Zm4.127-1.341a.163.163,0,0,1-.05-.318l1.238-.4a.166.166,0,0,1,.205.105.164.164,0,0,1-.1.206l-1.239.4A.182.182,0,0,1,2175.092,2332.547Zm4.127-1.342a.163.163,0,0,1-.05-.318l1.238-.4a.165.165,0,0,1,.206.1.162.162,0,0,1-.1.2l-1.238.4A.171.171,0,0,1,2179.219,2331.206Zm4.128-1.341a.163.163,0,0,1-.115-.279q-.062-.556-.137-1.112a.165.165,0,0,1,.14-.183.162.162,0,0,1,.184.14q.082.616.15,1.234l.014.132-.185.06A.174.174,0,0,1,2183.346,2329.865Zm-61.289-.121a.161.161,0,0,1-.161-.143c-.053-.428-.1-.861-.15-1.3a.163.163,0,0,1,.324-.035c.046.434.1.865.149,1.291a.162.162,0,0,1-.141.181Zm60.709-4.128a.163.163,0,0,1-.16-.132c-.082-.429-.168-.855-.256-1.274a.162.162,0,1,1,.317-.068q.135.634.258,1.28a.162.162,0,0,1-.129.19A.111.111,0,0,1,2182.766,2325.616Zm-61.131-.193a.163.163,0,0,1-.162-.152c-.031-.439-.056-.875-.076-1.3a.163.163,0,0,1,.156-.17.15.15,0,0,1,.17.155c.019.426.044.859.075,1.3a.162.162,0,0,1-.151.173Zm60.183-4.043a.163.163,0,0,1-.158-.123q-.166-.645-.333-1.256a.163.163,0,0,1,.115-.2.161.161,0,0,1,.2.114q.167.614.334,1.262a.163.163,0,0,1-.117.2A.2.2,0,0,1,2181.817,2321.38Zm-60.285-.3h-.006a.161.161,0,0,1-.156-.168l.012-.278a.319.319,0,0,1,.272-.3l.8-.112a.157.157,0,0,1,.184.138.162.162,0,0,1-.138.183l-.8.113,0,.271A.163.163,0,0,1,2121.532,2321.084Zm3.957-.957a.163.163,0,0,1-.022-.324l1.29-.179a.157.157,0,0,1,.183.139.162.162,0,0,1-.139.183l-1.29.179Zm4.3-.591a.163.163,0,0,1-.022-.324l1.292-.176a.163.163,0,0,1,.043.323l-1.29.176Zm4.3-.581a.163.163,0,0,1-.022-.324l1.292-.172a.166.166,0,0,1,.183.14.163.163,0,0,1-.14.183l-1.291.172Zm4.3-.572a.163.163,0,0,1-.021-.324l1.292-.169a.161.161,0,0,1,.183.14.163.163,0,0,1-.141.182l-1.291.169Zm4.306-.56a.163.163,0,0,1-.021-.324l1.292-.167a.159.159,0,0,1,.181.142.162.162,0,0,1-.141.181l-1.291.167Zm4.333-.551-.041-.323,1.284-.161a.161.161,0,0,1,.182.141.163.163,0,0,1-.141.182Zm33.594-.068a.162.162,0,0,1-.155-.115c-.138-.442-.272-.855-.4-1.238a.163.163,0,0,1,.309-.1q.19.576.4,1.243a.161.161,0,0,1-.155.212Zm-33.622-.093h0Zm4.308-.371a.162.162,0,0,1-.02-.324l1.293-.157a.165.165,0,0,1,.181.141.163.163,0,0,1-.141.181l-1.293.158Zm4.309-.518a.163.163,0,0,1-.019-.324l1.293-.151a.159.159,0,0,1,.18.142.162.162,0,0,1-.142.18l-1.293.151Zm4.311-.5a.163.163,0,0,1-.018-.324l1.293-.145a.163.163,0,1,1,.036.324l-1.293.145Zm4.315-.471a.163.163,0,0,1-.017-.325l1.295-.135a.166.166,0,0,1,.179.146.164.164,0,0,1-.145.178l-1.295.135Zm4.318-.435a.163.163,0,0,1-.015-.325l1.3-.121a.157.157,0,0,1,.176.147.162.162,0,0,1-.147.177l-1.3.121Zm4.323-.384a.163.163,0,0,1-.013-.325q.672-.055,1.3-.1a.163.163,0,1,1,.024.324q-.626.046-1.3.1Zm4.33-.288a.163.163,0,0,1-.008-.326c.465-.022.9-.039,1.3-.052h.005a.163.163,0,0,1,.005.326c-.4.011-.835.028-1.3.051Z" transform="translate(-2119.316 -2299.345)" fill="#303043"/>
          <path id="Path_2101" data-name="Path 2101" d="M2314.51,2452.836l-7.868,1.007a2.05,2.05,0,0,1-2.25-1.527l-1.878-7.456a2.047,2.047,0,0,1,1.732-2.526l9.454-1.209a2.046,2.046,0,0,1,2.31,1.946l.294,7.659A2.049,2.049,0,0,1,2314.51,2452.836Z" transform="translate(-2274.627 -2408.561)" fill="#303043"/>
          <path id="Path_2102" data-name="Path 2102" d="M2323.82,2460.807l-5.989.766a1.559,1.559,0,0,1-1.713-1.163l-1.43-5.674a1.558,1.558,0,0,1,1.318-1.922l7.2-.921a1.558,1.558,0,0,1,1.759,1.481l.223,5.829A1.56,1.56,0,0,1,2323.82,2460.807Z" transform="translate(-2285.085 -2417.8)" fill="#787878"/>
        </g>
        <path id="Path_2103" data-name="Path 2103" d="M2283.463,2086.253a61.419,61.419,0,0,1,1.623,17.9,2.129,2.129,0,0,1-1.968,1.906c-1.173.082-2.77.19-4.2.272a7.832,7.832,0,0,1-4.474-1.73.7.7,0,0,0-1.032.885,8.552,8.552,0,0,0,2.552,2.75c.593.45,2.564,1.251,2.427,2.138a1.592,1.592,0,0,1-.393.741,8.951,8.951,0,0,1-4.39,2.519,1.219,1.219,0,0,0-.566.29c-.041,1.057,3.214,2.233,4.054,2.512a9.347,9.347,0,0,0,3.914.455,11.574,11.574,0,0,0,8.063-5.33,57.45,57.45,0,0,0,8.043-22.811C2292.732,2084.371,2286.111,2085.482,2283.463,2086.253Z" transform="translate(-2171.776 -2003.086)" fill="url(#linear-gradient-25)"/>
        <g id="Group_677" data-name="Group 677" transform="translate(95.324 39.621)">
          <path id="Path_2104" data-name="Path 2104" d="M2267.551,1831.325c3.5-26.423-16.865-46.741-16.865-46.741l-12.115,14.124c9.2,11.465,13.57,21.971,15.567,30.222C2256.787,1828.159,2263.165,1826.94,2267.551,1831.325Z" transform="translate(-2237.532 -1784.584)" fill="url(#linear-gradient-26)"/>
        </g>
      </g>
      <g id="Group_682" data-name="Group 682" transform="translate(0 0)">
        <g id="Group_679" data-name="Group 679" transform="translate(0.721 112.107)">
          <path id="Path_2106" data-name="Path 2106" d="M1088.643,3118.151a1.49,1.49,0,0,0-.04-.391c-1.948-7.726-11.619-12.536-11.619-12.536l-3.833.3c-2.2,6.809-1.92,10.984-1.566,12.844.01.052.026.1.04.152A90.962,90.962,0,0,0,1088.643,3118.151Z" transform="translate(-1063.556 -2988.694)" fill="url(#linear-gradient-27)"/>
          <path id="Path_2107" data-name="Path 2107" d="M1073.322,3196.436a1.664,1.664,0,0,0,1.216,1.229c4.5.945,11.644.185,14.645-.208a1.4,1.4,0,0,0,1.157-1.391A90.9,90.9,0,0,1,1073.322,3196.436Z" transform="translate(-1065.253 -3066.608)" fill="url(#linear-gradient-28)"/>
          <path id="Path_2108" data-name="Path 2108" d="M1073.223,3067.225l1.623,7.814a1.278,1.278,0,0,0,1.092,1.051,10.843,10.843,0,0,0,2.515-.04,1.606,1.606,0,0,0,1.272-1.887l-1.128-6.938Z" transform="translate(-1065.168 -2956.102)" fill="#d8dee8"/>
          <path id="Path_2109" data-name="Path 2109" d="M1264.009,3191.462c-4.232-.118-6.422-.616-7.553-1.079,0,.421,0,.85.013,1.293a.836.836,0,0,0,.8.85l23.239-.15a1.062,1.062,0,0,0,.854-1.545C1278.312,3191.082,1270.552,3191.645,1264.009,3191.462Z" transform="translate(-1222.326 -3061.734)" fill="url(#linear-gradient-29)"/>
          <path id="Path_2110" data-name="Path 2110" d="M1281.365,3124.9a1.017,1.017,0,0,0-.092-.175c-2.052-2.868-7.279-8.577-17.608-11.055l-4.955-.156s-2.207,3.835-2.248,10.938c1.132.463,3.321.961,7.553,1.079C1270.558,3125.718,1278.318,3125.155,1281.365,3124.9Z" transform="translate(-1222.332 -2995.806)" fill="url(#linear-gradient-30)"/>
          <path id="Path_2111" data-name="Path 2111" d="M1264.252,3052.7c.078.365,1.109,5.924,1.509,8.08a1.08,1.08,0,0,0,.969.915,11.341,11.341,0,0,0,3.393-.267,1.466,1.466,0,0,0,1.016-1.538l-.554-8.794Z" transform="translate(-1229.013 -2942.273)" fill="#d8dee8"/>
          <path id="Path_2112" data-name="Path 2112" d="M1048.105,2294.12s6.816,46.837,11.735,102.573a2.123,2.123,0,0,1-1.755,2.156,25.788,25.788,0,0,1-5.54.641,2.053,2.053,0,0,1-1.956-1.714c-1.676-9.826-13.633-62.567-16.771-74.174,0,0-3.6,49.306-2.453,74.887a1.212,1.212,0,0,1-1.069,1.26,20.337,20.337,0,0,1-4.448-.012,1.623,1.623,0,0,1-1.446-1.377c-1.194-8.318-8.063-57.822-7.772-93.484.017-2.011,2.359-18.534,2.359-18.534Z" transform="translate(-1016.621 -2286.341)" fill="#444b8c"/>
        </g>
        <path id="Path_2113" data-name="Path 2113" d="M1013.618,1828.322a1.927,1.927,0,0,1-1.266-1.624c-.906-8.794-5.3-63.319,22.412-85.748,0,0,1.589-4.157,14.649,6.062s6.068,20.93,2.941,35.7c-3.784,17.877-10.423,32.491-7.485,43.492a1.525,1.525,0,0,1-.934,1.828A43.261,43.261,0,0,1,1013.618,1828.322Z" transform="translate(-1011.552 -1705.736)" fill="url(#linear-gradient-31)"/>
        <path id="Path_2114" data-name="Path 2114" d="M1183.878,1631.19c-.009.776-11.072,16.49-11.072,16.49s1.986,3.911,11.466,7.086l8.184-16.826Z" transform="translate(-1149.859 -1612.314)" fill="#feb6b4"/>
        <g id="Group_680" data-name="Group 680" transform="translate(19.878)">
          <path id="Path_2115" data-name="Path 2115" d="M1216.664,1567.912s3.937,9.043,4.2,13.79,1.287,7.827-4.2,8.782-10.111-1.778-12.616-6.506c0,0-3.925-7.285-3.044-10.269S1216.664,1567.912,1216.664,1567.912Z" transform="translate(-1193.812 -1558.041)" fill="#feb6b4"/>
          <path id="Path_2116" data-name="Path 2116" d="M1163.353,1521.08l.313-.138a.754.754,0,0,0,.368-1.035c-.774-1.5-2.283-4.922-.334-5.721,2.512-1.03,12.461-3.059,14.608-6.589a6.569,6.569,0,0,0-2.512-9.019.378.378,0,0,0-.495.161l-.229.433a.373.373,0,0,1-.688-.071h0a.371.371,0,0,0-.672-.1c-.66,1.056-2.441,2.769-7.205,3.648-6.771,1.249-11.247,3.99-11.358,8.668a.373.373,0,0,1-.577.307c-.5-.3-1.3-.448-2.369.451-1.859,1.564-1.1,5.619,2.978,8.955a.371.371,0,0,1-.018.6c-.739.481-1.84,1.626,1.014,3.151a9.607,9.607,0,0,0,6.006,1.309.371.371,0,0,0,.3-.448l-.906-4.112a.373.373,0,0,1,.364-.453Z" transform="translate(-1151.242 -1498.543)" fill="#3d3e71"/>
          <path id="Path_2117" data-name="Path 2117" d="M1207.739,1636.236s-1.5-5.777-4.092-4.157,1.344,6.473,3.426,6.689Z" transform="translate(-1195.458 -1612.83)" fill="#febbba"/>
        </g>
        <g id="Group_681" data-name="Group 681" transform="translate(42.063 42.974)">
          <path id="Path_2118" data-name="Path 2118" d="M1307.134,1821.915l.763,20.486a56.308,56.308,0,0,0,6.194,1.759,61.874,61.874,0,0,1,6.149-12.42A30.371,30.371,0,0,1,1307.134,1821.915Z" transform="translate(-1307.134 -1818.872)" fill="#febbba"/>
          <path id="Path_2119" data-name="Path 2119" d="M1389.7,1819.466c-11.165,12.055-20.2,12.764-27.53,10.174a61.893,61.893,0,0,0-6.149,12.42c29.816,6.573,36.837-20.837,36.837-20.837Z" transform="translate(-1349.062 -1816.771)" fill="#ffb8b7"/>
          <path id="Path_2120" data-name="Path 2120" d="M1608.6,1801.945a4.089,4.089,0,0,1,3.666-.947c2.381.434,4.5,1.26,5.982,0s2,.431,2,.431l-4.441,3.376Z" transform="translate(-1565.703 -1800.531)" fill="#feb4b2"/>
          <path id="Path_2121" data-name="Path 2121" d="M1589.937,1807.608s.881-3.685,3.537-3.18,8.685,3.784,10.238,3.18,3.541-2.049,4.56-1.539l-1.8,2.232s4.615-2.663,5.41-1.026l-7.68,4.322S1592.97,1810.472,1589.937,1807.608Z" transform="translate(-1549.693 -1803.833)" fill="#ffb8b7"/>
        </g>
        <path id="Path_2122" data-name="Path 2122" d="M1220.039,1930.516s20.991,17.58,43.657,9.909a5.4,5.4,0,0,1,4.255.321l6.517,3.442a5.818,5.818,0,0,0,7.709-2.159,12.24,12.24,0,0,0,1.831-4.9l-12.75-5.162.94-1.564s-6.225-.527-7.855,3.934c0,0-11.858,4.932-31.855-17.063C1232.488,1917.273,1223.414,1924.989,1220.039,1930.516Z" transform="translate(-1190.371 -1857.686)" fill="#febbba"/>
        <path id="Path_2123" data-name="Path 2123" d="M1132.14,1911a.351.351,0,0,1-.2-.062c-8.839-5.971-13-15.61-13.037-15.707a.359.359,0,0,1,.662-.281c.04.095,4.12,9.543,12.777,15.392a.359.359,0,0,1-.2.657Z" transform="translate(-1103.601 -1838.355)" fill="#d7e6dd"/>
      </g>
    </g>
  </g>
</svg>
