<svg xmlns="http://www.w3.org/2000/svg" width="60" height="60" viewBox="0 0 60 60" fill="none"><path d="M20.9414 8.4375H18.4219C14.9766 8.4375 12.1875 11.2383 12.1875 14.6836C12.1875 15.7617 12.4688 16.8281 13.0078 17.7656L13.2305 18.1641C13.4766 17.4141 14.168 16.875 15 16.875H16.1953C16.5234 16.3125 17.1211 15.9375 17.8125 15.9375C19.043 16.5586 20.4023 16.875 21.7852 16.875H23.4375H24.375C25.207 16.875 25.8984 17.4141 26.1445 18.1641L26.3672 17.7656C26.9062 16.8281 27.1875 15.7617 27.1875 14.6836C27.1875 11.2383 24.3867 8.4375 20.9414 8.4375Z" fill="#F2D150"></path><path d="M40.3125 21.5625C39.6445 21.5625 38.9766 21.5977 38.3203 21.668C38.3906 21.0117 38.4375 20.3437 38.4375 19.6875C38.4375 9.35156 30.0234 0.9375 19.6875 0.9375C9.35156 0.9375 0.9375 9.35156 0.9375 19.6875C0.9375 30.0234 9.35156 38.4375 19.6875 38.4375C20.3555 38.4375 21.0117 38.3906 21.668 38.3203C21.5977 38.9766 21.5625 39.6328 21.5625 40.3125C21.5625 50.6484 29.9766 59.0625 40.3125 59.0625C50.6484 59.0625 59.0625 50.6484 59.0625 40.3125C59.0625 29.9766 50.6484 21.5625 40.3125 21.5625ZM19.6875 36.5625C10.3828 36.5625 2.8125 28.9922 2.8125 19.6875C2.8125 10.3828 10.3828 2.8125 19.6875 2.8125C28.9922 2.8125 36.5625 10.3828 36.5625 19.6875C36.5625 20.4609 36.4922 21.2227 36.3867 21.9844C35.707 22.125 35.0508 22.3125 34.4063 22.5352C34.582 21.5977 34.6875 20.6484 34.6875 19.6875C34.6875 11.4141 27.9609 4.6875 19.6875 4.6875C11.4141 4.6875 4.6875 11.4141 4.6875 19.6875C4.6875 27.9609 11.4141 34.6875 19.6875 34.6875C20.6484 34.6875 21.5977 34.582 22.5352 34.4063C22.3242 35.0508 22.1367 35.7188 21.9844 36.3867C21.2227 36.4922 20.4609 36.5625 19.6875 36.5625ZM23.4023 32.2734C22.207 32.625 20.9531 32.8125 19.6875 32.8125C16.043 32.8125 12.7383 31.3125 10.3594 28.9102C10.5352 27.75 11.3906 26.8008 12.5742 26.5664L16.0313 25.8633C16.2422 25.8047 16.4531 25.7109 16.6523 25.6172L19.6875 29.6953L22.7344 25.6055C22.9453 25.7109 23.1797 25.8047 23.4141 25.875L26.8008 26.5547C27.0117 26.6016 27.1992 26.6719 27.3867 26.7539C25.7461 28.3242 24.3867 30.1992 23.4023 32.2734ZM18.2461 24.1289C18.7031 24.2812 19.1836 24.375 19.6875 24.375C20.1914 24.375 20.6719 24.2695 21.1289 24.1289C21.1758 24.2227 21.2344 24.3047 21.293 24.3984L19.6875 26.5547L18.0703 24.3867C18.1406 24.3047 18.1875 24.2109 18.2461 24.1289ZM22.5 19.6875C22.5 21.2344 21.2344 22.5 19.6875 22.5C18.1406 22.5 16.875 21.2344 16.875 19.6875V17.8125C16.875 17.3555 17.2031 16.9805 17.6367 16.8867C18.9258 17.4844 20.3555 17.8125 21.7852 17.8125H22.5V19.6875ZM28.8984 25.4648C28.3828 25.1016 27.7969 24.8438 27.1758 24.7266L23.8594 24.0586C23.3906 23.9297 23.0039 23.6133 22.7578 23.2031C23.2734 22.7578 23.6953 22.207 23.9766 21.5742H24.375C25.9219 21.5742 27.1875 20.3086 27.1875 18.7617C27.1875 17.2148 25.9219 15.9492 24.375 15.9492H23.4375H21.7852C20.5547 15.9492 19.3359 15.6562 18.2344 15.1055L18.0352 15.0117H17.8125C16.9805 15.0117 16.2422 15.375 15.7266 15.9492H15C13.4531 15.9492 12.1875 17.2148 12.1875 18.7617C12.1875 20.3086 13.4531 21.5742 15 21.5742H15.3984C15.6797 22.207 16.1016 22.7578 16.6172 23.2148C16.3828 23.625 16.0078 23.9297 15.5859 24.0586L12.1992 24.7383C10.7461 25.0313 9.58594 25.9805 8.95313 27.2344C7.45313 25.0781 6.5625 22.4883 6.5625 19.6875C6.5625 12.4453 12.4453 6.5625 19.6875 6.5625C26.9297 6.5625 32.8125 12.4453 32.8125 19.6875C32.8125 20.9531 32.625 22.1953 32.2734 23.4023C31.0781 23.9766 29.9414 24.668 28.8984 25.4648ZM24.375 17.8125C24.8906 17.8125 25.3125 18.2344 25.3125 18.75C25.3125 19.2656 24.8906 19.6875 24.375 19.6875V17.8125ZM15 19.6875C14.4844 19.6875 14.0625 19.2656 14.0625 18.75C14.0625 18.2344 14.4844 17.8125 15 17.8125V19.6875ZM40.3125 57.1875C31.0078 57.1875 23.4375 49.6172 23.4375 40.3125C23.4375 31.0078 31.0078 23.4375 40.3125 23.4375C49.6172 23.4375 57.1875 31.0078 57.1875 40.3125C57.1875 49.6172 49.6172 57.1875 40.3125 57.1875Z" fill="black"></path><path d="M53.9648 25.5234L55.8047 25.1836C55.6758 24.5156 55.5352 23.8477 55.3594 23.2031L53.543 23.6836C53.707 24.2813 53.8477 24.9023 53.9648 25.5234Z" fill="black"></path><path d="M39.375 9.375C40.1836 9.375 40.9102 9.02344 41.4258 8.47266C46.7813 11.3203 50.9648 16.1602 52.9805 21.8789L54.75 21.2578C52.5586 15.0586 47.9883 9.80859 42.1641 6.75C42.1641 6.69141 42.1875 6.63281 42.1875 6.5625C42.1875 5.01563 40.9219 3.75 39.375 3.75C37.8281 3.75 36.5625 5.01563 36.5625 6.5625C36.5625 8.10937 37.8281 9.375 39.375 9.375ZM39.375 5.625C39.8906 5.625 40.3125 6.04687 40.3125 6.5625C40.3125 7.07813 39.8906 7.5 39.375 7.5C38.8594 7.5 38.4375 7.07813 38.4375 6.5625C38.4375 6.04687 38.8594 5.625 39.375 5.625Z" fill="black"></path><path d="M6.03516 34.4766L4.19531 34.8164C4.32422 35.4844 4.46484 36.1523 4.64062 36.7969L6.45703 36.3164C6.29297 35.7187 6.15234 35.0977 6.03516 34.4766Z" fill="black"></path><path d="M20.625 50.625C19.8164 50.625 19.0898 50.9766 18.5742 51.5273C13.2187 48.6797 9.03516 43.8398 7.01953 38.1211L5.25 38.7422C7.44141 44.9414 12.0117 50.1914 17.8359 53.25C17.8359 53.3086 17.8125 53.3672 17.8125 53.4375C17.8125 54.9844 19.0781 56.25 20.625 56.25C22.1719 56.25 23.4375 54.9844 23.4375 53.4375C23.4375 51.8906 22.1719 50.625 20.625 50.625ZM20.625 54.375C20.1094 54.375 19.6875 53.9531 19.6875 53.4375C19.6875 52.9219 20.1094 52.5 20.625 52.5C21.1406 52.5 21.5625 52.9219 21.5625 53.4375C21.5625 53.9531 21.1406 54.375 20.625 54.375Z" fill="black"></path><path d="M50.7422 32.6952C50.0859 32.0389 49.1719 31.746 48.2227 31.9217C47.6367 32.0272 47.1094 32.3436 46.6875 32.7655L35.625 43.8397L32.0625 40.2772C31.6406 39.8553 31.1133 39.5389 30.5273 39.4335C29.5898 39.2694 28.6641 39.5506 28.0078 40.2069C27.3516 40.8631 27.0586 41.7772 27.2344 42.7264C27.3398 43.3124 27.6563 43.8397 28.0781 44.2616L33.6328 49.8045C34.1602 50.3319 34.875 50.6249 35.625 50.6249C36.375 50.6249 37.0898 50.3319 37.6172 49.8045L50.6719 36.7499C51.0937 36.328 51.4102 35.8006 51.5156 35.2147C51.6797 34.2772 51.3984 33.3514 50.7422 32.6952Z" fill="#F2D150"></path></svg>