<svg xmlns="http://www.w3.org/2000/svg" xmlns:xlink="http://www.w3.org/1999/xlink" id="Layer_5" x="0px" y="0px" viewBox="0 0 512 512" style="enable-background:new 0 0 512 512;" xml:space="preserve">
<style type="text/css">
	.st0{fill:#F2D150;}
</style>
<g>
	<g>
		<path class="st0" d="M70.6,405c8.5-2.4,14.8-9.3,16.8-17.6h0.2c-7-4.3-12.3-11.2-14.5-19.3H64c-8.8,0-16-7.2-16-16s7.2-16,16-16h8    v-8c10.5,0,20.9-2.4,30.3-7.2l1.7-0.9l1.7,0.8c9.4,4.7,19.8,7.2,30.3,7.2v8h8c8.8,0,16,7.2,16,16s-7.2,16-16,16h-9.1    c-2.1,8.2-7.4,15.1-14.5,19.3h0.2c1.9,8.4,8.3,15.2,16.8,17.6l21.1,4.3c6.1-10,9.5-21.4,9.5-33.2v-48c0-35.3-28.7-64-64-64    s-64,28.7-64,64v48c0,11.8,3.4,23.2,9.5,33.2L70.6,405z"></path>
	</g>
	<g>
		<path class="st0" d="M446.4,66.7C435,40.7,409.5,24,380.9,24h-9.8c-28.6,0-54.1,16.7-65.5,42.7c-16,10.7-25.6,28.6-25.6,47.9    c0,15.9,7.6,31.2,20.5,40.8L318,168h4.4c-1.5-5.1-2.4-10.4-2.4-16v-32c26,0,51.2-8.4,72-24c10.5,10.5,23.4,18.4,37.5,23.2l2.5,0.8    v32c0,5.6-0.8,10.9-2.4,16h4.4l17.6-12.7c12.8-9.6,20.4-24.8,20.4-40.7C472,95.3,462.4,77.4,446.4,66.7L446.4,66.7z"></path>
	</g>
	<g>
		<path class="st0" d="M56,48h112v40H56V48z"></path>
	</g>
	<g>
		<path d="M484.2,248.8c-10.6-10.6-24.6-17.5-39.5-19.3l-22.6-2.8c-8-1-14-7.8-14-15.9v-3.5c19.1-11.1,32-31.7,32-55.3v-37.8l-8-2.7    c-12.9-4.3-24.7-11.6-34.3-21.2l-4.9-4.9l-5.6,4.2C367.9,104,344.1,112,320,112h-8v40c0,23.6,12.9,44.3,32,55.3v2.6    c0,7.9-5.8,14.7-13.5,15.8c-10.4,1.5-20.2,3.7-29,6.7c-18.4,6.1-36.3,20.6-45.3,28.5L192,196.7l-19.5-19.5    c-5.9-5.9-13.7-9.2-22.1-9.2c-11.4,0-21.8,6.1-27.3,16H120c-13.2,0-24,10.8-24,24v16c0,13.2,10.8,24,24,24h36.7l63.7,63.7    c10.5,10.5,24.6,16.3,39.5,16.3c9.3,0,18.6-2.4,26.7-6.8l9.5-5.2v188h160v-57.5c2.5,0.9,5.2,1.5,8,1.5h16c13.2,0,24-10.8,24-24    V296.8C504,278.7,497,261.6,484.2,248.8L484.2,248.8z M405.3,236.7c1.9,1.4,4,2.5,6.1,3.4l-8.2,45.2L386,263.7L405.3,236.7z     M328,152v-24.3c22.5-1.4,44.5-8.9,63.3-21.4c9.6,8.4,20.7,15,32.7,19.4V152c0,26.5-21.5,48-48,48S328,178.5,328,152z M376,216    c5.6,0,11.1-0.8,16.3-2.2c0.3,3.5,1.2,6.9,2.6,10L376,250.2l-19.1-26.8c1.4-3,2.4-6.2,2.8-9.7C364.9,215.2,370.3,216,376,216    L376,216z M366,263.7l-17.2,21.6l-8.4-45.9c2.1-0.9,4-2,5.9-3.2L366,263.7z M112,224v-16c0-4.4,3.6-8,8-8h12.9l3.8-7.6    c2.6-5.2,7.8-8.4,13.6-8.4c4,0,7.9,1.6,10.8,4.5l19.5,19.5l-24,24H120C115.6,232,112,228.4,112,224L112,224z M278.9,307.1    c-5.8,3.2-12.4,4.9-19.1,4.9c-10.6,0-20.6-4.1-28.2-11.7L171.3,240l20.7-20.7l57.4,57.4l7.4,14.8l14.3-7.2l-5.3-10.7    c7.6-6.8,24.4-20.7,40.7-26.2c5.6-1.9,11.8-3.3,18.3-4.5l14.5,79.7l36.7-45.9l36.7,45.9l14.4-79.3l15.5,1.9    c11.4,1.4,22.1,6.7,30.2,14.8c9.8,9.8,15.2,22.8,15.2,36.6V368h-32v-68.7c0-5.1,2.1-10.1,5.7-13.7l-11.3-11.3    c-6.7,6.7-10.3,15.5-10.3,25v73.4l-9.1,9.1c-2.9,2.9-4.8,6.4-5.9,10.2H312v-92.7c0-9.4-3.7-18.3-10.3-25l-11.3,11.3    c3.2,3.2,5.2,7.6,5.5,12.2L278.9,307.1z M440,488h-56v-22.7c0-11.7,7.4-22,18.5-25.7l-5.1-15.2c-8.9,3-16.3,8.6-21.5,15.9    c-5.2-7.3-12.6-12.9-21.5-15.9l-5.1,15.2c11.1,3.7,18.5,14,18.5,25.7V488h-56v-80h114c2.2,4.9,6,8.9,11,11.4l3,1.5v3.1L440,488z     M480,432h-16c-4.4,0-8-3.6-8-8v-8v-4.9l-11.9-5.9c-2.6-1.3-4.1-3.8-4.1-6.7c0-2,0.8-3.9,2.2-5.3l9.1-9.1H488v40    C488,428.4,484.4,432,480,432L480,432z"></path>
		<path d="M167.9,403l-28.3-5.7c-4-1.1-7.3-3.8-9.4-7.3c4.4-3.8,8-8.5,10.4-13.9h3.4c13.2,0,24-10.8,24-24s-10.8-24-24-24v-8h-8    c-9.2,0-18.5-2.2-26.7-6.3l-5.3-2.6l-5.3,2.6c-8.3,4.1-17.5,6.3-26.7,6.3h-8v8c-13.2,0-24,10.8-24,24s10.8,24,24,24h3.4    c2.4,5.4,6,10.1,10.4,14c-2,3.5-5.2,6.1-8.8,7.2L40.1,403C21.5,406.7,8,423.2,8,442.2V504h192v-61.8    C200,423.2,186.5,406.7,167.9,403L167.9,403z M152,352c0,4.4-3.6,8-8,8v-16C148.4,344,152,347.6,152,352z M56,352c0-4.4,3.6-8,8-8    v16C59.6,360,56,356.4,56,352z M80,335.6c8.3-0.9,16.4-3.1,24-6.7c7.6,3.5,15.7,5.8,24,6.7V360c0,13.2-10.8,24-24,24    s-24-10.8-24-24V335.6z M104,400c4.3,0,8.4-0.9,12.3-2.1c2,3.4,4.5,6.4,7.6,8.9l-5.7,25.3H89.8l-5.7-25.2c3.1-2.5,5.6-5.5,7.6-9    C95.6,399.1,99.7,400,104,400L104,400z M114.6,448l-9,40h-3.2l-9-40H114.6z M24,442.2c0-11.4,8.1-21.3,19.2-23.5l25.9-5.3L86,488    H24L24,442.2z M184,488h-62l16.8-74.6l25.9,5.2c11.2,2.3,19.2,12.2,19.2,23.5V488z"></path>
		<path d="M56,40h112v16H56V40z"></path>
		<path d="M56,72h80v16H56V72z"></path>
		<path d="M152,72h16v16h-16V72z"></path>
		<path d="M54.7,120h54l26.3,26.3c3.6,3.6,8.5,5.7,13.7,5.7c10.6,0,19.3-8.7,19.3-19.3V120h1.3c16.9,0,30.7-13.8,30.7-30.7V40    c0-17.6-14.4-32-32-32H56C38.4,8,24,22.4,24,40v49.3C24,106.2,37.8,120,54.7,120z M40,40c0-8.8,7.2-16,16-16h112    c8.8,0,16,7.2,16,16v49.3c0,8.1-6.6,14.7-14.7,14.7H152v28.7c0,2.7-3.8,4.2-5.7,2.3l-31-31H54.7C46.6,104,40,97.4,40,89.3L40,40z"></path>
	</g>
</g>
</svg>