<svg xmlns="http://www.w3.org/2000/svg" width="60" height="60" viewBox="0 0 60 60" fill="none"><path d="M35.625 30C35.625 24.75 39.2226 20.3555 44.0742 19.1133C40.8164 14.9063 35.7304 12.1875 30 12.1875C24.2695 12.1875 19.1836 14.9063 15.9258 19.1133C20.7773 20.3555 24.375 24.75 24.375 30C24.375 35.25 20.7773 39.6445 15.9258 40.8867C19.1836 45.0937 24.2695 47.8125 30 47.8125C35.7304 47.8125 40.8164 45.0937 44.0742 40.8867C39.2226 39.6445 35.625 35.25 35.625 30Z" fill="#F2D150"></path><path d="M14.0625 38.4375V36.4336C15.6797 36.0117 16.875 34.5586 16.875 32.8125C16.875 30.75 15.1875 29.0625 13.125 29.0625C12.0937 29.0625 11.25 28.2188 11.25 27.1875C11.25 26.1562 12.0937 25.3125 13.125 25.3125C14.1563 25.3125 15 26.1562 15 27.1875H16.875C16.875 25.4414 15.6797 23.9883 14.0625 23.5664V21.5625H12.1875V23.5664C10.5703 23.9883 9.375 25.4414 9.375 27.1875C9.375 29.25 11.0625 30.9375 13.125 30.9375C14.1563 30.9375 15 31.7812 15 32.8125C15 33.8438 14.1563 34.6875 13.125 34.6875C12.0937 34.6875 11.25 33.8438 11.25 32.8125H9.375C9.375 34.5586 10.5703 36.0117 12.1875 36.4336V38.4375H14.0625Z" fill="black"></path><path d="M47.8125 23.5664V21.5625H45.9375V23.4375H43.125V36.5625H45.9375V38.4375H47.8125V36.4336C49.4297 36.0117 50.625 34.5586 50.625 32.8125C50.625 31.6992 50.1328 30.6914 49.3477 30C50.1328 29.3086 50.625 28.3008 50.625 27.1875C50.625 25.4414 49.4297 23.9883 47.8125 23.5664ZM46.875 34.6875H45V30.9375H46.875C47.9063 30.9375 48.75 31.7812 48.75 32.8125C48.75 33.8438 47.9063 34.6875 46.875 34.6875ZM46.875 29.0625H45V25.3125H46.875C47.9063 25.3125 48.75 26.1562 48.75 27.1875C48.75 28.2188 47.9063 29.0625 46.875 29.0625Z" fill="black"></path><path d="M30 2.8125C36.6562 2.8125 43.1016 5.28516 48.0469 9.67969L45.0937 9.375L44.9063 11.25L51.5625 11.918V5.625H49.6875V8.63672C44.3438 3.72656 37.3008 0.9375 30 0.9375C23.3789 0.9375 17.1328 3.10547 11.9531 7.21875L13.1133 8.68359C17.9648 4.83984 23.8008 2.8125 30 2.8125Z" fill="black"></path><path d="M11.8711 9.73828L10.6289 8.34375C10.1484 8.77734 9.67969 9.22266 9.23438 9.67969L10.5703 10.9922C10.9922 10.5469 11.4258 10.1367 11.8711 9.73828Z" fill="black"></path><path d="M30 57.1875C23.3438 57.1875 16.8984 54.7148 11.9531 50.3203L14.9062 50.6133L15.0938 48.75L8.4375 48.082V54.375H10.3125V51.3633C15.6562 56.2734 22.6992 59.0625 30 59.0625C36.6211 59.0625 42.8672 56.8945 48.0469 52.7813L46.8867 51.3164C42.0352 55.1602 36.1992 57.1875 30 57.1875Z" fill="black"></path><path d="M48.1289 50.2617L49.3828 51.6562C49.8633 51.2227 50.332 50.7773 50.7773 50.3203L49.4414 49.0078C49.0078 49.4531 48.5742 49.8633 48.1289 50.2617Z" fill="black"></path><path d="M19.6875 29.0625H21.5625V30.9375H19.6875V29.0625Z" fill="black"></path><path d="M4.6875 29.0625H6.5625V30.9375H4.6875V29.0625Z" fill="black"></path><path d="M38.4375 29.0625H40.3125V30.9375H38.4375V29.0625Z" fill="black"></path><path d="M53.4375 29.0625H55.3125V30.9375H53.4375V29.0625Z" fill="black"></path><path d="M47.8125 17.8594C43.7812 11.9531 37.1602 8.4375 30 8.4375C22.8398 8.4375 16.2188 11.9531 12.1875 17.8594C5.90625 18.3398 0.9375 23.6016 0.9375 30C0.9375 36.3984 5.90625 41.6602 12.1875 42.1406C16.2188 48.0469 22.8398 51.5625 30 51.5625C37.1602 51.5625 43.7812 48.0469 47.8125 42.1406C54.0937 41.6602 59.0625 36.4102 59.0625 30C59.0625 23.5898 54.0937 18.3398 47.8125 17.8594ZM2.8125 30C2.8125 24.3164 7.44141 19.6875 13.125 19.6875C18.8086 19.6875 23.4375 24.3164 23.4375 30C23.4375 35.6836 18.8086 40.3125 13.125 40.3125C7.44141 40.3125 2.8125 35.6836 2.8125 30ZM40.6406 46.5586L39.6914 44.918C39.1641 45.2578 38.625 45.5742 38.0742 45.8555L39.0117 47.4844C36.5391 48.7617 33.7852 49.5117 30.9258 49.6406V47.7656C30.6211 47.7773 30.3047 47.7891 29.9883 47.7891C29.6719 47.7891 29.3555 47.7773 29.0508 47.7656V49.6406C26.1914 49.5 23.4375 48.7617 20.9648 47.4844L21.9023 45.8555C21.3398 45.5742 20.8008 45.2578 20.2852 44.918L19.3359 46.5586C17.4961 45.375 15.8555 43.8633 14.4727 42.1055C20.543 41.4258 25.2891 36.2578 25.2891 30C25.2891 23.7422 20.5547 18.5742 14.4727 17.8945C15.8555 16.125 17.4961 14.625 19.3359 13.4414L20.2852 15.082C20.8125 14.7422 21.3516 14.4258 21.9023 14.1445L20.9648 12.5156C23.4375 11.2383 26.1914 10.4883 29.0508 10.3594V12.2344C29.3555 12.2227 29.6719 12.2109 29.9883 12.2109C30.3047 12.2109 30.6211 12.2227 30.9258 12.2344V10.3594C33.7852 10.5 36.5391 11.2383 39.0117 12.5156L38.0742 14.1445C38.6367 14.4258 39.1758 14.7422 39.6914 15.082L40.6406 13.4414C42.4805 14.625 44.1211 16.1367 45.5039 17.8945C39.4336 18.5742 34.6875 23.7422 34.6875 30C34.6875 36.2578 39.4336 41.4258 45.5039 42.1055C44.1211 43.875 42.4922 45.375 40.6406 46.5586ZM46.875 40.3125C41.1914 40.3125 36.5625 35.6836 36.5625 30C36.5625 24.3164 41.1914 19.6875 46.875 19.6875C52.5586 19.6875 57.1875 24.3164 57.1875 30C57.1875 35.6836 52.5586 40.3125 46.875 40.3125Z" fill="black"></path></svg>