<svg width="97" height="97" viewBox="0 0 97 97" fill="none" xmlns="http://www.w3.org/2000/svg">
<path d="M51.5312 69.7188H71.2344V40.9219C71.2344 39.2547 69.8703 37.8906 68.2031 37.8906H10.6094C8.94219 37.8906 7.57812 39.2547 7.57812 40.9219V74.2656C7.57812 75.9328 8.94219 77.2969 10.6094 77.2969H51.5312V69.7188Z" fill="#F2D150"/>
<path d="M84.875 86.3906C82.3742 86.3906 80.3281 84.3445 80.3281 81.8438C80.3281 79.343 82.3742 77.2969 84.875 77.2969C87.3758 77.2969 89.4219 79.343 89.4219 81.8438C89.4219 84.3445 87.3758 86.3906 84.875 86.3906Z" fill="#F2D150"/>
<path d="M60.625 86.3906C58.1242 86.3906 56.0781 84.3445 56.0781 81.8438C56.0781 79.343 58.1242 77.2969 60.625 77.2969C63.1258 77.2969 65.1719 79.343 65.1719 81.8438C65.1719 84.3445 63.1258 86.3906 60.625 86.3906Z" fill="#F2D150"/>
<path d="M72.75 86.3906C70.2492 86.3906 68.2031 84.3445 68.2031 81.8438C68.2031 79.343 70.2492 77.2969 72.75 77.2969C75.2508 77.2969 77.2969 79.343 77.2969 81.8438C77.2969 84.3445 75.2508 86.3906 72.75 86.3906Z" fill="#F2D150"/>
<path d="M62.1406 9.09375H89.4219V22.7344H62.1406V9.09375Z" fill="#F2D150"/>
<path d="M25.7656 43.9531H28.7969V46.9844H25.7656V43.9531Z" fill="black"/>
<path d="M37.8906 56.0781H40.9219V59.1094H37.8906V56.0781Z" fill="black"/>
<path d="M13.6406 68.2031H16.6719V71.2344H13.6406V68.2031Z" fill="black"/>
<path d="M62.1406 7.57812H89.4219V10.6094H62.1406V7.57812Z" fill="black"/>
<path d="M68.2031 13.6406H89.4219V16.6719H68.2031V13.6406Z" fill="black"/>
<path d="M62.1406 13.6406H65.1719V16.6719H62.1406V13.6406Z" fill="black"/>
<path d="M86.3906 19.7031H89.4219V22.7344H86.3906V19.7031Z" fill="black"/>
<path d="M62.1406 19.7031H83.3594V22.7344H62.1406V19.7031Z" fill="black"/>
<path d="M87.9062 28.7969C92.0932 28.7969 95.4844 25.4057 95.4844 21.2188V9.09375C95.4844 4.90684 92.0932 1.51562 87.9062 1.51562H63.6562C59.4693 1.51562 56.0781 4.90684 56.0781 9.09375V19.7031H43.9531V16.6719C43.9531 15.0047 42.5891 13.6406 40.9219 13.6406H37.8906C36.2234 13.6406 34.8594 15.0047 34.8594 16.6719V19.7031H22.7344V16.6719C22.7344 15.0047 21.3703 13.6406 19.7031 13.6406H16.6719C15.0047 13.6406 13.6406 15.0047 13.6406 16.6719V19.7031H9.09375C4.90684 19.7031 1.51562 23.0943 1.51562 27.2812V75.7812C1.51562 79.9682 4.90684 83.3594 9.09375 83.3594H50.1104C50.8682 90.1607 56.6465 95.4844 63.6562 95.4844H81.8438C89.365 95.4844 95.4844 89.365 95.4844 81.8438C95.4844 74.3225 89.365 68.2031 81.8438 68.2031H77.2969V28.7969H87.9062ZM59.1094 9.09375C59.1094 6.59297 61.1555 4.54688 63.6562 4.54688H87.9062C90.407 4.54688 92.4531 6.59297 92.4531 9.09375V21.2188C92.4531 23.7195 90.407 25.7656 87.9062 25.7656H73.8678L65.1719 30.7293V25.7656H63.6562C61.1555 25.7656 59.1094 23.7195 59.1094 21.2188V9.09375ZM37.8906 16.6719H40.9219V25.7656H37.8906V16.6719ZM16.6719 16.6719H19.7031V25.7656H16.6719V16.6719ZM92.4531 81.8438C92.4531 87.6979 87.6979 92.4531 81.8438 92.4531H63.6562C57.8021 92.4531 53.0469 87.6979 53.0469 81.8438V71.2344H81.8438C87.6979 71.2344 92.4531 75.9896 92.4531 81.8438ZM59.1094 68.2031V65.1719H71.2344V62.1406H59.1094V53.0469H71.2344V50.0156H59.1094V37.8906H56.0781V50.0156H46.9844V37.8906H43.9531V50.0156H34.8594V37.8906H31.8281V50.0156H22.7344V37.8906H19.7031V50.0156H7.57812V53.0469H19.7031V62.1406H7.57812V65.1719H19.7031V77.2969H22.7344V65.1719H31.8281V77.2969H34.8594V65.1719H43.9531V77.2969H46.9844V65.1719H56.0781V68.2031H50.0156V80.3281H9.09375C6.59297 80.3281 4.54688 78.282 4.54688 75.7812V34.8594H59.1094V31.8281H4.54688V27.2812C4.54688 24.7805 6.59297 22.7344 9.09375 22.7344H13.6406V25.7656C13.6406 27.4328 15.0047 28.7969 16.6719 28.7969H19.7031C21.3703 28.7969 22.7344 27.4328 22.7344 25.7656V22.7344H34.8594V25.7656C34.8594 27.4328 36.2234 28.7969 37.8906 28.7969H40.9219C42.5891 28.7969 43.9531 27.4328 43.9531 25.7656V22.7344H56.2486C56.8549 25.6898 59.1852 28.0391 62.1406 28.6453V35.9582L74.2656 29.0242V68.2031H59.1094ZM34.8594 53.0469H43.9531V62.1406H34.8594V53.0469ZM31.8281 62.1406H22.7344V53.0469H31.8281V62.1406ZM46.9844 53.0469H56.0781V62.1406H46.9844V53.0469Z" fill="black"/>
<path d="M62.1406 43.9531H65.1719V46.9844H62.1406V43.9531Z" fill="black"/>
</svg>
