<svg width="97" height="97" viewBox="0 0 97 97" fill="none" xmlns="http://www.w3.org/2000/svg">
<path d="M46.9844 66.6875H50.0156V78.8125H46.9844V66.6875Z" fill="#F2D150"/>
<path d="M68.2031 9.09375H89.4219V21.2188H68.2031V9.09375Z" fill="#F2D150"/>
<path d="M7.57812 9.09375H28.7969V21.2188H7.57812V9.09375Z" fill="#F2D150"/>
<path d="M80.3281 70.2492V56.0781H69.4156C65.6645 52.0996 60.8902 49.2957 55.6803 47.9506C59.5451 45.5445 62.1217 41.2629 62.1217 36.375C62.1217 28.8537 56.0023 22.7344 48.4811 22.7344C40.9598 22.7344 34.8404 28.8537 34.8404 36.375C34.8404 41.2629 37.417 45.5256 41.2818 47.9506C36.0719 49.3146 31.3166 52.0996 27.5465 56.0781H16.6719V70.2492C14.891 71.1018 13.6406 72.9205 13.6406 75.0234C13.6406 77.1264 14.891 78.9451 16.6719 79.7977V92.4531H42.4754C43.8584 94.2908 46.0371 95.4844 48.5 95.4844C50.9629 95.4844 53.1416 94.2908 54.5246 92.4531H80.3281V79.7977C82.109 78.9451 83.3594 77.1264 83.3594 75.0234C83.3594 72.9205 82.109 71.1018 80.3281 70.2492ZM37.8906 36.375C37.8906 30.5209 42.6459 25.7656 48.5 25.7656C54.3541 25.7656 59.1094 30.5209 59.1094 36.375C59.1094 42.2291 54.3541 46.9844 48.5 46.9844C42.6459 46.9844 37.8906 42.2291 37.8906 36.375ZM48.5 50.0156C54.5625 50.0156 60.3977 52.2133 65.0014 56.0781H52.8574L52.4217 56.8359C51.5881 58.2568 50.1293 59.1094 48.5189 59.1094C46.9086 59.1094 45.4309 58.2568 44.6162 56.8359L44.1805 56.0781H32.0176C36.6023 52.2133 42.4375 50.0156 48.5 50.0156ZM18.9453 72.75H23.4922C24.7426 72.75 25.7656 73.773 25.7656 75.0234C25.7656 76.2738 24.7426 77.2969 23.4922 77.2969H18.9453C17.6949 77.2969 16.6719 76.2738 16.6719 75.0234C16.6719 73.773 17.6949 72.75 18.9453 72.75ZM19.7031 89.4219V80.3281H23.4922C26.4098 80.3281 28.7969 77.941 28.7969 75.0234C28.7969 72.1059 26.4098 69.7188 23.4922 69.7188H19.7031V59.1094H40.9219V87.9062C40.9219 88.4178 40.9787 88.9293 41.0734 89.4219H19.7031ZM48.5 92.4531C45.9992 92.4531 43.9531 90.407 43.9531 87.9062V60.5871C45.2414 61.5723 46.8328 62.1406 48.5 62.1406C50.1672 62.1406 51.7586 61.5723 53.0469 60.5871V87.9062C53.0469 90.407 51.0008 92.4531 48.5 92.4531ZM55.9266 89.4219C56.0213 88.9293 56.0781 88.4178 56.0781 87.9062V59.1094H77.2969V69.7188H73.5078C70.5902 69.7188 68.2031 72.1059 68.2031 75.0234C68.2031 77.941 70.5902 80.3281 73.5078 80.3281H77.2969V89.4219H55.9266ZM78.0547 77.2969H73.5078C72.2574 77.2969 71.2344 76.2738 71.2344 75.0234C71.2344 73.773 72.2574 72.75 73.5078 72.75H78.0547C79.3051 72.75 80.3281 73.773 80.3281 75.0234C80.3281 76.2738 79.3051 77.2969 78.0547 77.2969Z" fill="black"/>
<path d="M7.57812 13.6406H10.6094V16.6719H7.57812V13.6406Z" fill="black"/>
<path d="M13.6406 13.6406H28.7969V16.6719H13.6406V13.6406Z" fill="black"/>
<path d="M7.57812 19.7031H28.7969V22.7344H7.57812V19.7031Z" fill="black"/>
<path d="M25.7656 36.1855V28.7969H30.3125C32.8133 28.7969 34.8594 26.7508 34.8594 24.25V6.0625C34.8594 3.56172 32.8133 1.51562 30.3125 1.51562H6.0625C3.56172 1.51562 1.51562 3.56172 1.51562 6.0625V24.25C1.51562 26.7508 3.56172 28.7969 6.0625 28.7969H14.7016L25.7656 36.1855ZM4.54688 24.25V6.0625C4.54688 5.22891 5.22891 4.54688 6.0625 4.54688H30.3125C31.1461 4.54688 31.8281 5.22891 31.8281 6.0625V24.25C31.8281 25.0836 31.1461 25.7656 30.3125 25.7656H22.7344V30.502L15.6109 25.7656H6.0625C5.22891 25.7656 4.54688 25.0836 4.54688 24.25Z" fill="black"/>
<path d="M7.57812 7.57812H28.7969V10.6094H7.57812V7.57812Z" fill="black"/>
<path d="M86.3906 13.6406H89.4219V16.6719H86.3906V13.6406Z" fill="black"/>
<path d="M68.2031 13.6406H83.3594V16.6719H68.2031V13.6406Z" fill="black"/>
<path d="M68.2031 19.7031H89.4219V22.7344H68.2031V19.7031Z" fill="black"/>
<path d="M90.9375 1.51562H66.6875C64.1867 1.51562 62.1406 3.56172 62.1406 6.0625V24.25C62.1406 26.7508 64.1867 28.7969 66.6875 28.7969H71.2344V36.1855L82.2984 28.7969H90.9375C93.4383 28.7969 95.4844 26.7508 95.4844 24.25V6.0625C95.4844 3.56172 93.4383 1.51562 90.9375 1.51562ZM92.4531 24.25C92.4531 25.0836 91.7711 25.7656 90.9375 25.7656H81.3891L74.2656 30.502V25.7656H66.6875C65.8539 25.7656 65.1719 25.0836 65.1719 24.25V6.0625C65.1719 5.22891 65.8539 4.54688 66.6875 4.54688H90.9375C91.7711 4.54688 92.4531 5.22891 92.4531 6.0625V24.25Z" fill="black"/>
<path d="M68.2031 7.57812H89.4219V10.6094H68.2031V7.57812Z" fill="black"/>
<path d="M46.9844 65.1719H50.0156V68.2031H46.9844V65.1719Z" fill="black"/>
<path d="M46.9844 71.2344H50.0156V74.2656H46.9844V71.2344Z" fill="black"/>
<path d="M46.9844 77.2969H50.0156V80.3281H46.9844V77.2969Z" fill="black"/>
</svg>
