<svg width="97" height="97" viewBox="0 0 97 97" fill="none" xmlns="http://www.w3.org/2000/svg">
<path d="M56.3226 0H40.6774V7.00121C33.9696 8.25282 27.6333 11.1276 22.2553 15.3909L24.1914 17.8355C29.0022 14.0024 34.6736 11.3819 40.6774 10.1694V15.6452H46.9355V21.9032H50.0645V15.6452H56.3226V10.1889C62.3069 11.4014 67.9783 14.022 72.7891 17.8355L74.7252 15.3909C69.3668 11.1276 63.0109 8.27238 56.3226 7.02077V0ZM53.1936 12.5161H43.8065V3.12903H53.1936V12.5161Z" fill="black"/>
<path d="M15.6452 40.6774H10.1889C11.4014 34.6931 14.022 29.0218 17.8355 24.2109L15.3909 22.2748C11.1276 27.6332 8.27238 33.9695 7.02077 40.6774H0V56.3226H7.00121C8.25282 63.0109 11.1276 69.3667 15.3714 74.7252L17.8159 72.7891C14.0024 67.9782 11.3819 62.3068 10.1694 56.3226H15.6452V50.0645H21.9032V46.9355H15.6452V40.6774ZM12.5161 53.1935H3.12903V43.8064H12.5161V53.1935Z" fill="black"/>
<path d="M97 40.6774H89.9988C88.7472 33.9891 85.8919 27.6724 81.6482 22.2944L79.2036 24.2305C83.0171 29.0413 85.6181 34.6932 86.8306 40.6579H81.3548V46.9159H75.0968V50.045H81.3548V56.303H86.8111C85.6181 62.2091 83.0562 67.7827 79.321 72.5545L81.7851 74.4905C85.931 69.1712 88.7472 62.9131 89.9792 56.3226H97V40.6774ZM93.871 53.1936H84.4839V43.8065H93.871V53.1936Z" fill="black"/>
<path d="M72.7891 79.1645C67.9782 82.9781 62.3069 85.5986 56.3226 86.8111V81.3549H50.0645V75.0968H46.9355V81.3549H40.6774V86.8111C34.6932 85.5986 29.0413 82.9781 24.2109 79.1645L22.2748 81.6091C27.6333 85.8724 33.9891 88.7277 40.6774 89.9793V97H56.3226V89.9988C63.0109 88.7472 69.3667 85.8724 74.7252 81.6287L72.7891 79.1645ZM53.1936 93.871H43.8065V84.4839H53.1936V93.871Z" fill="black"/>
<path d="M17.2097 76.6613H20.3387V79.7903H17.2097V76.6613Z" fill="black"/>
<path d="M23.4677 70.4032H26.5968V73.5322H23.4677V70.4032Z" fill="black"/>
<path d="M10.9516 82.9194H14.0806V86.0484H10.9516V82.9194Z" fill="black"/>
<path d="M76.6613 76.6613H79.7903V79.7903H76.6613V76.6613Z" fill="black"/>
<path d="M70.4032 70.4032H73.5323V73.5322H70.4032V70.4032Z" fill="black"/>
<path d="M82.9193 82.9194H86.0484V86.0484H82.9193V82.9194Z" fill="black"/>
<path d="M76.6613 17.2097H79.7903V20.3387H76.6613V17.2097Z" fill="black"/>
<path d="M70.4032 23.4678H73.5323V26.5968H70.4032V23.4678Z" fill="black"/>
<path d="M48.5 76.6613C32.9722 76.6613 20.3387 64.0278 20.3387 48.5C20.3387 32.9722 32.9722 20.3387 48.5 20.3387C64.0278 20.3387 76.6613 32.9722 76.6613 48.5C76.6613 64.0278 64.0278 76.6613 48.5 76.6613Z" fill="#F2D150"/>
<path d="M82.9193 10.9516H86.0484V14.0806H82.9193V10.9516Z" fill="black"/>
<path d="M17.2097 17.2097H20.3387V20.3387H17.2097V17.2097Z" fill="black"/>
<path d="M23.4677 23.4678H26.5968V26.5968H23.4677V23.4678Z" fill="black"/>
<path d="M10.9516 10.9516H14.0806V14.0806H10.9516V10.9516Z" fill="black"/>
<path d="M45.371 34.4194V37.5484H40.6774V59.4516H45.371V62.5807H48.5V59.4516H50.0645C53.5065 59.4516 56.3226 56.6355 56.3226 53.1936C56.3226 51.3357 55.5012 49.6538 54.1909 48.5C55.5012 47.3462 56.3226 45.6643 56.3226 43.8065C56.3226 40.3645 53.5065 37.5484 50.0645 37.5484H48.5V34.4194H45.371ZM50.0645 56.3226H43.8065V50.0645H50.0645C51.7855 50.0645 53.1936 51.4726 53.1936 53.1936C53.1936 54.9145 51.7855 56.3226 50.0645 56.3226ZM53.1936 43.8065C53.1936 45.5274 51.7855 46.9355 50.0645 46.9355H43.8065V40.6774H50.0645C51.7855 40.6774 53.1936 42.0855 53.1936 43.8065Z" fill="black"/>
<path d="M39.9147 28.3373L38.272 29.1195C31.0752 32.933 26.6163 40.3449 26.6163 48.4804C26.6163 53.702 28.4938 58.7476 31.8966 62.7175L34.2825 60.6836C31.3294 57.3004 29.7258 52.9588 29.7258 48.5C29.7258 41.5183 33.5589 35.1625 39.6605 31.9357L41.1859 31.2121C43.4936 30.2343 45.9577 29.7454 48.5 29.7454C52.9589 29.7454 57.3004 31.349 60.7032 34.2824L62.7371 31.8966C56.5181 26.5381 47.5417 25.1105 39.9147 28.3373Z" fill="black"/>
<path d="M48.5 67.2742C44.0411 67.2742 39.6996 65.6706 36.2968 62.7371L34.2629 65.123C38.2329 68.5258 43.298 70.4032 48.5 70.4032C60.5859 70.4032 70.4032 60.5859 70.4032 48.5C70.4032 43.2784 68.5258 38.2328 65.123 34.2629L62.7371 36.2968C65.6706 39.6996 67.2742 44.0411 67.2742 48.5C67.2742 58.8453 58.8454 67.2742 48.5 67.2742Z" fill="black"/>
</svg>
