<svg xmlns="http://www.w3.org/2000/svg" xmlns:xlink="http://www.w3.org/1999/xlink" width="358.519" height="357.741" viewBox="0 0 358.519 357.741">
  <defs>
    <linearGradient id="linear-gradient" x1="0.5" x2="0.5" y2="1" gradientUnits="objectBoundingBox">
      <stop offset="0" stop-color="#ffc444"/>
      <stop offset="0.996" stop-color="#f1c548"/>
      <stop offset="1" stop-color="#f36f56"/>
    </linearGradient>
    <linearGradient id="linear-gradient-3" x1="0.5" x2="0.5" y2="1" gradientUnits="objectBoundingBox">
      <stop offset="0" stop-color="#f6a938"/>
      <stop offset="1" stop-color="#f5833c"/>
    </linearGradient>
    <linearGradient id="linear-gradient-5" x1="0.786" y1="0.856" x2="-0.131" y2="0.146" xlink:href="#linear-gradient-3"/>
    <linearGradient id="linear-gradient-6" x1="0.314" y1="1" x2="0.835" y2="0.298" xlink:href="#linear-gradient"/>
    <linearGradient id="linear-gradient-7" x2="0.401" y2="0.747" xlink:href="#linear-gradient-3"/>
    <linearGradient id="linear-gradient-11" x1="0.024" y1="1.186" x2="0.131" y2="1.072" gradientUnits="objectBoundingBox">
      <stop offset="0" stop-color="#febbba"/>
      <stop offset="1" stop-color="#ff928e"/>
    </linearGradient>
    <linearGradient id="linear-gradient-12" x1="-6.721" y1="1.348" x2="-7.001" y2="0.281" xlink:href="#linear-gradient-11"/>
    <linearGradient id="linear-gradient-13" x1="0.112" y1="0.34" x2="1.184" y2="0.762" xlink:href="#linear-gradient-11"/>
    <linearGradient id="linear-gradient-14" x1="12.714" y1="15.917" x2="13.62" y2="15.917" gradientUnits="objectBoundingBox">
      <stop offset="0" stop-color="#09005d"/>
      <stop offset="1" stop-color="#1a0f91"/>
    </linearGradient>
    <linearGradient id="linear-gradient-15" x1="-1.807" y1="-0.608" x2="1.164" y2="0.819" xlink:href="#linear-gradient-11"/>
    <linearGradient id="linear-gradient-16" x1="0.044" y1="0.5" x2="1.044" y2="0.5" gradientUnits="objectBoundingBox">
      <stop offset="0" stop-color="#4f52ff"/>
      <stop offset="1" stop-color="#4042e2"/>
    </linearGradient>
    <linearGradient id="linear-gradient-17" x1="3.484" y1="-1.365" x2="-0.242" y2="1.237" gradientUnits="objectBoundingBox">
      <stop offset="0" stop-color="#0ee1a3"/>
      <stop offset="1" stop-color="#0ca69d"/>
    </linearGradient>
    <linearGradient id="linear-gradient-18" x1="-1.737" y1="0.5" x2="-0.737" y2="0.5" xlink:href="#linear-gradient-11"/>
    <linearGradient id="linear-gradient-19" x1="-11.898" y1="0.5" x2="-10.898" y2="0.5" xlink:href="#linear-gradient-17"/>
    <linearGradient id="linear-gradient-20" x1="-1.837" y1="-0.771" x2="2.175" y2="1.483" xlink:href="#linear-gradient-17"/>
    <linearGradient id="linear-gradient-21" x1="-11.929" y1="0.5" x2="-10.929" y2="0.5" xlink:href="#linear-gradient-11"/>
    <linearGradient id="linear-gradient-22" x1="-32.683" y1="26.223" x2="-32.725" y2="23.462" gradientUnits="objectBoundingBox">
      <stop offset="0" stop-color="#e1473d"/>
      <stop offset="1" stop-color="#e9605a"/>
    </linearGradient>
    <linearGradient id="linear-gradient-23" x1="-89.504" y1="12.321" x2="-88.929" y2="16.449" gradientUnits="objectBoundingBox">
      <stop offset="0" stop-color="#3d3d3d"/>
      <stop offset="1" stop-color="#e9605a"/>
    </linearGradient>
    <linearGradient id="linear-gradient-24" x1="-32.664" y1="26.883" x2="-32.706" y2="24.122" xlink:href="#linear-gradient-22"/>
    <linearGradient id="linear-gradient-26" x1="0.366" y1="1.185" x2="0.583" y2="0.09" gradientUnits="objectBoundingBox">
      <stop offset="0" stop-color="#fff"/>
      <stop offset="1" stop-color="#e8e8e8"/>
    </linearGradient>
    <linearGradient id="linear-gradient-27" x1="0.727" y1="0.159" x2="-0.108" y2="1.39" xlink:href="#linear-gradient-11"/>
    <linearGradient id="linear-gradient-28" y1="0.437" x2="0.734" y2="0.828" xlink:href="#linear-gradient-3"/>
    <linearGradient id="linear-gradient-29" x1="-0.17" y1="0.869" x2="1" y2="0.288" xlink:href="#linear-gradient-11"/>
    <linearGradient id="linear-gradient-30" x1="0.877" y1="0.89" x2="0.214" y2="0.024" xlink:href="#linear-gradient-11"/>
    <linearGradient id="linear-gradient-31" x1="-0.002" y1="-0.153" x2="0.677" y2="0.651" xlink:href="#linear-gradient-14"/>
    <linearGradient id="linear-gradient-32" x1="2.217" y1="2.237" x2="-0.496" y2="-0.589" xlink:href="#linear-gradient-11"/>
    <linearGradient id="linear-gradient-33" x1="-1.591" y1="1.996" x2="0.623" y2="0.212" gradientUnits="objectBoundingBox">
      <stop offset="0" stop-color="#ff928e"/>
      <stop offset="1" stop-color="#fe7062"/>
    </linearGradient>
    <linearGradient id="linear-gradient-34" x1="1.314" y1="-0.073" x2="0.004" y2="0.944" xlink:href="#linear-gradient-11"/>
    <linearGradient id="linear-gradient-35" x1="1.01" y1="-1.182" x2="-0.407" y2="2.854" xlink:href="#linear-gradient-11"/>
    <linearGradient id="linear-gradient-36" x1="0.7" y1="0.02" x2="-1.5" y2="3.348" xlink:href="#linear-gradient-11"/>
    <linearGradient id="linear-gradient-37" x1="1.378" y1="0.9" x2="-0.812" y2="-0.019" xlink:href="#linear-gradient-11"/>
    <linearGradient id="linear-gradient-38" x1="2.489" y1="-2.054" x2="-2.007" y2="3.719" xlink:href="#linear-gradient-22"/>
    <linearGradient id="linear-gradient-39" x1="1.268" y1="-0.843" x2="-1.343" y2="3.85" xlink:href="#linear-gradient-22"/>
  </defs>
  <g id="Group_1749" data-name="Group 1749" transform="translate(-13061.169 463.606)">
    <g id="Group_849" data-name="Group 849" transform="translate(12609.216 -918.606)">
      <path id="Path_2578" data-name="Path 2578" d="M821.24,696.642C786.862,777.589,695.286,822.936,615.871,810.7c-12.922-1.991-48.35-7.92-79.716-35.891-60.381-53.848-73.294-160.474-24.586-235.616,35.451-54.69,99-85.692,159.384-84.141,13.007.334,62.854,2.393,106.661,38.515a164.287,164.287,0,0,1,33.416,37.915C841.064,578.452,843.645,643.888,821.24,696.642Z" transform="translate(-25.993 0)" fill="#eff5f1"/>
      <g id="Group_819" data-name="Group 819" transform="translate(464.85 463.613)">
        <path id="Path_2579" data-name="Path 2579" d="M556.733,524.183c-.331-1.411,1.653-2.349,2.869-1.363,12.342,10.008,42,39.978,34.606,92.352-9.272,65.711,6.58,89.689,26.312,104.315,0,0-27.1-6.878-44.148-31.208C534.512,628.541,562.626,549.271,556.733,524.183Z" transform="translate(-552.895 -522.412)" fill="url(#linear-gradient)"/>
        <path id="Path_2580" data-name="Path 2580" d="M656.4,693.809c1.544,7.315,2.92,14.653,3.984,22.024q1.662,11.047,2.538,22.157c.548,7.4.935,14.815.957,22.23.061,7.414-.248,14.822-.587,22.259a201.353,201.353,0,0,0-.089,22.463,66.588,66.588,0,0,0,5.263,22.233c.786,1.774,1.612,3.542,2.551,5.25.9,1.724,1.893,3.414,2.919,5.088a80.325,80.325,0,0,0,7,9.631,88.315,88.315,0,0,0,18.434,16.132,1.845,1.845,0,0,0,2.334-.265,1.307,1.307,0,0,0-.268-1.989l0,0c-1.649-1.158-3.28-2.331-4.845-3.562-.794-.605-1.555-1.239-2.33-1.861-.747-.646-1.523-1.268-2.245-1.933A80.107,80.107,0,0,1,671.9,826.068a64.962,64.962,0,0,1-3.49-10.478,71.537,71.537,0,0,1-1.684-10.853,199.116,199.116,0,0,1-.1-22.169c.218-7.438.378-14.913.182-22.382q-.13-5.6-.492-11.2c-.108-1.865-.259-3.727-.4-5.59q-.25-2.792-.542-5.58-1.2-11.15-3.2-22.211c-1.374-7.364-2.974-14.693-4.9-21.957a.453.453,0,0,0-.535-.29A.392.392,0,0,0,656.4,693.809Z" transform="translate(-643.169 -671.514)" fill="url(#linear-gradient)" style="mix-blend-mode: soft-light;isolation: isolate"/>
      </g>
      <g id="Group_821" data-name="Group 821" transform="translate(487.55 479.804)">
        <g id="Group_820" data-name="Group 820" transform="translate(0 0)">
          <path id="Path_2581" data-name="Path 2581" d="M743.676,792a3.107,3.107,0,0,1-5.085-.866c-5.023-11.089-16.39-43.727,2.383-81.328,15.852-31.752,21.431-50.476,23.375-59.151a1.948,1.948,0,0,1,3.684-.358C776.4,669.273,798.51,733.82,743.676,792Z" transform="translate(-730.566 -649.133)" fill="url(#linear-gradient-3)"/>
          <path id="Path_2582" data-name="Path 2582" d="M804.733,1068.941a.863.863,0,0,1-1.014-.861c.008-.539,1.058-54.441,21.105-99.585a.862.862,0,1,1,1.575.7c-19.9,44.816-20.949,98.377-20.958,98.912A.862.862,0,0,1,804.733,1068.941Z" transform="translate(-794.373 -927.244)" fill="url(#linear-gradient-3)" style="mix-blend-mode: soft-light;isolation: isolate"/>
        </g>
      </g>
      <g id="Group_824" data-name="Group 824" transform="translate(451.953 498.169)">
        <g id="Group_822" data-name="Group 822" transform="translate(147.329 0)">
          <path id="Path_2583" data-name="Path 2583" d="M1726.885,839.915c-4.8-8.43-8.492-19.767-.95-28.252,13.623-15.326,40.869-18.731,47.681,5.109,2.817,9.862.827,17.527-2.475,23.126a7.784,7.784,0,0,0,6.732,11.72H1821.3v57.937a6.45,6.45,0,0,1-10.176,5.243c-29.13-20.218-44.32,3.63-44.352,14.363-.036,11.92,5.144,40.017,23.876,39.166a46.185,46.185,0,0,0,20.925-6.279,6.45,6.45,0,0,1,9.726,5.539v54h-44.938a6.7,6.7,0,0,0-5.615,10.369c3.335,5.143,6.126,12.6,6.279,23.215.387,27.018-40.869,22.137-51.086,13.623-7.3-6.082-7.6-25.582-1.916-37.642a6.806,6.806,0,0,0-6.279-9.566H1674V962.495a5.539,5.539,0,0,0-8.382-4.756c-7.528,4.474-19.156,10.082-30.784,10.588-19.583.852-22.137-21.286-22.989-38.315-.752-15.04,27.921-39.386,50.555-24.543,3.709,2.432,11.32,5.99,11.32,1.556V851.617h46.419A7.8,7.8,0,0,0,1726.885,839.915Z" transform="translate(-1610.967 -798.674)" fill="url(#linear-gradient-5)"/>
          <path id="Path_2584" data-name="Path 2584" d="M1745.068,1070.585a56.635,56.635,0,0,1-7.076-.456c-7.8-.983-14.88-3.463-18.491-6.472-7.875-6.563-7.761-26.75-2.144-38.671a5.627,5.627,0,0,0-.376-5.506,6.045,6.045,0,0,0-5.124-2.831h-43.741a.862.862,0,0,1-.861-.861V956.695a4.678,4.678,0,0,0-7.081-4.016c-7.746,4.6-19.445,10.2-31.186,10.708-9.028.4-15.545-3.973-19.35-12.977-3.227-7.638-4.1-17.508-4.537-26.155-.411-8.219,7.219-18.726,18.142-24.983,11.615-6.652,23.915-6.77,33.746-.323,3.414,2.239,8.026,4.153,9.525,3.346.126-.068.461-.249.461-1.07V845.817a.861.861,0,0,1,.861-.861h46.419a6.845,6.845,0,0,0,5.979-3.431,6.934,6.934,0,0,0,.019-6.984c-6.857-12.043-7.149-22.158-.845-29.25,8.328-9.368,21.561-14.219,32.172-11.8,8.314,1.9,14.345,8.02,16.981,17.244,2.485,8.7,1.623,16.706-2.562,23.8a6.923,6.923,0,0,0,5.99,10.421h43.423a.861.861,0,0,1,.861.861v57.937a7.153,7.153,0,0,1-3.892,6.441,7.37,7.37,0,0,1-7.637-.49c-14.455-10.033-24.552-8.456-30.477-5.368-8.517,4.44-12.507,13.978-12.522,19.026-.028,9.226,2.937,25.833,11.218,33.769a15.456,15.456,0,0,0,11.758,4.533,44.948,44.948,0,0,0,20.534-6.165,7.324,7.324,0,0,1,7.395-.012,7.2,7.2,0,0,1,3.623,6.3v54a.862.862,0,0,1-.861.861h-44.938a5.84,5.84,0,0,0-4.892,9.039c4.124,6.361,6.283,14.326,6.417,23.672.119,8.34-3.684,14.593-11,18.083A37.408,37.408,0,0,1,1745.068,1070.585Zm-76.091-55.658h42.88a7.759,7.759,0,0,1,6.578,3.631,7.414,7.414,0,0,1,.48,7.163c-5.789,12.285-4.921,31.1,1.688,36.613,6.774,5.645,27.234,9.482,39.656,3.555,6.758-3.224,10.128-8.777,10.017-16.5-.129-9.016-2.2-16.673-6.14-22.759a7.563,7.563,0,0,1,6.337-11.7h44.077v-53.14a5.489,5.489,0,0,0-2.763-4.805,5.617,5.617,0,0,0-5.672.013,46.661,46.661,0,0,1-21.316,6.393,17.112,17.112,0,0,1-13.028-5.011c-8.672-8.312-11.777-25.5-11.748-35.018.017-5.63,4.2-15.728,13.448-20.548,6.346-3.308,17.094-5.043,32.256,5.48a5.578,5.578,0,0,0,5.855.379,5.457,5.457,0,0,0,2.967-4.915V846.679h-42.561a8.646,8.646,0,0,1-7.474-13.019c3.935-6.671,4.739-14.225,2.389-22.451-3.147-11.013-10.279-14.8-15.708-16.038-10.03-2.29-22.573,2.345-30.5,11.265-4.021,4.524-7.1,12.925,1.055,27.253h0a8.64,8.64,0,0,1-.027,8.7,8.551,8.551,0,0,1-7.469,4.288H1668.7v54.546a2.7,2.7,0,0,1-1.365,2.586c-3.29,1.777-10.964-3.208-11.289-3.421-9.269-6.08-20.913-5.942-31.945.378-10.224,5.856-17.652,15.917-17.278,23.4.425,8.5,1.281,18.179,4.4,25.57,3.545,8.388,9.325,12.289,17.688,11.927,11.383-.495,22.8-5.965,30.381-10.468a6.4,6.4,0,0,1,9.684,5.5Z" transform="translate(-1605.085 -792.873)" fill="#fcfcfc"/>
        </g>
        <g id="Group_823" data-name="Group 823" transform="translate(0 3.225)">
          <path id="Path_2585" data-name="Path 2585" d="M502.569,981.781c-5.109,3.428-11.85,6.763-19.45,7.522-16.827,1.683-23.558-16.827-24.4-32.813s13.462-31.13,26.082-29.447c5.944.792,12.448,4.571,17.666,8.347a6.361,6.361,0,0,0,10.1-5.151V872.823h58.087a6.625,6.625,0,0,0,6.027-9.4c-4.558-9.906-9.677-24.958-2.537-31.454,11.1-10.1,41.068-10.1,46.116,5.048,2.827,8.48-1.013,18.682-4.94,26.019-2.368,4.423,88.651-62.146,93.668-62.146L670.74,872.8v53.174c0,5.672-6.415,9.2-11.041,5.914-21.446-15.22-44.866.835-47.012,18.714-2.524,21.033,10.938,38.7,25.24,37.02,7.263-.855,15.61-4.963,22.068-8.8A7.1,7.1,0,0,1,670.74,984.9v58.732h-57.1a8.9,8.9,0,0,1-8.072-12.7c3.375-7.016,17.206-15.63,16.376-22.278-1.683-13.461-31.656-16.792-47.8-14.285-12.322,1.913-6.2,21.188.806,36.633a8.915,8.915,0,0,1-8.091,12.634H512.566V987.01A6.378,6.378,0,0,0,502.569,981.781Z" transform="translate(-457.824 -824.063)" fill="url(#linear-gradient-6)"/>
          <path id="Path_2586" data-name="Path 2586" d="M664.869,1038.552h-57.1a9.764,9.764,0,0,1-8.308-4.594,9.626,9.626,0,0,1-.541-9.344c1.451-3.015,4.721-6.286,7.884-9.449,4.351-4.352,8.851-8.852,8.414-12.349-.324-2.59-1.839-4.922-4.505-6.932-6.075-4.581-24.156-9.427-42.308-6.609a6.582,6.582,0,0,0-5.169,3.389c-2.81,5.2-.518,16.276,6.628,32.038a9.776,9.776,0,0,1-8.875,13.851H506.695a.862.862,0,0,1-.861-.862V981.065a5.383,5.383,0,0,0-2.883-4.826,5.536,5.536,0,0,0-5.773.312c-6.6,4.429-13.276,7.008-19.844,7.664a18.094,18.094,0,0,1-14.115-4.281c-3.05-2.618-10.25-10.716-11.23-29.344-.451-8.566,3.449-17.745,10.178-23.956,5.2-4.8,11.352-7.126,16.878-6.39,5.129.684,11.2,3.545,18.057,8.5a5.5,5.5,0,0,0,8.732-4.453V866.878a.862.862,0,0,1,.861-.862h58.087a5.763,5.763,0,0,0,5.244-8.176c-5.115-11.119-9.672-25.774-2.334-32.451,7.032-6.4,21.612-9.045,33.189-6.022,7.425,1.939,12.513,6,14.324,11.434,2.947,8.842-1.091,19.4-5,26.7a5.766,5.766,0,0,0,5.085,8.494h49.577a.861.861,0,0,1,.861.861v53.174a8.025,8.025,0,0,1-4.374,7.145,7.606,7.606,0,0,1-8.027-.528c-9.088-6.45-19.3-7.693-28.765-3.5-9.175,4.065-15.806,12.549-16.894,21.614-1.377,11.472,2.153,22.993,9.211,30.068,4.471,4.482,9.821,6.612,15.074,5.993,7.329-.863,15.861-5.2,21.729-8.686a7.958,7.958,0,0,1,12.046,6.824v58.732A.861.861,0,0,1,664.869,1038.552Zm-85.551-51.745c11.3,0,24.932,2.046,32.43,7.7,3.052,2.3,4.793,5.025,5.177,8.094.542,4.333-4.261,9.136-8.905,13.781-3.06,3.061-6.225,6.226-7.549,8.978a7.91,7.91,0,0,0,.446,7.68,8.049,8.049,0,0,0,6.849,3.789h56.241V978.958a6.236,6.236,0,0,0-9.443-5.343c-6.011,3.571-14.777,8.018-22.407,8.916-5.779.681-11.643-1.624-16.495-6.488-7.422-7.44-11.14-19.506-9.7-31.49,1.159-9.656,8.187-18.677,17.906-22.984,10.04-4.447,20.858-3.144,30.459,3.67a5.913,5.913,0,0,0,6.239.4,6.309,6.309,0,0,0,3.442-5.615V867.715H615.292a7.488,7.488,0,0,1-6.6-11.03c3.747-7,7.636-17.08,4.883-25.339-1.621-4.864-6.282-8.526-13.125-10.312-11.073-2.89-24.95-.418-31.6,5.629-2.967,2.7-6.558,10.248,2.74,30.457a7.486,7.486,0,0,1-6.809,10.619H507.556v56.555a7.222,7.222,0,0,1-11.465,5.849c-6.525-4.722-12.5-7.554-17.275-8.191-5.017-.67-10.661,1.5-15.481,5.948-6.363,5.873-10.051,14.533-9.627,22.6.656,12.462,4.63,22.977,10.632,28.127a16.432,16.432,0,0,0,12.821,3.873c6.283-.628,12.695-3.111,19.056-7.38h0a7.327,7.327,0,0,1,7.543-.4,7.08,7.08,0,0,1,3.8,6.346v55.764h53.43a8,8,0,0,0,6.748-3.673,8.077,8.077,0,0,0,.559-7.743c-7.482-16.5-9.694-27.8-6.575-33.569a8.3,8.3,0,0,1,6.421-4.272A74.991,74.991,0,0,1,579.318,986.807Z" transform="translate(-451.953 -818.118)" fill="#fcfcfc"/>
          <path id="Path_21784" data-name="Path 21784" d="M193.333-16.386l-26,38.046s-18.2,20.06-5.2,20.406c.481.013,2.174,2.048,3.033,2.075,13.112.417,36.835,0,36.835,0h24.267l21.234-46,11.7-35.97s-35.97-8.993-42.469-6.917S193.333-16.386,193.333-16.386Z" transform="translate(0 5.188)" fill="#eff5f1"/>
        </g>
      </g>
      <g id="Group_835" data-name="Group 835" transform="translate(689.028 457.781)">
        <g id="Group_829" data-name="Group 829" transform="translate(31.693 0)">
          <g id="Group_825" data-name="Group 825" opacity="0.3">
            <path id="Path_2587" data-name="Path 2587" d="M2558.6,532.818a1.077,1.077,0,0,1-1.228-.751c-.347-1.165-.648-2.363-.9-3.56a1.076,1.076,0,0,1,.836-1.272l.021,0a1.076,1.076,0,0,1,1.251.84c.235,1.137.521,2.275.851,3.382a1.077,1.077,0,0,1-.725,1.339A1.093,1.093,0,0,1,2558.6,532.818Zm-1.655-9.23a1.113,1.113,0,0,1-.127.016,1.077,1.077,0,0,1-1.146-1c-.082-1.218-.112-2.452-.09-3.667a1.076,1.076,0,1,1,2.152.038c-.021,1.155.009,2.327.086,3.485A1.076,1.076,0,0,1,2556.943,523.588Zm.418-9.365A1.077,1.077,0,0,1,2556.1,513c.191-1.2.437-2.414.73-3.6a1.076,1.076,0,1,1,2.089.519c-.279,1.124-.512,2.272-.693,3.415A1.077,1.077,0,0,1,2557.362,514.224Zm2.5-9.038a1.077,1.077,0,0,1-1.2-1.46c.456-1.131.966-2.256,1.516-3.343a1.076,1.076,0,1,1,1.921.972c-.522,1.033-1.007,2.1-1.44,3.176A1.076,1.076,0,0,1,2559.864,505.186Zm4.455-8.253a1.076,1.076,0,0,1-1.082-1.672c.694-1,1.44-1.983,2.218-2.923a1.076,1.076,0,1,1,1.658,1.372c-.74.894-1.449,1.829-2.108,2.778A1.072,1.072,0,0,1,2564.319,496.934Zm6.169-7.061a1.076,1.076,0,0,1-.926-1.852c.9-.822,1.844-1.617,2.81-2.36a1.076,1.076,0,0,1,1.313,1.706c-.917.707-1.815,1.461-2.67,2.243A1.069,1.069,0,0,1,2570.488,489.873Zm38.3-9.767a1.072,1.072,0,0,1-.455-.013c-1.123-.277-2.273-.508-3.418-.688a1.076,1.076,0,0,1,.333-2.126c1.206.189,2.417.433,3.6.724a1.077,1.077,0,0,1-.061,2.1Zm-30.722,4.252a1.077,1.077,0,0,1-.73-1.994c1.059-.6,2.157-1.165,3.264-1.674a1.076,1.076,0,1,1,.9,1.956c-1.051.483-2.094,1.018-3.1,1.59A1.079,1.079,0,0,1,2578.063,484.358Zm21.424-5.456a1.066,1.066,0,0,1-.216.018c-1.157-.018-2.33.013-3.487.093a1.076,1.076,0,1,1-.148-2.148c1.217-.084,2.451-.117,3.669-.1a1.076,1.076,0,0,1,.182,2.134Zm-12.806,1.772a1.076,1.076,0,0,1-.505-2.089c1.166-.349,2.363-.653,3.557-.9l.023,0a1.076,1.076,0,0,1,.417,2.112c-1.134.237-2.271.526-3.378.858C2586.756,480.657,2586.718,480.667,2586.681,480.674Z" transform="translate(-2555.573 -476.763)" fill="#91b3fa"/>
            <path id="Path_2588" data-name="Path 2588" d="M3008.479,503.045a1.072,1.072,0,0,1-.638-.077c-.506-.228-1.025-.449-1.543-.657a1.076,1.076,0,1,1,.8-2c.545.219,1.091.451,1.624.691a1.076,1.076,0,0,1-.245,2.04Z" transform="translate(-2948.122 -497.237)" fill="#91b3fa"/>
          </g>
          <g id="Group_826" data-name="Group 826" transform="translate(22.997 26.146)" opacity="0.3">
            <path id="Path_2589" data-name="Path 2589" d="M3189.57,685.149a1.077,1.077,0,0,1-1.21-.7c-.187-.522-.388-1.05-.6-1.567a1.076,1.076,0,1,1,1.995-.808c.221.545.433,1.1.629,1.65a1.075,1.075,0,0,1-.817,1.421Z" transform="translate(-3129.919 -681.406)" fill="#91b3fa"/>
            <path id="Path_2590" data-name="Path 2590" d="M2810.818,789.042q-.73.137-1.471.249a1.076,1.076,0,0,1-.324-2.128c1.139-.174,2.268-.393,3.369-.655a1.076,1.076,0,0,1,.5,2.094C2812.21,788.764,2811.513,788.912,2810.818,789.042Zm-7.134.719a1.064,1.064,0,0,1-.182.018c-1.2.019-2.416-.013-3.611-.1a1.076,1.076,0,1,1,.147-2.147c1.135.078,2.289.108,3.43.09a1.076,1.076,0,0,1,.216,2.134Zm14.612-2.851a1.076,1.076,0,0,1-.587-2.061c1.06-.412,2.116-.875,3.14-1.377a1.076,1.076,0,0,1,.947,1.933c-1.079.528-2.191,1.016-3.307,1.45A1.089,1.089,0,0,1,2818.3,786.91Zm-23.8,1.977a1.074,1.074,0,0,1-.417,0c-1.174-.245-2.353-.544-3.5-.887a1.076,1.076,0,0,1,.617-2.062c1.091.326,2.209.61,3.325.843a1.077,1.077,0,0,1-.023,2.112Zm31.972-6.251a1.077,1.077,0,0,1-.8-1.951c.943-.635,1.872-1.319,2.761-2.034a1.076,1.076,0,1,1,1.348,1.678c-.936.752-1.914,1.473-2.906,2.141A1.072,1.072,0,0,1,2826.468,782.636Zm7.036-5.963a1.076,1.076,0,0,1-.98-1.8c.783-.828,1.541-1.7,2.252-2.588a1.076,1.076,0,1,1,1.682,1.344c-.748.936-1.545,1.852-2.37,2.724A1.07,1.07,0,0,1,2833.5,776.673Zm5.569-7.356a1.076,1.076,0,0,1-1.122-1.61c.585-.98,1.135-1.995,1.635-3.017a1.076,1.076,0,1,1,1.934.946c-.526,1.076-1.1,2.144-1.72,3.175A1.074,1.074,0,0,1,2839.073,769.317Zm3.832-8.394a1.076,1.076,0,0,1-1.219-1.394c.356-1.083.67-2.194.934-3.3a1.076,1.076,0,1,1,2.094.5c-.277,1.166-.607,2.336-.983,3.476A1.077,1.077,0,0,1,2842.9,760.923Zm1.9-9.034a1.078,1.078,0,0,1-1.27-1.161c.109-1.132.17-2.284.183-3.424a1.076,1.076,0,1,1,2.153.024c-.013,1.2-.078,2.413-.193,3.6A1.077,1.077,0,0,1,2844.8,751.889Zm-.135-9.224-.066.01a1.076,1.076,0,0,1-1.2-.935c-.1-.833-.234-1.672-.388-2.5q-.083-.447-.177-.89a1.076,1.076,0,0,1,.833-1.274,1.064,1.064,0,0,1,1.274.832q.1.466.186.936c.162.866.3,1.749.408,2.625A1.076,1.076,0,0,1,2844.666,742.665Z" transform="translate(-2782.879 -729.944)" fill="#91b3fa"/>
            <path id="Path_2591" data-name="Path 2591" d="M2738.392,1100.484a1.073,1.073,0,0,1-.644-.078c-.53-.242-1.065-.5-1.591-.766a1.076,1.076,0,0,1,.973-1.92c.5.253,1.007.5,1.51.727a1.076,1.076,0,0,1-.249,2.037Z" transform="translate(-2735.568 -1044.428)" fill="#91b3fa"/>
          </g>
          <g id="Group_828" data-name="Group 828" transform="translate(10.519 10.221)">
            <path id="Path_2592" data-name="Path 2592" d="M2652.337,616.207a.5.5,0,0,0,.582.048l5.26-3.133a26.674,26.674,0,0,0,8.231,2.629l2.472,5.6a.5.5,0,0,0,.5.3l7.318-.615a.5.5,0,0,0,.446-.378l1.5-5.931a26.672,26.672,0,0,0,7.677-3.967l5.709,2.211a.5.5,0,0,0,.566-.145l4.74-5.61a.5.5,0,0,0,.048-.582l-3.133-5.26a26.659,26.659,0,0,0,2.629-8.231l5.6-2.472a.5.5,0,0,0,.3-.5l-.615-7.318a.5.5,0,0,0-.378-.445l-5.931-1.5a26.656,26.656,0,0,0-3.966-7.677l2.211-5.71a.5.5,0,0,0-.145-.566l-5.61-4.74a.5.5,0,0,0-.582-.048l-5.26,3.133a26.67,26.67,0,0,0-8.231-2.629l-2.472-5.6a.5.5,0,0,0-.5-.3l-7.318.615a.5.5,0,0,0-.446.378l-1.5,5.931a26.668,26.668,0,0,0-7.677,3.967l-5.709-2.211a.5.5,0,0,0-.566.144l-4.74,5.61a.5.5,0,0,0-.048.582l3.133,5.26a26.666,26.666,0,0,0-2.629,8.231l-5.6,2.472a.5.5,0,0,0-.3.5l.615,7.318a.5.5,0,0,0,.378.446l5.931,1.5a26.664,26.664,0,0,0,3.967,7.677l-2.211,5.709a.5.5,0,0,0,.145.566Z" transform="translate(-2637.902 -556.764)" fill="url(#linear-gradient-7)"/>
            <g id="Group_827" data-name="Group 827" transform="translate(25.059 25.055)">
              <path id="Path_2593" data-name="Path 2593" d="M2842.77,767.515a7.385,7.385,0,1,1,1.048-.277A7.393,7.393,0,0,1,2842.77,767.515Zm-2.38-12.824a5.737,5.737,0,0,0-.812.214,5.644,5.644,0,1,0,.812-.214Z" transform="translate(-2834.036 -752.871)" fill="url(#linear-gradient)"/>
            </g>
            <path id="Path_2594" data-name="Path 2594" d="M2771.973,703.594a18.481,18.481,0,0,1-1.848.25h0q-.3.025-.591.04a18.252,18.252,0,0,1-2.906-.081l-.039,0-.111-.013-.217-.027a.43.43,0,1,1,.11-.854,17.311,17.311,0,0,0,17.549-9.136,17.183,17.183,0,0,0,1.914-9.462,17.54,17.54,0,0,0-.238-1.764,17.291,17.291,0,0,0-34.221,4.661,17.292,17.292,0,0,0,3.185,8.642.423.423,0,0,1,.074.172.43.43,0,0,1-.773.33,18.1,18.1,0,0,1-3.1-7.245,18.155,18.155,0,0,1,16.32-21.436,18.157,18.157,0,0,1,19.359,14.716,18.493,18.493,0,0,1,.25,1.851,18.155,18.155,0,0,1-14.719,19.359Z" transform="translate(-2736.072 -653.442)" fill="url(#linear-gradient)"/>
          </g>
        </g>
        <g id="Group_834" data-name="Group 834" transform="translate(0 48.61)">
          <g id="Group_830" data-name="Group 830" opacity="0.3">
            <path id="Path_2595" data-name="Path 2595" d="M2327.26,1167.289a.664.664,0,0,1-.714-.353c-.256-.5-.5-1.021-.725-1.538a.665.665,0,1,1,1.219-.531c.215.493.448.987.691,1.467a.664.664,0,0,1-.471.955Z" transform="translate(-2323.433 -1125.213)" fill="#91b3fa"/>
            <path id="Path_2596" data-name="Path 2596" d="M2309.453,894.549a.665.665,0,0,1-.759-.466,28.869,28.869,0,0,1-.683-2.844q-.056-.3-.107-.606a.688.688,0,0,1,.548-.765.665.665,0,0,1,.765.547q.048.291.1.579a27.577,27.577,0,0,0,.651,2.712.665.665,0,0,1-.45.826C2309.5,894.54,2309.475,894.545,2309.453,894.549Zm-1.125-6.81a.681.681,0,0,1-.095.011.665.665,0,0,1-.692-.637,28.834,28.834,0,0,1,.069-3.538.665.665,0,0,1,1.325.108,27.489,27.489,0,0,0-.065,3.375A.665.665,0,0,1,2308.328,887.739Zm.56-6.88a.664.664,0,0,1-.772-.789,28.717,28.717,0,0,1,.937-3.415.665.665,0,0,1,1.258.431,27.337,27.337,0,0,0-.893,3.256A.666.666,0,0,1,2308.888,880.86Zm2.235-6.531a.664.664,0,0,1-.719-.945,28.833,28.833,0,0,1,1.743-3.081.665.665,0,0,1,1.115.725,27.467,27.467,0,0,0-1.662,2.937A.664.664,0,0,1,2311.123,874.328Zm3.762-5.787a.665.665,0,0,1-.631-1.081,29.052,29.052,0,0,1,2.438-2.563.665.665,0,0,1,.906.973,27.679,27.679,0,0,0-2.326,2.446A.663.663,0,0,1,2314.885,868.541Zm5.052-4.7a.665.665,0,0,1-.512-1.192,28.6,28.6,0,0,1,2.989-1.891.665.665,0,0,1,.64,1.166,27.271,27.271,0,0,0-2.849,1.8A.662.662,0,0,1,2319.937,863.842Zm6.046-3.32a.665.665,0,0,1-.367-1.271,28.812,28.812,0,0,1,3.363-1.1.665.665,0,0,1,.335,1.287,27.362,27.362,0,0,0-3.208,1.049A.659.659,0,0,1,2325.983,860.522Zm10.13-1.98a.655.655,0,0,1-.117.011,27.6,27.6,0,0,0-2.93.184c-.148.016-.293.034-.437.054a.665.665,0,0,1-.177-1.318c.154-.02.308-.04.463-.057a28.956,28.956,0,0,1,3.068-.193.665.665,0,0,1,.129,1.318Z" transform="translate(-2307.515 -857.225)" fill="#91b3fa"/>
          </g>
          <g id="Group_831" data-name="Group 831" transform="translate(15.389 35.807)" opacity="0.3">
            <path id="Path_2597" data-name="Path 2597" d="M2479.23,1158.54a.665.665,0,0,1-.253-1.305,27.5,27.5,0,0,0,3.209-.848.665.665,0,0,1,.417,1.263,28.949,28.949,0,0,1-3.365.889Zm-3.369.467a.69.69,0,0,1-.072.009,29.049,29.049,0,0,1-3.48.062.665.665,0,0,1,.056-1.329,27.815,27.815,0,0,0,3.321-.059.665.665,0,0,1,.175,1.316Zm9.814-2.6a.665.665,0,0,1-.406-1.254,27.515,27.515,0,0,0,2.91-1.6.665.665,0,0,1,.71,1.125,28.848,28.848,0,0,1-3.051,1.676A.666.666,0,0,1,2485.676,1156.41Zm-16.6,2.3a.672.672,0,0,1-.231,0,28.552,28.552,0,0,1-3.395-.781.665.665,0,1,1,.376-1.275,27.334,27.334,0,0,0,3.236.744.665.665,0,0,1,.013,1.309Zm22.338-5.929a.665.665,0,0,1-.543-1.168,27.31,27.31,0,0,0,2.439-2.251.665.665,0,0,1,.96.921,28.929,28.929,0,0,1-2.558,2.36A.66.66,0,0,1,2491.414,1152.786Zm4.7-4.9a.665.665,0,0,1-.654-1.052,27.794,27.794,0,0,0,1.832-2.77.665.665,0,0,1,1.151.665,29.1,29.1,0,0,1-1.919,2.9A.662.662,0,0,1,2496.116,1147.891Zm3.394-5.881a.665.665,0,0,1-.733-.914,27.1,27.1,0,0,0,1.113-3.129.665.665,0,0,1,1.278.369,28.727,28.727,0,0,1-1.167,3.281A.664.664,0,0,1,2499.51,1142.009Z" transform="translate(-2460.245 -1137.486)" fill="#91b3fa"/>
            <path id="Path_2598" data-name="Path 2598" d="M2430.249,1274.68a.664.664,0,0,1-.387-.044c-.522-.227-1.039-.47-1.538-.723a.665.665,0,1,1,.6-1.186c.476.241.969.473,1.467.69a.665.665,0,0,1-.144,1.263Z" transform="translate(-2427.96 -1255.386)" fill="#91b3fa"/>
          </g>
          <g id="Group_833" data-name="Group 833" transform="translate(6.983 6.783)">
            <path id="Path_2599" data-name="Path 2599" d="M2371.832,950.087a.337.337,0,0,0,.389.032l3.52-2.1a17.846,17.846,0,0,0,5.508,1.759l1.654,3.745a.337.337,0,0,0,.336.2l4.9-.412a.337.337,0,0,0,.3-.253l1.006-3.969a17.848,17.848,0,0,0,5.137-2.654l3.82,1.479a.337.337,0,0,0,.379-.1l3.171-3.754a.337.337,0,0,0,.032-.39l-2.1-3.52a17.837,17.837,0,0,0,1.759-5.508l3.745-1.654a.337.337,0,0,0,.2-.336l-.412-4.9a.337.337,0,0,0-.253-.3l-3.969-1.006a17.841,17.841,0,0,0-2.654-5.137l1.479-3.821a.337.337,0,0,0-.1-.379l-3.754-3.172a.336.336,0,0,0-.389-.032l-3.52,2.1a17.846,17.846,0,0,0-5.508-1.759l-1.654-3.745a.337.337,0,0,0-.336-.2l-4.9.412a.337.337,0,0,0-.3.253l-1.006,3.969a17.846,17.846,0,0,0-5.137,2.654l-3.82-1.479a.337.337,0,0,0-.379.1l-3.171,3.754a.337.337,0,0,0-.032.389l2.1,3.52a17.836,17.836,0,0,0-1.759,5.508l-3.745,1.654a.337.337,0,0,0-.2.336l.412,4.9a.337.337,0,0,0,.253.3l3.969,1.006a17.849,17.849,0,0,0,2.654,5.137l-1.479,3.821a.337.337,0,0,0,.1.379Z" transform="translate(-2362.172 -910.311)" fill="url(#linear-gradient)"/>
            <g id="Group_832" data-name="Group 832" transform="translate(16.68 16.681)">
              <path id="Path_2600" data-name="Path 2600" d="M2498.664,1050.843a5.041,5.041,0,1,1,.72-.19A5.122,5.122,0,0,1,2498.664,1050.843Zm-1.592-8.582a3.7,3.7,0,0,0-2.82,4.839,3.7,3.7,0,0,0,4.7,2.3h0a3.7,3.7,0,0,0-1.881-7.135Z" transform="translate(-2492.721 -1040.87)" fill="#bdd0fb"/>
            </g>
            <path id="Path_2601" data-name="Path 2601" d="M2449.366,1006.364q-.62.116-1.262.171a12.6,12.6,0,0,1-2.552-.044l-.114-.015a.665.665,0,0,1-.569-.536.674.674,0,0,1-.006-.208.666.666,0,0,1,.745-.574,11.222,11.222,0,0,0,2.383.052h0l.131-.012a11.086,11.086,0,0,0,5.164-1.838,11.266,11.266,0,0,0,2.252-2l.016-.019.05-.058a11.121,11.121,0,0,0,2.6-8.162,11.3,11.3,0,0,0-.154-1.141,11.194,11.194,0,1,0-20.092,8.611.665.665,0,1,1-1.079.776,12.524,12.524,0,1,1,22.478-9.635,12.825,12.825,0,0,1,.173,1.277A12.541,12.541,0,0,1,2449.366,1006.364Z" transform="translate(-2425.286 -972.432)" fill="#bdd0fb"/>
          </g>
        </g>
      </g>
      <g id="Group_848" data-name="Group 848" transform="translate(514.846 557.241)">
        <g id="Group_843" data-name="Group 843" transform="translate(82.064 1.137)">
          <g id="Group_836" data-name="Group 836" transform="translate(0 39.423)">
            <path id="Path_2602" data-name="Path 2602" d="M1599.508,1820.06s-2-5.268-4.339-4.785a15.982,15.982,0,0,0-4.895,2.278l-3.755,5.079s10.541,4.153,14.249,1.773a81.113,81.113,0,0,0,24.364-.371,53.3,53.3,0,0,1-3.83-11.545C1614.416,1816.386,1607,1819.3,1599.508,1820.06Z" transform="translate(-1586.52 -1781.849)" fill="url(#linear-gradient-11)"/>
            <path id="Path_2603" data-name="Path 2603" d="M1894,1572.684s-15.416,19.417-35.241,30.639a53.305,53.305,0,0,0,3.83,11.545c10.284-1.688,22.187-5.715,32.277-14.664Z" transform="translate(-1823.977 -1572.684)" fill="#787878"/>
          </g>
          <path id="Path_2604" data-name="Path 2604" d="M2140.662,1638.024c-3.015-14.32-6.029-22.611-16.124-49.754-3.177-8.542-6.062-17.184-4.667-26.19l1.566-10.115s19.618-6.638,41.364-.28c0,0,29.668,12.888,9.517,76.541C2163.234,1638.389,2152.6,1641.285,2140.662,1638.024Z" transform="translate(-2051.413 -1512.541)" fill="#787878"/>
          <path id="Path_2605" data-name="Path 2605" d="M2160.724,1449.471l5.087,12.221a2.435,2.435,0,0,0,1.84,1.463c2.933.5,10.026,1.289,14.685-1.774a1.184,1.184,0,0,0,.317-1.665l-9.4-13.493Z" transform="translate(-2087.361 -1422.957)" fill="url(#linear-gradient-12)"/>
          <g id="Group_837" data-name="Group 837" transform="translate(66.836)">
            <path id="Path_2606" data-name="Path 2606" d="M2140.346,1320.761c-.214.2-9.016,17.488-9.016,17.488l9.977,4.816,10.777-15.144S2143.923,1317.395,2140.346,1320.761Z" transform="translate(-2128.558 -1312.945)" fill="url(#linear-gradient-13)"/>
            <path id="Path_2607" data-name="Path 2607" d="M2128.629,1280.913l-4.976,8.295a1.554,1.554,0,0,1-.273.34c-.592.551-2.619,2.155-4.186-.029-1.335-1.861-2.588-3.553-3.931-4.25a1.591,1.591,0,0,0-2.147.707,59.409,59.409,0,0,0-3.405,8.078,1.584,1.584,0,0,0,.922,1.943,44.144,44.144,0,0,0,9.556,2.788,1.591,1.591,0,0,0,1.5-.64c1.525-2.088,5.821-7.924,7.288-9.385,1.362-1.357,3.876-.846,5.01-.52a1.6,1.6,0,0,0,1.271-.167c1.15-.693,3.156-2.417,1.32-5.336a1.593,1.593,0,0,1,.493-2.164,3.52,3.52,0,0,0,1.349-5,4.963,4.963,0,0,0-5.375-2.631,1.652,1.652,0,0,1-1.734-.964,1.053,1.053,0,0,0-.821-.647,1.544,1.544,0,0,1-1.25-1.814,4.076,4.076,0,0,0-2.276-4.67c-4.3-2.367-8.075,1.49-9.034,4.745s3.854,5.556,6.882,5.94c2.224.282,3.443,2.709,3.934,3.978A1.6,1.6,0,0,1,2128.629,1280.913Z" transform="translate(-2109.637 -1264.121)" fill="url(#linear-gradient-14)"/>
            <path id="Path_2608" data-name="Path 2608" d="M2244.633,1443.372s2.141-5.038,4.592-4.833,4.379,2.647,1.342,5.391C2246.789,1447.343,2244.633,1443.372,2244.633,1443.372Z" transform="translate(-2227.385 -1416.249)" fill="url(#linear-gradient-15)"/>
          </g>
          <g id="Group_838" data-name="Group 838" transform="translate(86.537 235.304)">
            <path id="Path_2609" data-name="Path 2609" d="M2264.614,3234.059c4.738.41,12.961,1.075,19.444,1.36,3.9.171,6.14-.21,7.433-.728,0,.146-.006.283-.012.411a1.34,1.34,0,0,1-1.274,1.266,227.715,227.715,0,0,1-25.46.026.955.955,0,0,1-.778-1.435A7.836,7.836,0,0,1,2264.614,3234.059Z" transform="translate(-2263.833 -3217.674)" fill="url(#linear-gradient-16)"/>
            <path id="Path_2610" data-name="Path 2610" d="M2289.39,3170.1c-6.483-.286-14.706-.951-19.444-1.36,4.658-5.715,19.444-9.567,19.444-9.567h4.176a17.513,17.513,0,0,1,3.256,10.2C2295.531,3169.894,2293.287,3170.276,2289.39,3170.1Z" transform="translate(-2269.165 -3152.359)" fill="url(#linear-gradient-17)"/>
            <path id="Path_2611" data-name="Path 2611" d="M2407.135,3105.817l-.391,7.733a1.766,1.766,0,0,1-1.508,1.661,6.867,6.867,0,0,1-3.137-.26,2.09,2.09,0,0,1-1.405-1.606l-1.35-7.528Z" transform="translate(-2382.031 -3105.817)" fill="url(#linear-gradient-18)"/>
          </g>
          <g id="Group_840" data-name="Group 840" transform="translate(151.858 228.076)">
            <g id="Group_839" data-name="Group 839" transform="translate(1.84 7.177)">
              <path id="Path_2612" data-name="Path 2612" d="M2836.057,3227.216a3.75,3.75,0,0,0,3.374-2.5l.008.031a2.671,2.671,0,0,1-1.8,3.044,11.76,11.76,0,0,1-4.982.78,4.954,4.954,0,0,1-3.736-1.723l-.012-.016C2830.458,3227.6,2832.631,3227.694,2836.057,3227.216Z" transform="translate(-2823.875 -3209.479)" fill="url(#linear-gradient-19)"/>
              <path id="Path_2613" data-name="Path 2613" d="M2791.994,3105.423h3.444c5.246-.107,8.54,10.957,9.618,15.241a3.75,3.75,0,0,1-3.374,2.5c-3.427.478-5.6.388-7.147-.378-2.834-3.729-4.239-9.191-4.915-12.378A4.346,4.346,0,0,1,2791.994,3105.423Z" transform="translate(-2789.499 -3105.422)" fill="url(#linear-gradient-20)"/>
            </g>
            <path id="Path_2614" data-name="Path 2614" d="M2782.436,3049.251l1.912,7.606a2.064,2.064,0,0,1-1.074,2.339,7.327,7.327,0,0,1-3.96.959,1.725,1.725,0,0,1-1.407-1.15l-2.807-8Z" transform="translate(-2775.099 -3049.251)" fill="url(#linear-gradient-21)"/>
          </g>
          <path id="Path_2615" data-name="Path 2615" d="M2352.143,2287.023c-2.379,2.11-10.118,2.389-10.118,2.389-27.876-66.905-39.5-85.324-39.5-85.324,4.025,25.253.868,90.074.868,90.074-4.6,2.03-10.531,0-10.531,0-.374-41.343-6.195-85.767-13.7-114.192,18.841-.423,29.08-4.531,32.352-7.118C2327.22,2198.172,2352.143,2287.023,2352.143,2287.023Z" transform="translate(-2190.668 -2056.748)" fill="#2c2c2c"/>
          <g id="Group_841" data-name="Group 841" transform="translate(81.417 105.402)">
            <path id="Path_2616" data-name="Path 2616" d="M2242.013,2317.85l3.467,21.563a7.1,7.1,0,0,0,7.885,5.9l51.888-6.329a5.124,5.124,0,0,0,4.514-4.974c.111-5.572-.108-15.487-2.446-24.521Z" transform="translate(-2239.681 -2281.333)" fill="#303043"/>
            <path id="Path_2617" data-name="Path 2617" d="M2264.514,2344.137a.148.148,0,0,1-.018-.295l1.175-.144a.145.145,0,0,1,.165.129.148.148,0,0,1-.129.165l-1.175.143Zm-2.744-.068a.156.156,0,0,1-.033,0,6.92,6.92,0,0,1-1.149-.37.148.148,0,0,1,.115-.272,6.567,6.567,0,0,0,1.1.354.148.148,0,0,1-.033.292Zm6.66-.41a.148.148,0,0,1-.018-.295l1.175-.143a.15.15,0,0,1,.165.129.148.148,0,0,1-.129.165l-1.175.143Zm3.916-.478a.148.148,0,0,1-.018-.295l1.175-.144a.146.146,0,0,1,.165.129.148.148,0,0,1-.129.165l-1.175.143Zm3.916-.478a.148.148,0,0,1-.018-.295l1.175-.143a.144.144,0,0,1,.165.129.148.148,0,0,1-.128.165l-1.175.143Zm3.916-.477a.148.148,0,0,1-.018-.295l1.175-.144a.148.148,0,0,1,.036.294l-1.175.144Zm-21.792-.072a.149.149,0,0,1-.107-.045,6.976,6.976,0,0,1-.756-.941.148.148,0,0,1,.246-.165,6.6,6.6,0,0,0,.725.9.148.148,0,0,1-.107.251Zm25.708-.406a.148.148,0,0,1-.019-.295l1.175-.143a.146.146,0,0,1,.165.129.148.148,0,0,1-.129.165l-1.175.144Zm3.916-.478a.148.148,0,0,1-.018-.295l1.175-.143a.148.148,0,1,1,.035.294l-1.175.143Zm3.917-.477a.148.148,0,0,1-.018-.295l1.175-.144a.148.148,0,0,1,.036.294l-1.175.143Zm3.916-.478a.148.148,0,0,1-.018-.295l1.175-.143a.146.146,0,0,1,.165.129.148.148,0,0,1-.128.165l-1.175.143Zm3.916-.477a.148.148,0,0,1-.018-.295l1.174-.143a.145.145,0,0,1,.165.129.148.148,0,0,1-.129.165l-1.175.143Zm3.916-.478a.148.148,0,0,1-.018-.295l1.175-.143a.148.148,0,1,1,.036.293l-1.175.144Zm3.916-.478a.148.148,0,0,1-.018-.295l1.175-.143a.146.146,0,0,1,.165.129.148.148,0,0,1-.129.164l-1.175.143Zm-50.969-.193a.148.148,0,0,1-.146-.123l-.19-1.17a.148.148,0,1,1,.292-.047l.189,1.166a.147.147,0,0,1-.12.171Zm54.885-.285a.148.148,0,0,1-.018-.295l1.175-.143a.145.145,0,0,1,.165.129.148.148,0,0,1-.129.165l-1.175.143Zm3.819-.851a.148.148,0,0,1-.073-.276,4.724,4.724,0,0,0,.917-.684.148.148,0,1,1,.2.215,5.039,5.039,0,0,1-.976.726A.147.147,0,0,1,2315.324,2337.555Zm-59.332-2.759a.148.148,0,0,1-.146-.124l-.188-1.168a.148.148,0,0,1,.123-.17.145.145,0,0,1,.169.123l.188,1.168a.148.148,0,0,1-.123.169Zm61.648-.3a.136.136,0,0,1-.035,0,.147.147,0,0,1-.108-.179,4.72,4.72,0,0,0,.135-1.033l0-.106a.148.148,0,0,1,.148-.146h0a.149.149,0,0,1,.146.15l0,.108a5.013,5.013,0,0,1-.145,1.1A.148.148,0,0,1,2317.641,2334.5Zm-62.274-3.595a.147.147,0,0,1-.146-.124l-.187-1.169a.148.148,0,0,1,.292-.047l.188,1.168a.148.148,0,0,1-.123.17Zm62.433-.339a.148.148,0,0,1-.148-.147q0-.573-.014-1.182a.149.149,0,0,1,.145-.151.143.143,0,0,1,.151.146q.011.609.014,1.185a.148.148,0,0,1-.147.149Zm-63.06-3.556a.148.148,0,0,1-.146-.125l-.187-1.168a.147.147,0,0,1,.122-.17.145.145,0,0,1,.169.122l.188,1.169a.147.147,0,0,1-.122.169Zm62.965-.389a.148.148,0,0,1-.147-.142q-.025-.582-.057-1.181a.148.148,0,0,1,.14-.156.14.14,0,0,1,.156.14q.032.6.056,1.184a.147.147,0,0,1-.141.154Zm-63.591-3.506a.147.147,0,0,1-.146-.125l-.188-1.168a.148.148,0,1,1,.292-.047l.188,1.168a.148.148,0,0,1-.122.169Zm63.351-.433a.148.148,0,0,1-.148-.136q-.047-.584-.1-1.178a.147.147,0,0,1,.133-.161.144.144,0,0,1,.161.134q.055.6.1,1.181a.149.149,0,0,1-.136.159Zm-63.977-3.462a.148.148,0,0,1-.146-.125l-.212-1.319.609-.078a.144.144,0,0,1,.166.128.149.149,0,0,1-.128.166l-.306.039.164,1.017a.148.148,0,0,1-.123.17Zm63.576-.463a.148.148,0,0,1-.147-.13q-.073-.583-.154-1.172a.147.147,0,0,1,.126-.167.145.145,0,0,1,.167.126q.082.59.155,1.175a.148.148,0,0,1-.128.165Zm-60.567-1.115a.148.148,0,0,1-.019-.295l1.173-.15a.142.142,0,0,1,.166.128.148.148,0,0,1-.128.166l-1.174.15Zm3.913-.5a.148.148,0,0,1-.019-.295l1.174-.15a.142.142,0,0,1,.166.128.148.148,0,0,1-.128.166l-1.174.15Zm3.913-.5a.148.148,0,0,1-.019-.295l1.174-.15a.144.144,0,0,1,.166.128.148.148,0,0,1-.128.166l-1.174.15Zm3.913-.5a.148.148,0,0,1-.019-.295l1.174-.15a.142.142,0,0,1,.166.128.149.149,0,0,1-.128.166l-1.174.15Zm3.913-.5a.148.148,0,0,1-.019-.295l1.174-.15a.143.143,0,0,1,.166.128.148.148,0,0,1-.128.166l-1.174.15Zm3.913-.5a.148.148,0,0,1-.019-.295l1.174-.15a.144.144,0,0,1,.166.128.148.148,0,0,1-.128.166l-1.174.15Zm40.417-.283a.148.148,0,0,1-.146-.122q-.1-.58-.216-1.161a.148.148,0,0,1,.117-.173.146.146,0,0,1,.173.117q.114.583.217,1.166a.147.147,0,0,1-.12.171Zm-36.5-.218a.148.148,0,0,1-.019-.295l1.174-.15a.142.142,0,0,1,.166.128.148.148,0,0,1-.128.166l-1.174.15Zm3.913-.5a.148.148,0,0,1-.019-.295l1.174-.15a.143.143,0,0,1,.166.128.148.148,0,0,1-.128.166l-1.174.15Zm3.913-.5a.148.148,0,0,1-.019-.295l1.174-.15a.143.143,0,0,1,.166.128.148.148,0,0,1-.128.166l-1.174.15Zm3.913-.5a.148.148,0,0,1-.019-.295l1.174-.15a.144.144,0,0,1,.166.128.148.148,0,0,1-.128.166l-1.174.15Zm3.913-.5a.148.148,0,0,1-.019-.295l1.174-.15a.146.146,0,0,1,.166.128.148.148,0,0,1-.128.166l-1.174.15Zm3.913-.5a.148.148,0,0,1-.019-.295l1.174-.15a.14.14,0,0,1,.166.128.149.149,0,0,1-.128.166l-1.174.15Zm3.913-.5a.148.148,0,0,1-.019-.295l1.174-.15a.141.141,0,0,1,.166.128.148.148,0,0,1-.128.166l-1.174.15Zm3.913-.5a.148.148,0,0,1-.019-.295l1.174-.15a.142.142,0,0,1,.166.128.148.148,0,0,1-.128.166l-1.174.15Zm8.309-.14a.148.148,0,0,1-.144-.113q-.092-.384-.19-.767l-.13.017a.145.145,0,0,1-.166-.128.149.149,0,0,1,.128-.166l.388-.05.032.126q.116.447.225.9a.148.148,0,0,1-.109.179A.142.142,0,0,1,2315.676,2310.989Zm-4.4-.361a.148.148,0,0,1-.019-.295l1.174-.15a.144.144,0,0,1,.166.128.148.148,0,0,1-.128.166l-1.174.15Z" transform="translate(-2249.378 -2281.586)" fill="#fff"/>
            <path id="Path_2618" data-name="Path 2618" d="M2344.809,2213.633l-.058-1.69a1.294,1.294,0,0,1,.878-.874c1.583-.464,5.531-1.428,7.644-.234l.536,1.9Z" transform="translate(-2329.293 -2194.779)" fill="url(#linear-gradient-22)"/>
            <path id="Path_2619" data-name="Path 2619" d="M2364.775,2175.972a2.338,2.338,0,0,1-1.118.142,1.018,1.018,0,0,1-.9-.879l-.669-5.229,2.661-.34.668,5.225A1.022,1.022,0,0,1,2364.775,2175.972Z" transform="translate(-2344.419 -2159.37)" fill="url(#linear-gradient-23)"/>
            <path id="Path_2620" data-name="Path 2620" d="M2546.534,2187.82l-.058-1.69a1.3,1.3,0,0,1,.878-.874c1.582-.464,5.531-1.429,7.644-.234l.536,1.9Z" transform="translate(-2505.245 -2172.263)" fill="url(#linear-gradient-24)"/>
            <path id="Path_2621" data-name="Path 2621" d="M2566.02,2146.4a2.334,2.334,0,0,1-1.118.142,1.019,1.019,0,0,1-.9-.88l-.739-5.78,2.661-.34.739,5.776A1.022,1.022,0,0,1,2566.02,2146.4Z" transform="translate(-2519.89 -2133.094)" fill="url(#linear-gradient-23)"/>
            <path id="Path_2622" data-name="Path 2622" d="M2349.552,2101.042l28.5-4.609a1.391,1.391,0,0,0,1.173-1.3,11.754,11.754,0,0,0-.375-3.639,3.327,3.327,0,0,0-3.557-2.384c-5.355.556-18.945,2.3-26.056,6.22a2.637,2.637,0,0,0-1.348,2.017,6.4,6.4,0,0,0,.3,2.915A1.242,1.242,0,0,0,2349.552,2101.042Z" transform="translate(-2331.985 -2089.091)" fill="#f6a938"/>
            <path id="Path_2623" data-name="Path 2623" d="M2352.061,2126.366a.4.4,0,0,1-.384-.306,7.07,7.07,0,0,1-.108-2.275,2.67,2.67,0,0,1,1.571-2.068,31.938,31.938,0,0,1,7.025-2.265.395.395,0,0,1,.122.78,31.9,31.9,0,0,0-6.831,2.207,1.878,1.878,0,0,0-1.106,1.452,6.3,6.3,0,0,0,.1,1.99.4.4,0,0,1-.3.474A.417.417,0,0,1,2352.061,2126.366Z" transform="translate(-2335.195 -2115.57)" fill="#fff" opacity="0.58"/>
            <path id="Path_2624" data-name="Path 2624" d="M2225.918,2197.594c9.23-1.3,49.17-6.839,60.967-6.924a2.385,2.385,0,0,1,2.268,1.572,78.754,78.754,0,0,1,4.138,17.216,2.088,2.088,0,0,1-1.443,2.191l-25.876,8.41-9.42,1.206-28.975-2a2.228,2.228,0,0,1-2.044-1.823c-.644-3.572-2.01-11.971-1.733-17.526A2.465,2.465,0,0,1,2225.918,2197.594Z" transform="translate(-2223.763 -2177.691)" fill="#303043"/>
            <path id="Path_2625" data-name="Path 2625" d="M2271.195,2233.813h-.01l-1.181-.082a.148.148,0,0,1-.137-.158.158.158,0,0,1,.158-.137l1.181.082a.148.148,0,0,1-.01.3Zm1.079-.138a.148.148,0,0,1-.019-.295l1.174-.15a.141.141,0,0,1,.166.128.148.148,0,0,1-.128.166l-1.174.15Zm-5.014-.134h-.01l-1.181-.082a.148.148,0,0,1-.137-.158.157.157,0,0,1,.158-.137l1.181.081a.148.148,0,0,1-.01.3Zm-3.936-.272h-.01l-1.181-.081a.148.148,0,0,1-.138-.158.163.163,0,0,1,.158-.137l1.181.081a.148.148,0,0,1-.01.3Zm12.863-.1a.148.148,0,0,1-.019-.295l1.174-.15a.142.142,0,0,1,.166.128.148.148,0,0,1-.128.166l-1.174.15Zm-16.8-.177h-.01l-1.181-.082a.148.148,0,0,1-.137-.157.161.161,0,0,1,.157-.138l1.181.082a.148.148,0,0,1-.01.3Zm-3.936-.271h-.01l-1.181-.082a.148.148,0,0,1-.137-.157.16.16,0,0,1,.158-.138l1.181.082a.148.148,0,0,1-.01.3Zm24.647-.053a.148.148,0,0,1-.019-.295l.076-.01,1.025-.335a.148.148,0,1,1,.092.281l-1.156.358Zm-28.583-.219h-.01l-1.181-.082a.148.148,0,0,1-.137-.158.158.158,0,0,1,.158-.137l1.181.081a.148.148,0,0,1-.01.3Zm-3.936-.272h-.01l-1.181-.081a.148.148,0,0,1-.138-.157.157.157,0,0,1,.158-.138l1.181.081a.148.148,0,0,1-.01.3Zm-3.936-.272h-.01l-1.26-.087-.021-.113a.163.163,0,0,1,.115-.189.149.149,0,0,1,.118.02l1.068.074a.148.148,0,0,1-.01.3Zm40.209-.442a.148.148,0,0,1-.046-.289l1.125-.365a.151.151,0,0,1,.187.095.149.149,0,0,1-.1.187l-1.125.366A.165.165,0,0,1,2283.854,2231.469Zm3.752-1.219a.148.148,0,0,1-.046-.289l1.125-.366a.15.15,0,0,1,.187.1.149.149,0,0,1-.1.187l-1.125.365A.15.15,0,0,1,2287.606,2230.249Zm-45.575-1.177a.148.148,0,0,1-.146-.125c-.06-.374-.121-.766-.183-1.171a.148.148,0,0,1,.293-.045q.092.608.182,1.17a.147.147,0,0,1-.123.169Zm49.327-.042a.148.148,0,0,1-.046-.289l1.125-.366a.148.148,0,0,1,.092.281l-1.126.366A.148.148,0,0,1,2291.358,2229.03Zm3.751-1.219a.148.148,0,0,1-.046-.289l1.126-.366a.148.148,0,0,1,.092.281l-1.125.366A.151.151,0,0,1,2295.11,2227.81Zm3.752-1.219a.148.148,0,0,1-.046-.289l1.125-.366a.148.148,0,1,1,.092.281l-1.125.366A.148.148,0,0,1,2298.861,2226.591Zm3.752-1.219a.148.148,0,0,1-.046-.289l1.125-.366a.148.148,0,0,1,.092.281l-1.125.366A.136.136,0,0,1,2302.613,2225.372Zm-61.151-.206a.148.148,0,0,1-.147-.129c-.051-.387-.1-.781-.147-1.177a.148.148,0,0,1,.294-.036c.047.4.1.788.147,1.173a.148.148,0,0,1-.127.166Zm64.146-1.5a.148.148,0,0,1-.147-.13q-.073-.586-.157-1.169a.148.148,0,0,1,.125-.168.144.144,0,0,1,.168.125q.085.587.158,1.176a.148.148,0,0,1-.129.165Zm-64.582-2.425a.148.148,0,0,1-.147-.135q-.053-.593-.1-1.182a.149.149,0,0,1,.137-.158.151.151,0,0,1,.158.137q.044.586.1,1.178a.147.147,0,0,1-.134.16Zm63.961-1.47a.148.148,0,0,1-.145-.12q-.114-.585-.235-1.158a.148.148,0,0,1,.29-.061q.122.575.235,1.163a.148.148,0,0,1-.117.173A.135.135,0,0,1,2304.987,2219.771Zm-64.2-2.469a.148.148,0,0,1-.148-.145c-.007-.32-.011-.635-.012-.944v-.244a.148.148,0,0,1,.148-.147h0a.149.149,0,0,1,.147.149v.242q0,.46.012.938a.148.148,0,0,1-.145.151Zm63.342-1.384a.148.148,0,0,1-.144-.112q-.146-.583-.295-1.144a.148.148,0,0,1,.286-.076q.149.563.3,1.149a.148.148,0,0,1-.107.179A.166.166,0,0,1,2304.131,2215.918Zm-61.882-1.363a.148.148,0,0,1-.021-.295l1.173-.163a.145.145,0,0,1,.166.126.147.147,0,0,1-.126.167l-1.172.164Zm3.909-.543a.148.148,0,0,1-.02-.295l1.173-.161a.145.145,0,0,1,.166.126.147.147,0,0,1-.126.167l-1.173.162Zm3.911-.535a.148.148,0,0,1-.02-.295l1.174-.159a.148.148,0,0,1,.039.294l-1.173.159Zm3.91-.528a.148.148,0,0,1-.02-.295l1.173-.157a.145.145,0,0,1,.167.127.149.149,0,0,1-.127.167l-1.174.157Zm3.912-.52a.148.148,0,0,1-.019-.295l1.174-.155a.148.148,0,0,1,.039.294l-1.174.154Zm45.193-.317a.148.148,0,0,1-.142-.105c-.118-.393-.234-.771-.347-1.13a.147.147,0,0,1,.1-.185.145.145,0,0,1,.185.1q.17.541.349,1.134a.148.148,0,0,1-.1.184A.143.143,0,0,1,2303.084,2212.113Zm-41.28-.2a.148.148,0,0,1-.019-.295l1.174-.152a.148.148,0,1,1,.038.293l-1.175.152Zm3.914-.5a.148.148,0,0,1-.019-.295l1.175-.148a.144.144,0,0,1,.165.128.148.148,0,0,1-.128.165l-1.174.149Zm3.914-.492a.148.148,0,0,1-.018-.295l1.174-.145a.143.143,0,0,1,.165.128.148.148,0,0,1-.129.165l-1.174.145Zm3.915-.48a.148.148,0,0,1-.017-.295l1.175-.141a.143.143,0,0,1,.165.129.148.148,0,0,1-.129.165l-1.175.141Zm3.918-.466a.148.148,0,0,1-.017-.295l1.176-.137a.144.144,0,0,1,.164.13.147.147,0,0,1-.129.164l-1.176.137Zm3.919-.449a.148.148,0,0,1-.016-.3l1.177-.131a.148.148,0,0,1,.032.295l-1.176.131Zm3.922-.428a.148.148,0,0,1-.016-.3l1.177-.124a.148.148,0,1,1,.031.294l-1.177.124Zm3.925-.4a.148.148,0,0,1-.014-.3l1.179-.114a.145.145,0,0,1,.161.133.147.147,0,0,1-.133.161l-1.178.114Zm12.633-.342a.149.149,0,0,1-.14-.1l-.15-.424q-.259,0-.538.008h0a.148.148,0,0,1,0-.3c.2,0,.4-.007.581-.008a.232.232,0,0,1,.223.145l.17.476a.149.149,0,0,1-.091.189A.157.157,0,0,1,2301.865,2208.358Zm-8.7-.022a.148.148,0,0,1-.013-.3q.605-.053,1.18-.1a.148.148,0,1,1,.024.3q-.573.047-1.178.1Zm3.933-.3a.148.148,0,0,1-.01-.3q.616-.041,1.183-.073a.14.14,0,0,1,.156.139.148.148,0,0,1-.139.156q-.566.033-1.18.073Z" transform="translate(-2238.474 -2192.406)" fill="#fff"/>
            <path id="Path_2626" data-name="Path 2626" d="M2464.8,2368.563l-8.252,1.056a2.149,2.149,0,0,1-2.36-1.6l-1.97-7.819a2.147,2.147,0,0,1,1.816-2.649l9.914-1.269a2.147,2.147,0,0,1,2.423,2.042l.308,8.032A2.149,2.149,0,0,1,2464.8,2368.563Z" transform="translate(-2422.969 -2322.126)" fill="url(#linear-gradient-26)"/>
            <path id="Path_2627" data-name="Path 2627" d="M2476.016,2378.208l-6.281.8a1.636,1.636,0,0,1-1.8-1.219l-1.5-5.951a1.634,1.634,0,0,1,1.383-2.016l7.546-.965a1.634,1.634,0,0,1,1.844,1.554l.234,6.113A1.636,1.636,0,0,1,2476.016,2378.208Z" transform="translate(-2435.391 -2333.103)" fill="#787878"/>
          </g>
          <path id="Path_2628" data-name="Path 2628" d="M2428.724,1941.66a64.4,64.4,0,0,1,1.7,18.777,2.231,2.231,0,0,1-2.063,2c-1.23.086-2.905.2-4.4.285-1.645.095-3.471-.945-4.692-1.814a.734.734,0,0,0-1.082.929,8.971,8.971,0,0,0,2.676,2.884c.622.473,2.69,1.312,2.545,2.243a1.656,1.656,0,0,1-.413.777,9.386,9.386,0,0,1-4.6,2.642,1.274,1.274,0,0,0-.594.3c-.043,1.11,3.37,2.342,4.251,2.635a9.794,9.794,0,0,0,4.105.478,12.139,12.139,0,0,0,8.456-5.59c4.945-7.641,7.5-16.867,8.436-23.924C2438.447,1939.686,2431.5,1940.851,2428.724,1941.66Z" transform="translate(-2311.59 -1854.436)" fill="url(#linear-gradient-27)"/>
          <g id="Group_842" data-name="Group 842" transform="translate(99.974 41.554)">
            <path id="Path_2629" data-name="Path 2629" d="M2407.923,1638.378c3.668-27.712-17.687-49.021-17.687-49.021l-16.925,16.62c5.151,6.421,15.857,16.649,15.857,16.649l2.913,7.66s1.415,4.088,1.776,5.58C2396.634,1635.057,2403.323,1633.779,2407.923,1638.378Z" transform="translate(-2376.44 -1589.357)" fill="#787878"/>
            <path id="Path_2630" data-name="Path 2630" d="M2386.117,1725.188a.787.787,0,0,1-.764-.6c-2.582-10.668-8.025-21.229-16.176-31.389a.787.787,0,1,1,1.227-.985c8.3,10.342,13.841,21.11,16.478,32a.787.787,0,0,1-.58.95A.773.773,0,0,1,2386.117,1725.188Z" transform="translate(-2369.004 -1678.814)" fill="#505058"/>
          </g>
        </g>
        <g id="Group_847" data-name="Group 847" transform="translate(0)">
          <g id="Group_844" data-name="Group 844" transform="translate(0.757 117.575)">
            <path id="Path_2631" data-name="Path 2631" d="M1032.2,3145.594a1.564,1.564,0,0,0-.042-.41c-2.043-8.1-12.186-13.148-12.186-13.148l-4.019.315c-2.311,7.141-2.014,11.52-1.643,13.471.01.054.027.107.041.159A95.359,95.359,0,0,0,1032.2,3145.594Z" transform="translate(-1005.889 -3009.821)" fill="#2c2c2c"/>
            <path id="Path_2632" data-name="Path 2632" d="M1016.367,3238.539a1.743,1.743,0,0,0,1.275,1.288c4.716.992,12.212.193,15.36-.218a1.463,1.463,0,0,0,1.213-1.458A95.359,95.359,0,0,1,1016.367,3238.539Z" transform="translate(-1007.905 -3102.378)" fill="#2c2c2c"/>
            <path id="Path_2633" data-name="Path 2633" d="M1016.252,3087.648l1.7,8.195a1.339,1.339,0,0,0,1.145,1.1,11.337,11.337,0,0,0,2.637-.042,1.684,1.684,0,0,0,1.334-1.979l-1.183-7.276Z" transform="translate(-1007.804 -2971.104)" fill="#ff928e"/>
            <path id="Path_2634" data-name="Path 2634" d="M1238.213,3232.645c-4.439-.124-6.735-.647-7.922-1.132,0,.441,0,.89.014,1.356a.876.876,0,0,0,.836.891l24.372-.157a1.113,1.113,0,0,0,.9-1.62C1253.214,3232.247,1245.075,3232.837,1238.213,3232.645Z" transform="translate(-1194.496 -3096.589)" fill="#2c2c2c"/>
            <path id="Path_2635" data-name="Path 2635" d="M1256.416,3153.664a1.13,1.13,0,0,0-.1-.184c-2.152-3.008-7.634-9-18.467-11.594l-5.2-.164s-2.314,4.022-2.358,11.472c1.187.485,3.483,1.008,7.922,1.132C1245.081,3154.519,1253.22,3153.928,1256.416,3153.664Z" transform="translate(-1194.503 -3018.271)" fill="#2c2c2c"/>
            <path id="Path_2636" data-name="Path 2636" d="M1239.4,3070.494c.082.383,1.163,6.214,1.582,8.475a1.131,1.131,0,0,0,1.016.959,11.907,11.907,0,0,0,3.559-.279,1.538,1.538,0,0,0,1.066-1.613l-.581-9.223Z" transform="translate(-1202.44 -2954.676)" fill="#ff928e"/>
            <path id="Path_2637" data-name="Path 2637" d="M983.153,2183.633s7.149,49.122,12.307,107.576a2.227,2.227,0,0,1-1.841,2.261,27.019,27.019,0,0,1-5.81.672,2.153,2.153,0,0,1-2.052-1.8c-1.757-10.306-14.3-65.62-17.589-77.793,0,0-3.781,51.712-2.572,78.54a1.272,1.272,0,0,1-1.122,1.323,21.356,21.356,0,0,1-4.665-.013,1.7,1.7,0,0,1-1.516-1.445c-1.252-8.722-8.457-60.642-8.151-98.043.017-2.109,2.475-19.438,2.475-19.438Z" transform="translate(-950.133 -2175.474)" fill="#2c2c2c"/>
          </g>
          <path id="Path_2638" data-name="Path 2638" d="M946.378,1629.922a2.022,2.022,0,0,1-1.327-1.7c-.951-9.223-5.553-66.407,23.505-89.931,0,0,1.666-4.36,15.364,6.358s6.364,21.951,3.085,37.446c-3.968,18.75-10.931,34.076-7.85,45.614a1.6,1.6,0,0,1-.979,1.917A45.367,45.367,0,0,1,946.378,1629.922Z" transform="translate(-944.212 -1501.357)" fill="url(#linear-gradient-28)"/>
          <path id="Path_2639" data-name="Path 2639" d="M1144.19,1410.174c-.009.814-11.612,17.295-11.612,17.295s2.083,4.1,12.026,7.432l8.583-17.646Z" transform="translate(-1108.511 -1390.377)" fill="url(#linear-gradient-29)"/>
          <g id="Group_845" data-name="Group 845" transform="translate(20.848)">
            <path id="Path_2640" data-name="Path 2640" d="M1181.925,1336.256s4.129,9.484,4.406,14.462,1.35,8.208-4.406,9.21-10.6-1.865-13.231-6.823c0,0-4.116-7.641-3.193-10.77S1181.925,1336.256,1181.925,1336.256Z" transform="translate(-1157.958 -1325.903)" fill="url(#linear-gradient-30)"/>
            <path id="Path_2641" data-name="Path 2641" d="M1120.089,1278.862l.328-.144a.79.79,0,0,0,.386-1.085c-.812-1.568-2.394-5.162-.35-6,2.634-1.081,13.069-3.208,15.321-6.911a6.889,6.889,0,0,0-2.635-9.458.4.4,0,0,0-.519.169l-.24.454a.391.391,0,0,1-.722-.074h0a.389.389,0,0,0-.7-.1c-.692,1.108-2.56,2.9-7.557,3.826-7.1,1.311-11.8,4.184-11.912,9.091a.392.392,0,0,1-.605.323c-.524-.319-1.363-.469-2.485.473-1.95,1.64-1.152,5.893,3.123,9.392a.388.388,0,0,1-.018.626c-.775.5-1.93,1.7,1.063,3.305a10.08,10.08,0,0,0,6.3,1.372.389.389,0,0,0,.316-.47l-.95-4.313a.391.391,0,0,1,.382-.475Z" transform="translate(-1107.388 -1255.225)" fill="url(#linear-gradient-31)"/>
            <path id="Path_2642" data-name="Path 2642" d="M1172.794,1415.537s-1.575-6.058-4.291-4.36,1.41,6.788,3.593,7.015Z" transform="translate(-1159.913 -1390.99)" fill="url(#linear-gradient-32)"/>
          </g>
          <g id="Group_846" data-name="Group 846" transform="translate(44.114 45.07)">
            <path id="Path_2643" data-name="Path 2643" d="M1289.49,1632.964l.8,21.486a59.072,59.072,0,0,0,6.5,1.844c1.289-4.148,4.126-9.24,6.449-13.026C1294.7,1640.251,1289.49,1632.964,1289.49,1632.964Z" transform="translate(-1289.49 -1629.773)" fill="url(#linear-gradient-33)"/>
            <path id="Path_2644" data-name="Path 2644" d="M1381.916,1630.1c-11.71,12.643-21.187,13.387-28.873,10.67-2.323,3.786-5.161,8.877-6.449,13.026,31.27,6.894,38.634-21.853,38.634-21.853Z" transform="translate(-1339.297 -1627.277)" fill="url(#linear-gradient-34)"/>
            <path id="Path_2645" data-name="Path 2645" d="M1641.645,1609.469a4.29,4.29,0,0,1,3.845-.993c2.5.455,4.719,1.323,6.274,0s2.1.453,2.1.453l-4.658,3.541Z" transform="translate(-1596.652 -1607.986)" fill="url(#linear-gradient-35)"/>
            <path id="Path_2646" data-name="Path 2646" d="M1619.841,1615.866s.924-3.865,3.709-3.335,9.108,3.969,10.738,3.335,3.713-2.15,4.782-1.614l-1.883,2.341s4.841-2.793,5.674-1.077l-8.055,4.533S1623.022,1618.87,1619.841,1615.866Z" transform="translate(-1577.634 -1611.907)" fill="url(#linear-gradient-36)"/>
          </g>
          <path id="Path_2647" data-name="Path 2647" d="M1187.752,1758.244s22.015,18.437,45.787,10.392a5.66,5.66,0,0,1,4.463.336l6.834,3.61a6.1,6.1,0,0,0,8.086-2.264,12.84,12.84,0,0,0,1.921-5.14l-13.373-5.414.986-1.64s-6.529-.553-8.238,4.126c0,0-12.436,5.173-33.409-17.9C1200.808,1744.355,1191.291,1752.447,1187.752,1758.244Z" transform="translate(-1156.636 -1681.861)" fill="url(#linear-gradient-37)"/>
          <path id="Path_2648" data-name="Path 2648" d="M1083.491,1735.09a.372.372,0,0,1-.211-.065c-9.27-6.263-13.63-16.371-13.673-16.473a.377.377,0,0,1,.694-.294c.042.1,4.322,10.008,13.4,16.143a.377.377,0,0,1-.211.689Z" transform="translate(-1053.56 -1658.898)" fill="url(#linear-gradient-38)"/>
          <path id="Path_2649" data-name="Path 2649" d="M1121.053,1598.635a.376.376,0,0,1-.317-.173c-.028-.043-2.86-4.451-8.254-14.109a10.872,10.872,0,0,0-6.479-5.589c-4.373-1.222-8.587,1.123-8.629,1.146a.377.377,0,1,1-.372-.655,13.156,13.156,0,0,1,9.2-1.218,11.589,11.589,0,0,1,6.941,5.948c5.38,9.634,8.2,14.026,8.229,14.07a.377.377,0,0,1-.113.521A.372.372,0,0,1,1121.053,1598.635Z" transform="translate(-1077.316 -1536.454)" fill="url(#linear-gradient-39)"/>
        </g>
      </g>
    </g>
  </g>
</svg>
