<svg xmlns="http://www.w3.org/2000/svg" xmlns:xlink="http://www.w3.org/1999/xlink" width="510.164" height="513.136" viewBox="0 0 510.164 513.136">
  <defs>
    <linearGradient id="linear-gradient" x1="0.879" y1="0.01" x2="0.455" y2="0.913" gradientUnits="objectBoundingBox">
      <stop offset="0" stop-color="#f6a938"/>
      <stop offset="1" stop-color="#f5833c"/>
    </linearGradient>
    <linearGradient id="linear-gradient-2" x1="0.5" y1="0" x2="0.5" y2="1" xlink:href="#linear-gradient"/>
    <linearGradient id="linear-gradient-3" x1="0.568" y1="0.183" x2="0.406" y2="0.856" gradientUnits="objectBoundingBox">
      <stop offset="0" stop-color="#ffc444"/>
      <stop offset="0.996" stop-color="#f1c548"/>
      <stop offset="1" stop-color="#f36f56"/>
    </linearGradient>
    <linearGradient id="linear-gradient-4" x1="0" y1="0.5" x2="1" y2="0.5" xlink:href="#linear-gradient-3"/>
    <clipPath id="clip-path">
      <path id="Path_21714" data-name="Path 21714" d="M2383.685,1486.458c26.564.18,60.429-3.381,92.864-18.052,8.278-3.744,59.412-26.873,53.373-50.162-2.127-8.2-9.552-9.5-12.588-20.418-3.6-12.938,4.525-19.4,10.155-35.524,3.359-9.621,13.191-37.778-3.678-53.367-10.081-9.316-29.239-13.723-43.822-10.319-21.39,4.993-28.744,25.814-40.577,61.258-10.49,31.42-7.795,39.133-15.743,61.626C2417.768,1438.194,2406.66,1461.178,2383.685,1486.458Z" transform="translate(-2383.685 -1297.472)" fill="url(#linear-gradient)"/>
    </clipPath>
    <clipPath id="clip-path-2">
      <path id="Path_21720" data-name="Path 21720" d="M966.618,817.008c-20.387-12.579-48.283-34.069-66.012-68.875-23.25-45.648-8.585-74.092-27.471-155.543-11.942-51.5-20.794-87.322-50.835-101.331-23.542-10.978-57.276-7.247-74.522,10.881-14.339,15.072-18.956,41.862-18.3,60.18.535,14.929,4.6,25.02-2.175,34.321-6.924,9.505-17,6.973-23.785,14.35-13.754,14.96,3.459,51.736,6.241,57.68,30.946,66.117,104.562,99.972,136.852,114.353A442.254,442.254,0,0,0,966.618,817.008Z" transform="translate(-698.252 -485.097)" fill="url(#linear-gradient-2)"/>
    </clipPath>
    <clipPath id="clip-path-3">
      <path id="Path_21725" data-name="Path 21725" d="M723.057,1725.054c-29.965,23.078-71.43,48.2-120.839,59.5-12.609,2.883-90.5,20.69-103.711-10.917-4.652-11.134,2.651-19-3.309-33.99-7.062-17.767-21.836-18.1-42.1-31.535-12.094-8.016-47.487-31.476-41.785-63.678,3.408-19.243,21.336-40.738,40.8-49.435,28.553-12.757,54.82,4.518,98.759,34.516,38.95,26.593,42.535,37.659,70.917,56.318C642.852,1699.679,675.238,1716.175,723.057,1725.054Z" transform="translate(-410.692 -1590.748)" fill="url(#linear-gradient-3)"/>
    </clipPath>
    <linearGradient id="linear-gradient-15" x1="0.5" y1="0" x2="0.5" y2="1" xlink:href="#linear-gradient-3"/>
    <clipPath id="clip-path-4">
      <path id="Path_21731" data-name="Path 21731" d="M1534.594,2404.211c-2.278-3.1-15.981-21.139-37.667-21.89-18.155-.629-32.04,11.2-35.256,13.943-12.951,11.036-11.454,19.838-21.915,23.411-12.422,4.243-21.337-5.845-29.37-.021-5.542,4.018-7.165,13.072-4.918,19.385,3.943,11.082,20.749,16.362,33.495,13.713,17.559-3.65,17.955-20.387,37.893-25.764,11.586-3.125,14.961,1.581,27.284-1.438C1518.45,2422.043,1528.382,2412.15,1534.594,2404.211Z" transform="translate(-1404.49 -2382.297)" fill="url(#linear-gradient-4)"/>
    </clipPath>
    <linearGradient id="linear-gradient-23" x1="0.474" y1="1.105" x2="0.732" y2="-2.446" gradientUnits="objectBoundingBox">
      <stop offset="0" stop-color="#ffc444"/>
      <stop offset="0.996" stop-color="#f36f56"/>
    </linearGradient>
    <linearGradient id="linear-gradient-24" x1="0.903" y1="-2.897" x2="0.419" y2="-2.442" gradientUnits="objectBoundingBox">
      <stop offset="0" stop-color="#444b8c"/>
      <stop offset="0.996" stop-color="#3e4177"/>
    </linearGradient>
    <linearGradient id="linear-gradient-25" x1="1.092" y1="-3.031" x2="0.496" y2="-2.567" xlink:href="#linear-gradient-24"/>
    <linearGradient id="linear-gradient-26" x1="0.637" y1="-0.662" x2="0.22" y2="-0.05" xlink:href="#linear-gradient-24"/>
    <linearGradient id="linear-gradient-27" x1="0.751" y1="-2.647" x2="0.259" y2="-1.266" xlink:href="#linear-gradient-24"/>
    <linearGradient id="linear-gradient-28" x1="0.642" y1="-3.144" x2="0.181" y2="-1.213" xlink:href="#linear-gradient-24"/>
    <linearGradient id="linear-gradient-29" x1="0.545" y1="2.228" x2="0.466" y2="-0.276" xlink:href="#linear-gradient-23"/>
    <linearGradient id="linear-gradient-30" x1="0.68" y1="-0.624" x2="-0.075" y2="-0.088" xlink:href="#linear-gradient-24"/>
    <linearGradient id="linear-gradient-32" x1="0.139" y1="-0.521" x2="0.302" y2="-4.034" xlink:href="#linear-gradient-23"/>
    <linearGradient id="linear-gradient-33" x1="0.429" y1="1.276" x2="0.657" y2="-0.716" gradientUnits="objectBoundingBox">
      <stop offset="0.004" stop-color="#e38ddd"/>
      <stop offset="0.706" stop-color="#ac79ef"/>
      <stop offset="1" stop-color="#9571f6"/>
    </linearGradient>
    <linearGradient id="linear-gradient-34" x1="0.205" y1="0.495" x2="-0.207" y2="0.56" xlink:href="#linear-gradient-23"/>
    <linearGradient id="linear-gradient-35" x1="0.41" y1="0.225" x2="0.753" y2="1.362" xlink:href="#linear-gradient-23"/>
    <linearGradient id="linear-gradient-36" x1="0.489" y1="0.665" x2="0.524" y2="-1.287" xlink:href="#linear-gradient-3"/>
    <linearGradient id="linear-gradient-37" x1="0.41" y1="0.216" x2="0.753" y2="1.366" xlink:href="#linear-gradient-23"/>
    <linearGradient id="linear-gradient-38" x1="0.507" y1="0.166" x2="0.85" y2="1.443" xlink:href="#linear-gradient-3"/>
    <linearGradient id="linear-gradient-39" y1="0.5" x2="1" y2="0.5" gradientUnits="objectBoundingBox">
      <stop offset="0" stop-color="#aa80f9"/>
      <stop offset="0.996" stop-color="#6165d7"/>
    </linearGradient>
  </defs>
  <g id="Group_1748" data-name="Group 1748" transform="translate(-1080.836 -224.864)">
    <g id="Group_1739" data-name="Group 1739" transform="translate(719.49 -230.136)">
      <path id="Path_21709" data-name="Path 21709" d="M483.985,511.623c-17.134,24.529,2.956,64.3-22.468,82.743-24.749,17.957-55.151-11.477-78.475,3.981-34.6,22.93-28.281,127.855,22.305,193.047C420.56,811,433.272,818.628,438.9,840.8c12.089,47.611-30.4,75.933-22.313,99.48,18.2,53.02,298.182,97.511,410.521-61.833,52.467-74.42,60.317-181.883,13.44-263.5C755.842,467.461,522.431,456.585,483.985,511.623Z" transform="translate(0 -21.491)" fill="#f4f7fa"/>
      <g id="Group_1710" data-name="Group 1710" transform="translate(717.679 603.442)">
        <g id="Group_1709" data-name="Group 1709" transform="translate(0 0)">
          <path id="Path_21710" data-name="Path 21710" d="M2383.685,1486.458c26.564.18,60.429-3.381,92.864-18.052,8.278-3.744,59.412-26.873,53.373-50.162-2.127-8.2-9.552-9.5-12.588-20.418-3.6-12.938,4.525-19.4,10.155-35.524,3.359-9.621,13.191-37.778-3.678-53.367-10.081-9.316-29.239-13.723-43.822-10.319-21.39,4.993-28.744,25.814-40.577,61.258-10.49,31.42-7.795,39.133-15.743,61.626C2417.768,1438.194,2406.66,1461.178,2383.685,1486.458Z" transform="translate(-2383.685 -1297.472)" fill="url(#linear-gradient-2)"/>
          <g id="Group_1708" data-name="Group 1708" clip-path="url(#clip-path)">
            <g id="Group_1707" data-name="Group 1707" transform="translate(-113.833 -27.959)" opacity="0.5" style="mix-blend-mode: soft-light;isolation: isolate">
              <path id="Path_21711" data-name="Path 21711" d="M1784.741,1370.238a182.819,182.819,0,0,1-47.1-6.382l.322-1.213c29.07,7.74,57.355,8.4,84.072,1.95,35.589-8.586,66.461-29.907,91.756-63.369,26.35-34.857,40.05-74.154,46.9-100.982,4.743-18.562,3.827-39.117-2.721-61.094l1.2-.358c6.614,22.2,7.534,42.978,2.735,61.763-6.881,26.939-20.642,66.4-47.118,101.428-25.474,33.7-56.584,55.176-92.463,63.833A159.859,159.859,0,0,1,1784.741,1370.238Z" transform="translate(-1737.637 -1138.79)" fill="url(#linear-gradient-2)"/>
              <path id="Path_21712" data-name="Path 21712" d="M2800.247,1358.406l-.355-.439a109.254,109.254,0,0,1-13.564-23.582c-5.569-13.114-11.028-33.222-5.407-54.542l1.213.32c-9.959,37.766,15.111,72.277,18.387,76.569,56.229-36.608,55.672-78.438,54.154-90.413-.042-.328-.063-.533-.062-.609l.628.006.627-.005c0,.069.023.221.053.45,1.546,12.192,2.134,54.856-55.2,91.937Z" transform="translate(-2595.148 -1243.349)" fill="url(#linear-gradient-2)"/>
              <path id="Path_21713" data-name="Path 21713" d="M2703.172,1492.87a148.417,148.417,0,0,1-21.594-1.644l-.332-.049-.144-.3c-.154-.324-15.34-32.934-12.009-77.267l3.358-44.68,1.251.094-3.358,44.68c-3.134,41.717,10.236,72.948,11.754,76.333,19,2.752,46.369,3.206,69.529-10.024,13.925-7.955,19.793-17.227,19.851-17.32l1.066.661c-.24.388-6.052,9.591-20.222,17.707C2742.2,1486.856,2726.154,1492.87,2703.172,1492.87Z" transform="translate(-2504.579 -1328.378)" fill="url(#linear-gradient-2)"/>
            </g>
          </g>
        </g>
      </g>
      <g id="Group_1723" data-name="Group 1723" transform="translate(370.041 460.303)">
        <g id="Group_1714" data-name="Group 1714" transform="translate(50.668)">
          <g id="Group_1713" data-name="Group 1713">
            <path id="Path_21715" data-name="Path 21715" d="M966.618,817.008c-20.387-12.579-48.283-34.069-66.012-68.875-23.25-45.648-8.585-74.092-27.471-155.543-11.942-51.5-20.794-87.322-50.835-101.331-23.542-10.978-57.276-7.247-74.522,10.881-14.339,15.072-18.956,41.862-18.3,60.18.535,14.929,4.6,25.02-2.175,34.321-6.924,9.505-17,6.973-23.785,14.35-13.754,14.96,3.459,51.736,6.241,57.68,30.946,66.117,104.562,99.972,136.852,114.353A442.254,442.254,0,0,0,966.618,817.008Z" transform="translate(-698.252 -485.097)" fill="url(#linear-gradient-2)"/>
            <g id="Group_1712" data-name="Group 1712" clip-path="url(#clip-path-2)">
              <g id="Group_1711" data-name="Group 1711" transform="translate(-68.477 -16.007)" opacity="0.5" style="mix-blend-mode: soft-light;isolation: isolate">
                <path id="Path_21716" data-name="Path 21716" d="M1313.482,750.937c-32.145-5.265-60.579-13.562-84.512-24.663-35.42-16.429-59.91-38.6-72.79-65.892-10.074-21.348-12.99-46.117-16.682-77.475-3.06-26-2.885-44.68-2.73-61.165.2-21.372.358-38.252-6.8-61.16-7.272-23.273-19.924-45.312-37.6-65.5l.944-.827c17.8,20.325,30.532,42.516,37.857,65.957,7.216,23.1,7.057,40.064,6.855,61.546-.154,16.448-.329,35.09,2.722,61.006,3.823,32.466,6.584,55.924,16.571,77.087,12.752,27.021,37.038,48.987,72.183,65.289,23.829,11.053,52.153,19.317,84.187,24.563Z" transform="translate(-954.447 -394.251)" fill="url(#linear-gradient-2)"/>
                <path id="Path_21717" data-name="Path 21717" d="M802.5,770.595l-.333-.625c-23.2-43.457-53.838-67.363-75.457-79.766-23.4-13.428-41.528-16.625-41.708-16.656l.211-1.237c.183.031,18.525,3.267,42.121,16.8,21.655,12.424,52.3,36.31,75.6,79.625a125.125,125.125,0,0,0,28.07-31.2c12.216-19.066,25.193-50.647,17.642-92.824l1.235-.221c7.627,42.6-5.5,74.505-17.849,93.767-13.384,20.87-28.795,31.822-28.949,31.93Z" transform="translate(-618.864 -600.398)" fill="url(#linear-gradient-2)"/>
                <path id="Path_21718" data-name="Path 21718" d="M753.145,1195.379l-.455-.039c-29.674-2.519-66.144-34.829-91.514-61.491a630.957,630.957,0,0,1-48.368-57.731l1.017-.734a629.649,629.649,0,0,0,48.269,57.61c25.088,26.364,61.052,58.282,90.251,61.056,1.553-3.6,12.943-29.531,29.136-53.5,17.44-25.817,66.67-43.529,67.165-43.705l.42,1.183c-.491.175-49.338,17.751-66.545,43.225-17.291,25.6-29.083,53.43-29.2,53.708Z" transform="translate(-559.387 -955.37)" fill="url(#linear-gradient-2)"/>
                <path id="Path_21719" data-name="Path 21719" d="M557.9,1723.118a349.321,349.321,0,0,1-46.331-3.176c-32.656-4.425-80.3-15.753-121.8-44.591l-80.153-55.687.716-1.031,80.153,55.687c41.292,28.688,88.714,39.965,121.224,44.373a325.282,325.282,0,0,0,60.063,2.8c-9.725-11.385-15.026-24.258-15.76-38.281-.6-11.514,1.86-23.815,7.317-36.56a140.381,140.381,0,0,1,24.358-37.477l.9.87a139.03,139.03,0,0,0-24.122,37.132c-5.375,12.563-7.8,24.671-7.2,35.988.743,14.12,6.219,27.057,16.277,38.453l.827.938-1.246.1C573.005,1722.674,567.4,1723.118,557.9,1723.118Z" transform="translate(-309.616 -1395.112)" fill="url(#linear-gradient-2)"/>
              </g>
            </g>
          </g>
        </g>
        <g id="Group_1718" data-name="Group 1718" transform="translate(0 194.814)">
          <g id="Group_1717" data-name="Group 1717">
            <path id="Path_21721" data-name="Path 21721" d="M723.057,1725.054c-29.965,23.078-71.43,48.2-120.839,59.5-12.609,2.883-90.5,20.69-103.711-10.917-4.652-11.134,2.651-19-3.309-33.99-7.062-17.767-21.836-18.1-42.1-31.535-12.094-8.016-47.487-31.476-41.785-63.678,3.408-19.243,21.336-40.738,40.8-49.435,28.553-12.757,54.82,4.518,98.759,34.516,38.95,26.593,42.535,37.659,70.917,56.318C642.852,1699.679,675.238,1716.175,723.057,1725.054Z" transform="translate(-410.692 -1590.748)" fill="url(#linear-gradient-2)"/>
            <g id="Group_1716" data-name="Group 1716" clip-path="url(#clip-path-3)">
              <g id="Group_1715" data-name="Group 1715" transform="translate(-21.521 -19.472)" opacity="0.5" style="mix-blend-mode: soft-light;isolation: isolate">
                <path id="Path_21722" data-name="Path 21722" d="M695.313,1637.943q-35.232,0-73.056-10.611c-60.136-16.9-109.69-49.779-140.672-74.383-21.58-17.138-38.4-41.453-50-72.271l1.174-.442c11.516,30.6,28.207,54.735,49.607,71.73,30.892,24.533,80.3,57.313,140.231,74.158,57.557,16.176,110.98,13.763,158.785-7.173,35.884-15.715,67.426-40.843,93.749-74.686l.99.77c-26.453,34.01-58.159,59.265-94.236,75.065A213.765,213.765,0,0,1,695.313,1637.943Z" transform="translate(-406.383 -1480.236)" fill="url(#linear-gradient-15)"/>
                <path id="Path_21723" data-name="Path 21723" d="M411.218,1650.585c-82.449,0-114.2-43.242-122.324-57.32-.175-.3-.286-.5-.341-.577l.994-.765a7.668,7.668,0,0,1,.434.715c8.617,14.931,44.136,63.02,139.753,56a156.823,156.823,0,0,0-4.9-37.471c-4.922-19.424-15.906-46.579-40.289-65.637l.773-.989c24.673,19.286,35.773,46.729,40.741,66.354a155.319,155.319,0,0,1,4.919,38.345l-.018.563-.562.043Q420.387,1650.6,411.218,1650.585Z" transform="translate(-288.553 -1533.207)" fill="url(#linear-gradient-15)"/>
                <path id="Path_21724" data-name="Path 21724" d="M816.2,1679.318c-15.211,0-24.515-3.484-24.632-3.529l.449-1.172c.146.056,14.823,5.536,37.518,2.565,20.908-2.737,53.084-13.408,87.76-48.691-1-4.381-12.589-51.842-52.5-96.93l-42.281-47.769.94-.832,42.281,47.769c41.906,47.346,52.753,97.33,52.857,97.829l.069.328-.235.24c-35.049,35.764-67.643,46.555-88.814,49.311A103.958,103.958,0,0,1,816.2,1679.318Z" transform="translate(-702.934 -1482.48)" fill="url(#linear-gradient-15)"/>
              </g>
            </g>
          </g>
        </g>
        <g id="Group_1722" data-name="Group 1722" transform="translate(175.106 334.283)">
          <g id="Group_1721" data-name="Group 1721">
            <path id="Path_21726" data-name="Path 21726" d="M1534.594,2404.211c-2.278-3.1-15.981-21.139-37.667-21.89-18.155-.629-32.04,11.2-35.256,13.943-12.951,11.036-11.454,19.838-21.915,23.411-12.422,4.243-21.337-5.845-29.37-.021-5.542,4.018-7.165,13.072-4.918,19.385,3.943,11.082,20.749,16.362,33.495,13.713,17.559-3.65,17.955-20.387,37.893-25.764,11.586-3.125,14.961,1.581,27.284-1.438C1518.45,2422.043,1528.382,2412.15,1534.594,2404.211Z" transform="translate(-1404.49 -2382.297)" fill="url(#linear-gradient-4)"/>
            <g id="Group_1720" data-name="Group 1720" clip-path="url(#clip-path-4)">
              <g id="Group_1719" data-name="Group 1719" transform="translate(-8.804 -3.025)" opacity="0.5" style="mix-blend-mode: soft-light;isolation: isolate">
                <path id="Path_21727" data-name="Path 21727" d="M1393.692,2513.466c-10.772,0-23.889-5.374-39.166-16.069l.36-.514c20.464,14.328,36.968,19.039,49.054,14.006,7.616-3.172,11.39-9.153,15.385-15.485,4.5-7.125,9.144-14.493,19.692-18.01,8.112-2.7,17.507-1.41,36.224,1.17a235.264,235.264,0,0,1,27.781,5.552l-.161.607a234.549,234.549,0,0,0-27.7-5.537c-18.622-2.566-27.968-3.854-35.941-1.2-10.336,3.446-14.923,10.718-19.36,17.75-4.049,6.418-7.875,12.481-15.674,15.729A27.03,27.03,0,0,1,1393.692,2513.466Z" transform="translate(-1354.526 -2456.376)" fill="url(#linear-gradient-15)"/>
                <path id="Path_21728" data-name="Path 21728" d="M1454.493,2591.992l-.142-.611c22.232-5.16,28.265-17.665,28.8-18.88-2-6.868-7.819-12.675-12.365-16.344a65.365,65.365,0,0,0-9.579-6.431l.29-.556c.184.1,18.444,9.746,22.288,23.266l.029.1-.039.1C1483.723,2572.774,1478.072,2586.519,1454.493,2591.992Z" transform="translate(-1436.762 -2516.742)" fill="url(#linear-gradient-15)"/>
                <path id="Path_21729" data-name="Path 21729" d="M1651.652,2520.646c-2.235-6.719-.216-16.665,6-29.561a144.826,144.826,0,0,1,9.845-17.125c-10.041-8.182-34.594,11.246-34.842,11.444l-.392-.49a96.8,96.8,0,0,1,13.95-9c10.195-5.278,17.566-6.033,21.91-2.244l.211.185-.161.23c-.212.305-21.143,30.688-15.928,46.365Z" transform="translate(-1583.328 -2452.589)" fill="url(#linear-gradient-15)"/>
                <path id="Path_21730" data-name="Path 21730" d="M1825.454,2423.81c-5.914-22.7,24.51-35.218,28.142-36.622-10.436-18-36.5-21.4-36.765-21.437l.077-.623c.268.033,26.95,3.522,37.416,22.069l.183.324-.35.125c-.343.123-34.207,12.555-28.1,36.006Z" transform="translate(-1735.374 -2365.128)" fill="url(#linear-gradient-15)"/>
              </g>
            </g>
          </g>
        </g>
      </g>
      <g id="Group_1724" data-name="Group 1724" transform="translate(469.442 498.186)">
        <path id="Path_21732" data-name="Path 21732" d="M1051.644,772c3.467,1.76,7.823.144,9.729-3.61s.641-8.225-2.827-9.985c-.18-.091-.363-.168-.547-.241a43.934,43.934,0,0,0,1.456-6.265c.2,0,.4,0,.6-.022a7.977,7.977,0,0,0,7.013-8.119,6.755,6.755,0,0,0-7.313-6.843c-.207.019-.41.051-.611.087a40.376,40.376,0,0,0-1.694-5.983c.182-.106.363-.216.54-.34a7.977,7.977,0,0,0,2.417-10.452,6.756,6.756,0,0,0-9.839-1.866c-.173.122-.336.253-.5.386a35.768,35.768,0,0,0-4.389-4.1c.111-.183.22-.368.319-.562,1.906-3.754,4.4-7.855.9-9.561-8.083-3.946-11.552-.568-13.458,3.186-.1.194-.184.392-.266.59a35.744,35.744,0,0,0-5.9-1.126c.013-.209.022-.418.018-.63-.083-4.131,1.143-6.367-2.828-6.444-8.659-.168-11.58,3.59-11.5,7.721,0,.216.022.427.044.637a40.318,40.318,0,0,0-5.83,2.163c-.09-.184-.184-.367-.291-.545a6.755,6.755,0,0,0-9.839-1.866,7.977,7.977,0,0,0-2.417,10.452c.1.174.22.337.337.5a43.921,43.921,0,0,0-4.2,4.872c-.168-.105-.338-.208-.518-.3-3.467-1.76-7.823-.144-9.729,3.61s-.641,8.225,2.827,9.985c.18.091.363.168.547.241a43.966,43.966,0,0,0-1.455,6.265c-.2,0-.4,0-.6.022a7.977,7.977,0,0,0-7.012,8.119,6.755,6.755,0,0,0,7.312,6.842c.207-.018.41-.051.612-.087a40.3,40.3,0,0,0,1.693,5.983c-.182.107-.363.217-.54.34a7.977,7.977,0,0,0-2.417,10.453c2.05,3.4,8.835,4.982,12.219,2.611.174-.122-2.044-1-1.883-1.131a35.737,35.737,0,0,0,4.389,4.1c-.111.183-.221.368-.319.563-1.906,3.754-.641,8.225,2.826,9.985s7.823.144,9.729-3.61c.1-.194.184-.392.266-.59a35.737,35.737,0,0,0,5.9,1.126c-.012.209-.022.418-.018.63a6.756,6.756,0,0,0,7.313,6.842,7.977,7.977,0,0,0,7.012-8.119c0-.216-.022-.427-.044-.637a40.315,40.315,0,0,0,5.83-2.163c.09.184.184.367.291.545a6.755,6.755,0,0,0,9.839,1.866,7.977,7.977,0,0,0,2.417-10.453c-.1-.174-.22-.337-.337-.5a43.97,43.97,0,0,0,4.2-4.872C1051.294,771.806,1051.464,771.909,1051.644,772Zm-43.222.548c-12.589-6.392-17.183-22.623-10.263-36.254s22.736-19.5,35.324-13.108,17.183,22.623,10.263,36.254S1021.011,778.94,1008.422,772.548Z" transform="translate(-974.836 -700.096)" fill="#d8dee8"/>
        <path id="Path_21733" data-name="Path 21733" d="M1232.6,788.246a7.977,7.977,0,0,0,7.012-8.119,6.755,6.755,0,0,0-7.313-6.842c-.207.019-.41.051-.611.087a40.344,40.344,0,0,0-1.694-5.983c.182-.106.363-.216.54-.34,3.384-2.371,7.571-8.1,5.184-11.273-4.532-6.023-9.222-3.416-12.606-1.045-.173.122-.337.253-.5.386a35.738,35.738,0,0,0-4.389-4.1c.112-.183.221-.368.319-.562a7.876,7.876,0,0,0,.444-6.211q-4.9,8.63-9.661,17.34c10.043,7.359,13.24,21.862,6.963,34.226-5.32,10.477-15.894,16.36-26.219,15.623-.461,1.194-.913,2.4-1.406,3.578-1.338,3.21-2.859,6.354-4.381,9.494q1.436.271,2.884.424c-.013.209-.022.418-.018.63.083,4.131,2.591,7.642,9.76,7.261,3.966-.21,4.647-4.407,4.565-8.538,0-.216-.022-.427-.044-.637a40.331,40.331,0,0,0,5.83-2.163c.09.184.184.367.291.545,2.05,3.4,9.16,4.847,12.544,2.476s1.761-7.661-.288-11.062c-.1-.174-.22-.337-.337-.5a43.975,43.975,0,0,0,4.2-4.872c.168.105.338.208.517.3,3.467,1.761,7.823.144,9.729-3.61s.641-8.225-2.827-9.985c-.18-.091-.363-.168-.547-.241a43.9,43.9,0,0,0,1.456-6.265C1232.2,788.267,1232.4,788.264,1232.6,788.246Z" transform="translate(-1147.381 -736.466)" fill="#d8dee8"/>
        <path id="Path_21734" data-name="Path 21734" d="M1072.808,772.442c3.467,1.76,7.823.144,9.729-3.61s.641-8.225-2.827-9.985c-.18-.091-.363-.168-.547-.241a43.968,43.968,0,0,0,1.456-6.266c.2,0,.4,0,.6-.022a7.977,7.977,0,0,0,7.012-8.119,6.755,6.755,0,0,0-7.312-6.842c-.207.018-.41.051-.612.087a40.313,40.313,0,0,0-1.694-5.983c.182-.107.363-.217.54-.341a7.977,7.977,0,0,0,2.417-10.452,6.756,6.756,0,0,0-9.839-1.866c-.173.122-.337.253-.5.386a35.752,35.752,0,0,0-4.389-4.1c.111-.183.221-.368.319-.562,1.906-3.754.64-8.225-2.827-9.985s-7.823-.144-9.729,3.61c-.1.194-.184.392-.266.59a35.757,35.757,0,0,0-5.9-1.126c.012-.209.022-.418.018-.63a6.755,6.755,0,0,0-7.313-6.842,7.977,7.977,0,0,0-7.012,8.119c0,.216.022.427.044.637a40.338,40.338,0,0,0-5.83,2.163c-.09-.184-.184-.367-.291-.545a6.755,6.755,0,0,0-9.839-1.866,7.977,7.977,0,0,0-2.417,10.453c.105.174.22.337.337.5a43.953,43.953,0,0,0-4.2,4.872c-.168-.105-.338-.208-.517-.3-3.467-1.761-7.823-.144-9.729,3.61s-.64,8.225,2.827,9.985c.18.091.363.168.547.241a43.951,43.951,0,0,0-1.456,6.266c-.2,0-.4,0-.6.022A7.977,7.977,0,0,0,996,752.421a6.755,6.755,0,0,0,7.312,6.842c.207-.018.41-.051.612-.087a40.329,40.329,0,0,0,1.694,5.983c-.182.106-.363.216-.54.34a7.977,7.977,0,0,0-2.417,10.452,6.755,6.755,0,0,0,9.839,1.866c.174-.122.337-.253.5-.386a35.751,35.751,0,0,0,4.389,4.1c-.112.183-.221.368-.319.563-1.906,3.754-.641,8.225,2.827,9.985s7.823.144,9.729-3.61c.1-.194.184-.392.266-.59a35.74,35.74,0,0,0,5.9,1.126c-.012.209-.022.418-.018.63a6.756,6.756,0,0,0,7.312,6.842,7.977,7.977,0,0,0,7.013-8.119c0-.216-.022-.427-.044-.637a40.326,40.326,0,0,0,5.83-2.163c.09.184.184.367.291.545a6.755,6.755,0,0,0,9.839,1.866,7.977,7.977,0,0,0,2.417-10.453c-.105-.174-.22-.337-.337-.5a43.907,43.907,0,0,0,4.2-4.872C1072.459,772.248,1072.629,772.351,1072.808,772.442Zm-43.222.548c-12.589-6.391-17.183-22.623-10.263-36.254s22.736-19.5,35.325-13.108,17.183,22.623,10.263,36.254S1042.175,779.382,1029.587,772.991Z" transform="translate(-992.272 -700.114)" fill="#fff"/>
      </g>
      <g id="Group_1727" data-name="Group 1727" transform="translate(545.616 455)">
        <path id="Path_21735" data-name="Path 21735" d="M2562,521.7c-3.4-11.005-8.709-16.327-12.754-19.14-8.667-6.027-20.414-6.716-20.087-9.026.142-1,2.465-1.684,3.161-1.889,3.4-1,5.3.718,7.2-.413,1.411-.843,1.794-2.659,2.074-4.081,1.417-7.2-2.737-16.057-4.945-22.552-.154-.453-.5-1.5-.16-1.745.368-.267,1.345.529,1.675.8,3.514,2.862,7.9,15.64,7.9,15.641a22.623,22.623,0,0,0-1.316-5.633c-2.3-7.263-4.805-10.633-4.586-16.394.042-1.125.089-2.137.479-2.253,1.971-.584,9.057,22.888,10.367,22.455.329-.109.146-1.674.054-2.454-.853-7.28-4.859-9.454-4.519-15.338.053-.926.131-2.277.638-2.419,1.7-.48,6.211,13.24,8.451,19.515a299.61,299.61,0,0,1,11.146,39.892Z" transform="translate(-2331.458 -455)" fill="url(#linear-gradient-23)"/>
        <path id="Path_21736" data-name="Path 21736" d="M1849.772,570.809c-6.268-1.958-7.95-9.213-8.615-12.081-1.571-6.78-.961-18.484,6.139-21.729,5.7-2.607,12.078,1.855,12.868,2.425,8.037,5.8,6.527,16.907,6.351,18.07-.4,2.6-1.214,7.977-5.939,11.316C1860.244,569.045,1855.194,572.5,1849.772,570.809Z" transform="translate(-1764.101 -521.882)" fill="url(#linear-gradient-24)"/>
        <g id="Group_1725" data-name="Group 1725" transform="translate(76.345 15.529)" opacity="0.3" style="mix-blend-mode: multiply;isolation: isolate">
          <path id="Path_21737" data-name="Path 21737" d="M1858.082,559.844c-4.155-4.118-10.029-2.315-12.505-6.063-1.237-1.871-1.554-5.029.941-10.649-6.357,3.724-6.867,14.8-5.356,21.317.665,2.867,2.346,10.123,8.615,12.081,5.421,1.693,10.471-1.764,10.8-2,.208-.147.4-.3.6-.453C1861.871,568.688,1861.475,563.207,1858.082,559.844Z" transform="translate(-1840.45 -543.132)" fill="url(#linear-gradient-25)"/>
        </g>
        <path id="Path_21738" data-name="Path 21738" d="M1747.7,838.625s-25.228-78.461-25.142-107.979,25.833-40.991,37.265-43.719,35.664.273,43.125,33.5,2.074,107.7,2.074,107.7Z" transform="translate(-1666.984 -645.424)" fill="url(#linear-gradient-26)"/>
        <path id="Path_21739" data-name="Path 21739" d="M1779.1,958.406c18.175-2.223,22.2-19.382,38.911-21.366a25.268,25.268,0,0,1,5.45-.053c-.251-3.255-.563-6.385-.945-9.345a25.333,25.333,0,0,0-6.106-.021c-16.709,1.981-20.737,19.14-38.914,21.359-14.825,1.81-21.439-8.466-33.983-3.995a24.429,24.429,0,0,0-8.263,5.064c.522,2.983,1.125,6.086,1.791,9.266a24.352,24.352,0,0,1,8.078-4.9C1757.666,949.945,1764.279,960.219,1779.1,958.406Z" transform="translate(-1677.444 -844.202)" fill="#fff" opacity="0.3" style="mix-blend-mode: soft-light;isolation: isolate"/>
        <path id="Path_21740" data-name="Path 21740" d="M1819.85,1176.9c-13.595,1.555-19.812-8.8-31.274-4.553a20.353,20.353,0,0,0-5.745,3.318c6.864,26.331,14.522,50.151,14.522,50.151l57.321-10.492s2.11-29.187,1.859-59.166q-.632.033-1.225.1C1839.983,1157.955,1836.519,1175,1819.85,1176.9Z" transform="translate(-1716.638 -1032.618)" opacity="0.8" fill="url(#linear-gradient-27)" style="mix-blend-mode: multiply;isolation: isolate"/>
        <path id="Path_21741" data-name="Path 21741" d="M1819.421,990.339c-15.328,1.686-18.794,18.726-35.466,20.623-13.6,1.547-19.817-8.813-31.281-4.572a21.164,21.164,0,0,0-7.355,4.741c1.855,9,4.182,18.621,6.609,27.933a20.343,20.343,0,0,1,5.745-3.318c11.462-4.247,17.679,6.108,31.274,4.552,16.669-1.907,20.133-18.947,35.458-20.642C1824.8,1019.612,1820.906,990.176,1819.421,990.339Z" transform="translate(-1685.737 -896.013)" opacity="0.3" fill="url(#linear-gradient-28)" style="mix-blend-mode: multiply;isolation: isolate"/>
        <path id="Path_21742" data-name="Path 21742" d="M1410.926,960.351c-11.06-14.409,4.158-47.031,20.864-65.41,19.435-21.382,44.316-27.268,60.1-30.782,52.252-11.63,69.015,12.009,95.39-1.55,40.912-21.033,31.934-94.13,50.42-96.149,15.18-1.659,39.1,45.7,32.493,92.661-5.124,36.441-39.782,72.287-74.773,88.247-25.385,11.579-21.53,8.5-79.331,11.844C1449.091,963.082,1421.828,974.555,1410.926,960.351Z" transform="translate(-1407.16 -711.546)" fill="#32356b"/>
        <path id="Path_21743" data-name="Path 21743" d="M1777.383,1140.12c10.725-3.864,28.258-4.737,28.074-43.059,0,0,22.213-1.405,23.055-1.127.8.263-5.885,38.277,25.158,38.018,2.111-.018,2.665,2.949.971,4.292-5.613,4.447-18.274,11.334-37.021,11.552-11.866.138-25.4,2.8-40.3-5.043C1775.28,1143.679,1775.133,1140.931,1777.383,1140.12Z" transform="translate(-1710.799 -982.973)" fill="url(#linear-gradient-29)"/>
        <path id="Path_21744" data-name="Path 21744" d="M2060.525,954.869c-6.286.079-4.106-53.037-22.909-131.014-3.9-16.175-7.725-29.362-10.432-38.221l20.046-2.566c11.611,22.315,28.9,63.838,25.612,117.643C2071.294,926.009,2065.148,954.811,2060.525,954.869Z" transform="translate(-1917.937 -725.263)" fill="url(#linear-gradient-30)"/>
        <path id="Path_21745" data-name="Path 21745" d="M2060.525,954.869c-6.286.079-4.106-53.037-22.909-131.014-3.9-16.175-7.725-29.362-10.432-38.221l20.046-2.566c11.611,22.315,28.9,63.838,25.612,117.643C2071.294,926.009,2065.148,954.811,2060.525,954.869Z" transform="translate(-1917.937 -725.263)" fill="url(#linear-gradient-30)"/>
        <path id="Path_21746" data-name="Path 21746" d="M1820.257,869.837c.851,4.995,4.781,42.051,33.035,35.927,25.8-5.593,19.01-31.792,15.979-45.024,0,0-3.227-11.783-12.5-13.328,0,0,9.215,5.143,11.621,20.04,0,0-3.353-7.5-22.329-3.68-18.991,3.823-21.508,13.149-21.508,13.149s-5.786-13.6,2.588-23.124C1827.142,853.8,1820.663,857.373,1820.257,869.837Z" transform="translate(-1747.47 -778.269)" fill="url(#linear-gradient-32)"/>
        <g id="Group_1726" data-name="Group 1726" transform="translate(146.212 87.948)" opacity="0.3" style="mix-blend-mode: multiply;isolation: isolate">
          <path id="Path_21747" data-name="Path 21747" d="M2347.575,954.14c3.539,20.537-.257,33.8-5.792,42.732-12.465,20.107-34.5,19.49-61.634,51.228-15.188,17.767-16.172,27.19-25.614,40.822a94.229,94.229,0,0,1-17.562,19.008c20.394.568,24.338,2.162,42.05-5.916,34.99-15.96,69.648-51.806,74.772-88.247C2356.8,992.427,2353.494,971.007,2347.575,954.14Z" transform="translate(-2236.973 -954.14)" fill="url(#linear-gradient-33)"/>
        </g>
      </g>
      <g id="Group_1731" data-name="Group 1731" transform="translate(439.25 688.306)">
        <g id="Group_1728" data-name="Group 1728">
          <path id="Path_21748" data-name="Path 21748" d="M1173.226,1791.4l-355.99-12.281a13.294,13.294,0,0,0-13.752,13.286V2021.84a13.293,13.293,0,0,0,14.288,13.256l355.99-26.708a13.294,13.294,0,0,0,12.3-13.257V1804.685A13.293,13.293,0,0,0,1173.226,1791.4Z" transform="translate(-803.484 -1779.11)" fill="url(#linear-gradient-34)"/>
        </g>
        <g id="Group_1729" data-name="Group 1729" transform="translate(6.119)">
          <path id="Path_21749" data-name="Path 21749" d="M1207.955,1791.4l-355.99-12.281a13.294,13.294,0,0,0-13.752,13.286V2021.84A13.293,13.293,0,0,0,852.5,2035.1l355.99-26.708a13.294,13.294,0,0,0,12.3-13.257V1804.685A13.294,13.294,0,0,0,1207.955,1791.4Z" transform="translate(-838.213 -1779.11)" fill="url(#linear-gradient-35)"/>
        </g>
        <g id="Group_1730" data-name="Group 1730" transform="translate(6.119 0)">
          <path id="Path_21750" data-name="Path 21750" d="M1090.761,1918.986l149.167-123.2a13.246,13.246,0,0,0-9.4-4.39l-355.99-12.281a13.233,13.233,0,0,0-8.925,3.042l199.413,137.923A21.349,21.349,0,0,0,1090.761,1918.986Z" transform="translate(-860.783 -1779.111)" fill="url(#linear-gradient-36)"/>
          <path id="Path_21751" data-name="Path 21751" d="M1068.191,1933.244a21.348,21.348,0,0,1-25.738,1.1L843.04,1796.419a13.257,13.257,0,0,0-4.827,10.244V2036.1a13.294,13.294,0,0,0,14.288,13.256l355.99-26.708a13.294,13.294,0,0,0,12.3-13.257V1818.944a13.237,13.237,0,0,0-3.433-8.9Z" transform="translate(-838.213 -1793.369)" fill="url(#linear-gradient-37)"/>
        </g>
        <path id="Path_21752" data-name="Path 21752" d="M1217.358,1810.048l-149.167,123.2a21.348,21.348,0,0,1-25.738,1.1L843.04,1796.419a13.257,13.257,0,0,0-4.827,10.244V1840.5a38.219,38.219,0,0,1,18.257-3.195c13.7,1.145,16.971,9.7,43.2,22.043,24.528,11.543,27.1,6.623,37.914,14.989,20.831,16.116,11.721,34.718,29.978,52.021,19.012,18.018,35.415,4.032,62.6,21.161,28.728,18.1,19.531,39.464,43.2,52.021,33.166,17.593,67.033-15.952,95.225,1.763,8.524,5.356,13.974,13.8,17.487,23.024l22.407-1.681a13.294,13.294,0,0,0,12.3-13.257V1818.944A13.237,13.237,0,0,0,1217.358,1810.048Z" transform="translate(-832.094 -1793.369)" opacity="0.37" fill="url(#linear-gradient-38)" style="mix-blend-mode: multiply;isolation: isolate"/>
      </g>
      <g id="Group_1732" data-name="Group 1732" transform="translate(520.977 597.335)">
        <path id="Path_21753" data-name="Path 21753" d="M1303.6,1296.777a3.613,3.613,0,0,0,3.26-6.422c-.085-.043-.172-.079-.258-.114a20.778,20.778,0,0,0,.688-2.959c.094,0,.188,0,.284-.01a3.768,3.768,0,0,0,3.313-3.835,3.191,3.191,0,0,0-3.454-3.232c-.1.009-.194.024-.289.041a19.062,19.062,0,0,0-.8-2.826c.086-.05.172-.1.255-.161a3.769,3.769,0,0,0,1.142-4.937,3.191,3.191,0,0,0-4.648-.881c-.082.057-.159.119-.235.182a16.876,16.876,0,0,0-2.073-1.935c.053-.087.1-.174.151-.266.9-1.773,2.077-3.711.426-4.516-3.818-1.864-5.457-.268-6.357,1.505-.047.092-.087.185-.125.279a16.905,16.905,0,0,0-2.786-.532c.006-.1.01-.2.008-.3-.039-1.952.54-3.008-1.336-3.044-4.09-.079-5.47,1.7-5.431,3.648,0,.1.011.2.021.3a19.064,19.064,0,0,0-2.754,1.022c-.042-.087-.087-.174-.137-.258a3.191,3.191,0,0,0-4.648-.881,3.768,3.768,0,0,0-1.142,4.937c.049.082.1.159.159.235a20.767,20.767,0,0,0-1.984,2.3c-.079-.05-.159-.1-.244-.141a3.613,3.613,0,0,0-3.261,6.422c.085.043.172.079.258.114a20.737,20.737,0,0,0-.688,2.959c-.094,0-.188,0-.284.01a3.768,3.768,0,0,0-3.312,3.835,3.191,3.191,0,0,0,3.454,3.232c.1-.009.193-.024.289-.041a19.024,19.024,0,0,0,.8,2.826c-.086.05-.172.1-.255.161a3.768,3.768,0,0,0-1.141,4.937c.968,1.607,4.173,2.353,5.772,1.234.082-.057-.965-.471-.889-.534a16.877,16.877,0,0,0,2.073,1.935c-.053.086-.1.174-.151.266a3.336,3.336,0,1,0,5.931,3.012c.047-.092.087-.185.125-.279a16.87,16.87,0,0,0,2.786.532c-.006.1-.01.2-.008.3a3.191,3.191,0,0,0,3.454,3.232,3.768,3.768,0,0,0,3.312-3.835c0-.1-.01-.2-.021-.3a19.031,19.031,0,0,0,2.754-1.022c.042.087.087.174.137.258a3.191,3.191,0,0,0,4.648.881,3.768,3.768,0,0,0,1.142-4.937c-.05-.082-.1-.159-.159-.235a20.8,20.8,0,0,0,1.984-2.3C1303.434,1296.685,1303.515,1296.734,1303.6,1296.777Zm-20.417.259c-5.947-3.019-8.117-10.687-4.848-17.125s10.74-9.211,16.686-6.192,8.117,10.686,4.848,17.125S1289.129,1300.055,1283.183,1297.036Z" transform="translate(-1267.318 -1262.811)" fill="#d8dee8"/>
        <path id="Path_21754" data-name="Path 21754" d="M1389.078,1304.451a3.769,3.769,0,0,0,3.313-3.835,3.191,3.191,0,0,0-3.454-3.232c-.1.009-.193.024-.289.041a19.06,19.06,0,0,0-.8-2.826c.086-.05.171-.1.255-.161,1.6-1.12,3.576-3.826,2.448-5.325-2.141-2.845-4.356-1.614-5.954-.494-.082.057-.159.119-.235.182a16.892,16.892,0,0,0-2.073-1.935c.053-.086.1-.174.151-.266a3.721,3.721,0,0,0,.209-2.934q-2.316,4.077-4.563,8.191c4.744,3.476,6.254,10.327,3.289,16.167a13.094,13.094,0,0,1-12.385,7.38c-.218.564-.431,1.131-.664,1.69-.632,1.516-1.35,3-2.07,4.485q.678.128,1.362.2c-.006.1-.01.2-.008.3.039,1.952,1.224,3.61,4.61,3.43,1.873-.1,2.2-2.082,2.156-4.033,0-.1-.01-.2-.021-.3a19.023,19.023,0,0,0,2.754-1.022c.042.087.087.174.137.258.968,1.607,4.327,2.289,5.925,1.169s.832-3.619-.136-5.225c-.05-.082-.1-.159-.159-.235a20.764,20.764,0,0,0,1.984-2.3c.079.05.159.1.244.141a3.612,3.612,0,0,0,3.26-6.422c-.085-.043-.172-.079-.258-.114a20.777,20.777,0,0,0,.687-2.959C1388.888,1304.461,1388.982,1304.459,1389.078,1304.451Z" transform="translate(-1348.822 -1279.991)" fill="#d8dee8"/>
        <path id="Path_21755" data-name="Path 21755" d="M1313.6,1296.986a3.613,3.613,0,0,0,3.261-6.422c-.085-.043-.172-.079-.258-.114a20.825,20.825,0,0,0,.688-2.96c.094,0,.188,0,.284-.01a3.768,3.768,0,0,0,3.312-3.835,3.191,3.191,0,0,0-3.454-3.232c-.1.009-.193.024-.289.041a19.108,19.108,0,0,0-.8-2.826c.086-.05.171-.1.255-.161a3.768,3.768,0,0,0,1.142-4.937,3.191,3.191,0,0,0-4.647-.881c-.082.057-.159.12-.235.182a16.884,16.884,0,0,0-2.073-1.935c.053-.086.1-.174.151-.266a3.336,3.336,0,1,0-5.931-3.011c-.046.092-.087.185-.125.279a16.9,16.9,0,0,0-2.786-.532c.006-.1.01-.2.008-.3a3.191,3.191,0,0,0-3.454-3.232,3.768,3.768,0,0,0-3.312,3.835c0,.1.011.2.021.3a19.031,19.031,0,0,0-2.754,1.022c-.043-.087-.087-.173-.137-.258a3.191,3.191,0,0,0-4.648-.881,3.768,3.768,0,0,0-1.142,4.937c.05.082.1.159.159.235a20.777,20.777,0,0,0-1.984,2.3c-.079-.05-.16-.1-.244-.141a3.612,3.612,0,0,0-3.261,6.422c.085.043.171.079.258.114a20.788,20.788,0,0,0-.687,2.96c-.094,0-.188,0-.284.01a3.769,3.769,0,0,0-3.313,3.835,3.191,3.191,0,0,0,3.454,3.232c.1-.009.194-.024.289-.041a19.02,19.02,0,0,0,.8,2.826c-.086.05-.172.1-.255.161a3.768,3.768,0,0,0-1.142,4.937,3.191,3.191,0,0,0,4.648.882c.082-.057.159-.12.235-.182a16.879,16.879,0,0,0,2.073,1.935c-.052.087-.1.174-.151.266a3.336,3.336,0,1,0,5.931,3.011c.047-.092.087-.185.126-.279a16.851,16.851,0,0,0,2.786.532c-.006.1-.01.2-.008.3a3.191,3.191,0,0,0,3.454,3.232,3.768,3.768,0,0,0,3.312-3.835c0-.1-.01-.2-.021-.3a19.025,19.025,0,0,0,2.754-1.022c.043.087.087.174.137.258a3.191,3.191,0,0,0,4.647.881,3.768,3.768,0,0,0,1.142-4.937c-.05-.082-.1-.159-.159-.235a20.75,20.75,0,0,0,1.984-2.3C1313.431,1296.894,1313.511,1296.943,1313.6,1296.986Zm-20.417.259c-5.947-3.019-8.117-10.686-4.848-17.125s10.74-9.211,16.686-6.192,8.117,10.686,4.848,17.125S1299.126,1300.264,1293.18,1297.245Z" transform="translate(-1275.553 -1262.82)" fill="#fff"/>
      </g>
      <path id="Path_21756" data-name="Path 21756" d="M1044.662,2045.858v207.329l24.6,22.385,46.146-36.949Z" transform="translate(-562.917 -1310.552)" opacity="0.3" fill="url(#linear-gradient-39)" style="mix-blend-mode: multiply;isolation: isolate"/>
      <g id="Group_1738" data-name="Group 1738" transform="translate(481.719 729.023)">
        <g id="Group_1735" data-name="Group 1735" transform="translate(0 0)">
          <g id="Group_1734" data-name="Group 1734">
            <g id="Group_1733" data-name="Group 1733">
              <path id="Path_21757" data-name="Path 21757" d="M1164.784,2020.691l21.249,213.706a5.486,5.486,0,0,1-4.877,6.184l-103.531,8.672c-6.311.221-9.717-3.178-10.06-6.546L1044.542,2016.5c-.346-3.4,2.807-6.406,9.183-6.276l104.942,4.424A6.755,6.755,0,0,1,1164.784,2020.691Z" transform="translate(-1044.516 -2010.214)" fill="#303043"/>
              <path id="Path_21758" data-name="Path 21758" d="M1189.11,2020.4l21.338,214.807a5.514,5.514,0,0,1-4.9,6.217l-107.336,7.868a6.387,6.387,0,0,1-6.727-5.708l-23.126-227.408a5.276,5.276,0,0,1,5.567-5.977l109.037,4.124A6.786,6.786,0,0,1,1189.11,2020.4Z" transform="translate(-1064.135 -2010.193)" fill="#303043"/>
              <path id="Path_21759" data-name="Path 21759" d="M1210.884,2093.739l19.791,199.094a5.142,5.142,0,0,1-4.584,5.8l-100.956,7.176a5.958,5.958,0,0,1-6.255-5.328l-21.344-210.047a4.941,4.941,0,0,1,5.17-5.6l102.437,3.26A6.3,6.3,0,0,1,1210.884,2093.739Z" transform="translate(-1088.169 -2071.681)" fill="#303043"/>
            </g>
            <path id="Path_21760" data-name="Path 21760" d="M1413.827,2050.575a1.75,1.75,0,0,1-1.813,2.012,2.424,2.424,0,0,1-2.235-2.153,1.75,1.75,0,0,1,1.817-2.012A2.425,2.425,0,0,1,1413.827,2050.575Z" transform="translate(-1345.411 -2041.685)" fill="#303043"/>
          </g>
        </g>
        <g id="Group_1736" data-name="Group 1736" transform="translate(45.003 65.425)" opacity="0.69">
          <path id="Path_21761" data-name="Path 21761" d="M1313.783,2388.872c-12.067,6.279-17.234,20.241-11.539,31.184s20.093,14.724,32.16,8.445Z" transform="translate(-1299.927 -2387.575)" fill="#fff"/>
          <path id="Path_21762" data-name="Path 21762" d="M1399.183,2422.436h0l-20.621-39.629h0a11.47,11.47,0,0,1,15.469,4.88l10.032,19.281A11.469,11.469,0,0,1,1399.183,2422.436Z" transform="translate(-1364.707 -2381.509)" fill="#fff"/>
          <path id="Path_21763" data-name="Path 21763" d="M1479.806,2715.121c-12.067,6.279-17.233,20.241-11.539,31.184s20.093,14.724,32.161,8.445Z" transform="translate(-1436.698 -2656.339)" fill="#fff"/>
          <path id="Path_21764" data-name="Path 21764" d="M1565.207,2748.684h0l-20.621-39.629h0a11.469,11.469,0,0,1,15.468,4.88l10.033,19.281A11.469,11.469,0,0,1,1565.207,2748.684Z" transform="translate(-1501.478 -2650.273)" fill="#fff"/>
          <path id="Path_21765" data-name="Path 21765" d="M1351.847,2579.188l-12.55,6.531q-24.058-23.423-32.512-62.48l12.55-6.531Z" transform="translate(-1305.577 -2492.885)" fill="#fff"/>
        </g>
        <g id="Group_1737" data-name="Group 1737" transform="translate(4.196 0)" opacity="0.3" style="mix-blend-mode: soft-light;isolation: isolate">
          <path id="Path_21766" data-name="Path 21766" d="M1122.612,2123.936c-10.668-31.52,7.9-47.4-2.615-76.593-5.721-15.884-17.173-27.717-29.772-36.529l-16.3-.616a5.277,5.277,0,0,0-5.568,5.977l23.126,227.408a6.386,6.386,0,0,0,6.726,5.707l92.669-6.793c-.291-23.745-6.324-40.644-13.032-52.657C1159.415,2156.83,1133.658,2156.574,1122.612,2123.936Z" transform="translate(-1068.33 -2010.194)" fill="#303043"/>
        </g>
      </g>
    </g>
  </g>
</svg>
