<?xml version="1.0" encoding="UTF-8"?> <!-- Generator: Adobe Illustrator 24.2.0, SVG Export Plug-In . SVG Version: 6.00 Build 0) --> <svg xmlns="http://www.w3.org/2000/svg" xmlns:xlink="http://www.w3.org/1999/xlink" version="1.1" id="Layer_1" x="0px" y="0px" viewBox="0 0 2560 880" style="enable-background:new 0 0 2560 880;" xml:space="preserve"> <style type="text/css"> .st0{fill:url(#SVGID_1_);} .st1{fill-rule:evenodd;clip-rule:evenodd;fill:#FFE444;fill-opacity:0.2;} </style> <g> <linearGradient id="SVGID_1_" gradientUnits="userSpaceOnUse" x1="2268.7742" y1="1608.6726" x2="1627.124" y2="822.3099"> <stop offset="0" style="stop-color:#FFE444"></stop> <stop offset="1" style="stop-color:#EDBD49"></stop> </linearGradient> <path class="st0" d="M2367.3,137.7c-103.4,40.2-139.7,87.4-256.1,77.2c-103-9-164.3,105.2-267.5,98.5c-51-3.3-99.5-26.8-150.6-26.3 c-76.4,0.7-137.1,62.7-207.9,91.4c-89.4,36.2-184.8,31.1-272.6-8.8c-108.5-49.3-199.9-145.7-318.7-155.2 c-44.7-3.6-89.8,5.9-134.4,1.4c-94.1-9.5-146.9-145.3-240.7-133.6c-96.3,12-161.6,44.5-242.7,25.5c-69.3-16.2-192.4-35.3-276,21 V675c49.1,35.2,115.6,46.9,176.9,40.5c78.8-8.3,166.2-111,253.9-137.8c86.6-26.5,83.7,86.9,267.5,65.7 c81.4-9.4,151-58.8,226.1-91.6c118.8-51.8,541.7-128.8,749.8,55.2c81.5,72.1,172.5,88.6,242.3,61.1c57.8-22.8,125-39.1,171.9-20 c46.9,19,102,88.4,148.1,124.6c130.7,102.7,248,109.2,323.4,107.1V118.8C2493.6,111.1,2426.5,114.7,2367.3,137.7z"></path> </g> <g> <path class="st1" d="M2539.2,180.2c-53.2-8-108.9-11-160.4,7.4c-46.7,16.7-85.5,49.3-131.7,67.2c-52.3,20.2-110.9,13.3-161.8-7.7 c-62.9-25.9-138,73.5-223.6,88.5c-67.2,11.8-134.1-60.8-171.6-63.3c-79.1-5.3-105.9,12.8-142.3,36.1c-57.7,36.9-94.3,65.7-198.4,80 c-138.6,19-189.3-125.5-324.9-159.7c-129.5-32.7-265.4,47.9-396.9,24.3c-104.2-18.7-185.1-98.6-278.9-147.6 c-60.4-31.5-126.5-52.1-194.6-56.2c-18.7-1.1-95.9-5.2-154.1,15v525.5c90.8-43.4,206.7-141.7,267.7-129.1 C377.6,483,445,593.9,543,648.5c28.1,15.6,60,26.7,91.9,23.2c45.3-5,209.3-130.3,273-150.9c169.1-54.6,393.5-21.4,560-9.8 c0,0,134.2,1.5,293.2,141c157,137.7,206.2-149.2,371.8-31.7c72.5,51.4,80.2,219.6,427,245.2V183.1 C2553,182.2,2546.1,181.2,2539.2,180.2z"></path> </g> </svg> 